STARTFONT 2.1
COMMENT
COMMENT Converted from OpenType font "JF-Dot-jiskan24h.ttf" by "otf2bdf 3.0".
COMMENT
FONT -FreeType-JF Dot jiskan24h-Medium-R-Normal--16-160-72-72-P-156-ISO10646-1
SIZE 16 72 72
FONTBOUNDINGBOX 16 16 0 -2
STARTPROPERTIES 19
FOUNDRY "FreeType"
FAMILY_NAME "JF Dot jiskan24h"
WEIGHT_NAME "Medium"
SLANT "R"
SETWIDTH_NAME "Normal"
ADD_STYLE_NAME ""
PIXEL_SIZE 16
POINT_SIZE 160
RESOLUTION_X 72
RESOLUTION_Y 72
SPACING "P"
AVERAGE_WIDTH 156
CHARSET_REGISTRY "ISO10646"
CHARSET_ENCODING "1"
FONT_ASCENT 13
FONT_DESCENT 2
COPYRIGHT "[JÒ‡W åÔ724] Copyright (c) Keitarou Hiraki, Font Silo. 1990-2015"
_OTF_FONTFILE "JF-Dot-jiskan24h.ttf"
_OTF_PSNAME "JF-Dot-jiskan24h"
ENDPROPERTIES
CHARS 11082
STARTCHAR 0020
ENCODING 32
SWIDTH 500 0
DWIDTH 8 0
BBX 0 0 0 0
BITMAP
ENDCHAR
STARTCHAR 0021
ENCODING 33
SWIDTH 500 0
DWIDTH 8 0
BBX 2 12 3 0
BITMAP
C0
C0
C0
C0
C0
C0
C0
C0
00
00
C0
C0
ENDCHAR
STARTCHAR 0022
ENCODING 34
SWIDTH 500 0
DWIDTH 8 0
BBX 6 5 1 8
BITMAP
48
CC
4C
80
10
ENDCHAR
STARTCHAR 0023
ENCODING 35
SWIDTH 500 0
DWIDTH 8 0
BBX 6 12 1 0
BITMAP
48
48
48
4C
F8
C8
48
4C
F8
C8
48
48
ENDCHAR
STARTCHAR 0024
ENCODING 36
SWIDTH 500 0
DWIDTH 8 0
BBX 6 15 1 -2
BITMAP
20
20
78
AC
A0
E0
F0
2C
24
24
24
E8
70
20
20
ENDCHAR
STARTCHAR 0025
ENCODING 37
SWIDTH 500 0
DWIDTH 8 0
BBX 6 11 1 0
BITMAP
C4
AC
A8
D0
10
30
20
58
54
D4
8C
ENDCHAR
STARTCHAR 0026
ENCODING 38
SWIDTH 500 0
DWIDTH 8 0
BBX 8 12 0 0
BITMAP
30
48
48
48
78
30
66
52
9C
9C
88
77
ENDCHAR
STARTCHAR 0027
ENCODING 39
SWIDTH 500 0
DWIDTH 8 0
BBX 3 5 2 8
BITMAP
40
60
60
00
80
ENDCHAR
STARTCHAR 0028
ENCODING 40
SWIDTH 500 0
DWIDTH 8 0
BBX 4 14 3 -1
BITMAP
10
60
40
C0
C0
80
80
80
80
C0
C0
40
40
30
ENDCHAR
STARTCHAR 0029
ENCODING 41
SWIDTH 500 0
DWIDTH 8 0
BBX 4 14 1 -1
BITMAP
80
00
20
30
30
10
10
10
10
30
30
20
40
80
ENDCHAR
STARTCHAR 002A
ENCODING 42
SWIDTH 500 0
DWIDTH 8 0
BBX 6 9 1 1
BITMAP
30
30
FC
FC
30
FC
B4
30
30
ENDCHAR
STARTCHAR 002B
ENCODING 43
SWIDTH 500 0
DWIDTH 8 0
BBX 6 7 1 2
BITMAP
30
30
30
FC
30
30
30
ENDCHAR
STARTCHAR 002C
ENCODING 44
SWIDTH 500 0
DWIDTH 8 0
BBX 3 5 1 -2
BITMAP
40
60
20
40
80
ENDCHAR
STARTCHAR 002D
ENCODING 45
SWIDTH 500 0
DWIDTH 8 0
BBX 6 1 1 5
BITMAP
FC
ENDCHAR
STARTCHAR 002E
ENCODING 46
SWIDTH 500 0
DWIDTH 8 0
BBX 2 2 1 0
BITMAP
C0
C0
ENDCHAR
STARTCHAR 002F
ENCODING 47
SWIDTH 500 0
DWIDTH 8 0
BBX 6 13 1 -2
BITMAP
04
04
04
08
10
00
10
20
20
00
40
40
80
ENDCHAR
STARTCHAR 0030
ENCODING 48
SWIDTH 500 0
DWIDTH 8 0
BBX 6 12 1 0
BITMAP
30
CC
84
84
84
84
84
84
84
84
84
FC
ENDCHAR
STARTCHAR 0031
ENCODING 49
SWIDTH 500 0
DWIDTH 8 0
BBX 5 12 1 0
BITMAP
10
30
F0
30
30
30
30
30
30
30
30
78
ENDCHAR
STARTCHAR 0032
ENCODING 50
SWIDTH 500 0
DWIDTH 8 0
BBX 6 12 1 0
BITMAP
30
CC
84
84
0C
0C
30
20
40
80
04
FC
ENDCHAR
STARTCHAR 0033
ENCODING 51
SWIDTH 500 0
DWIDTH 8 0
BBX 6 12 1 0
BITMAP
30
CC
84
84
04
08
7C
04
04
84
84
FC
ENDCHAR
STARTCHAR 0034
ENCODING 52
SWIDTH 500 0
DWIDTH 8 0
BBX 6 12 1 0
BITMAP
18
18
28
48
48
48
88
88
88
FC
08
18
ENDCHAR
STARTCHAR 0035
ENCODING 53
SWIDTH 500 0
DWIDTH 8 0
BBX 6 12 1 0
BITMAP
FC
FC
80
80
B0
CC
04
04
84
84
84
FC
ENDCHAR
STARTCHAR 0036
ENCODING 54
SWIDTH 500 0
DWIDTH 8 0
BBX 6 12 1 0
BITMAP
30
CC
84
80
80
B0
C4
84
84
84
84
FC
ENDCHAR
STARTCHAR 0037
ENCODING 55
SWIDTH 500 0
DWIDTH 8 0
BBX 6 12 1 0
BITMAP
FC
FC
04
08
00
10
10
10
30
20
20
20
ENDCHAR
STARTCHAR 0038
ENCODING 56
SWIDTH 500 0
DWIDTH 8 0
BBX 6 12 1 0
BITMAP
30
CC
84
84
84
CC
78
84
84
84
84
FC
ENDCHAR
STARTCHAR 0039
ENCODING 57
SWIDTH 500 0
DWIDTH 8 0
BBX 6 12 1 0
BITMAP
30
CC
84
84
84
84
CC
34
04
04
84
FC
ENDCHAR
STARTCHAR 003A
ENCODING 58
SWIDTH 500 0
DWIDTH 8 0
BBX 2 9 3 1
BITMAP
C0
C0
00
00
00
00
80
C0
80
ENDCHAR
STARTCHAR 003B
ENCODING 59
SWIDTH 500 0
DWIDTH 8 0
BBX 2 9 3 0
BITMAP
C0
C0
00
00
00
00
C0
C0
80
ENDCHAR
STARTCHAR 003C
ENCODING 60
SWIDTH 500 0
DWIDTH 8 0
BBX 6 12 1 0
BITMAP
04
0C
10
30
40
C0
80
C0
20
30
08
0C
ENDCHAR
STARTCHAR 003D
ENCODING 61
SWIDTH 500 0
DWIDTH 8 0
BBX 6 5 1 3
BITMAP
FC
00
00
00
FC
ENDCHAR
STARTCHAR 003E
ENCODING 62
SWIDTH 500 0
DWIDTH 8 0
BBX 6 11 1 1
BITMAP
80
40
20
10
08
0C
08
30
20
C0
80
ENDCHAR
STARTCHAR 003F
ENCODING 63
SWIDTH 500 0
DWIDTH 8 0
BBX 6 12 1 0
BITMAP
30
CC
84
84
04
0C
30
20
00
00
30
30
ENDCHAR
STARTCHAR 0040
ENCODING 64
SWIDTH 500 0
DWIDTH 8 0
BBX 7 12 0 0
BITMAP
18
64
46
8A
BA
AA
AA
AA
AE
98
42
7C
ENDCHAR
STARTCHAR 0041
ENCODING 65
SWIDTH 500 0
DWIDTH 8 0
BBX 6 12 1 0
BITMAP
30
30
30
50
50
10
48
48
78
8C
8C
CC
ENDCHAR
STARTCHAR 0042
ENCODING 66
SWIDTH 500 0
DWIDTH 8 0
BBX 6 12 1 0
BITMAP
F0
C8
CC
CC
C8
F0
CC
C4
C4
C4
C4
FC
ENDCHAR
STARTCHAR 0043
ENCODING 67
SWIDTH 500 0
DWIDTH 8 0
BBX 6 12 1 0
BITMAP
30
4C
C4
80
80
80
80
80
80
80
C4
78
ENDCHAR
STARTCHAR 0044
ENCODING 68
SWIDTH 500 0
DWIDTH 8 0
BBX 7 12 0 0
BITMAP
F8
44
46
42
42
42
42
42
42
42
46
FC
ENDCHAR
STARTCHAR 0045
ENCODING 69
SWIDTH 500 0
DWIDTH 8 0
BBX 6 12 1 0
BITMAP
FC
C4
C0
C0
C8
F8
C8
C0
C0
C0
C4
FC
ENDCHAR
STARTCHAR 0046
ENCODING 70
SWIDTH 500 0
DWIDTH 8 0
BBX 6 12 1 0
BITMAP
FC
C4
C0
C0
C8
F8
C8
C0
C0
C0
C0
E0
ENDCHAR
STARTCHAR 0047
ENCODING 71
SWIDTH 500 0
DWIDTH 8 0
BBX 7 12 1 0
BITMAP
30
4C
C4
80
80
80
9E
84
84
84
CC
74
ENDCHAR
STARTCHAR 0048
ENCODING 72
SWIDTH 500 0
DWIDTH 8 0
BBX 8 12 0 0
BITMAP
E7
42
42
42
42
7E
42
42
42
42
42
C3
ENDCHAR
STARTCHAR 0049
ENCODING 73
SWIDTH 500 0
DWIDTH 8 0
BBX 4 12 2 0
BITMAP
F0
60
60
60
60
60
60
60
60
60
60
F0
ENDCHAR
STARTCHAR 004A
ENCODING 74
SWIDTH 500 0
DWIDTH 8 0
BBX 6 14 1 -2
BITMAP
3C
08
08
08
08
08
08
08
08
08
C8
C8
90
70
ENDCHAR
STARTCHAR 004B
ENCODING 75
SWIDTH 500 0
DWIDTH 8 0
BBX 7 12 0 0
BITMAP
E6
42
44
48
48
50
78
48
48
44
46
C6
ENDCHAR
STARTCHAR 004C
ENCODING 76
SWIDTH 500 0
DWIDTH 8 0
BBX 6 12 1 0
BITMAP
E0
C0
C0
C0
C0
C0
C0
C0
C0
C0
C4
FC
ENDCHAR
STARTCHAR 004D
ENCODING 77
SWIDTH 500 0
DWIDTH 8 0
BBX 8 12 0 0
BITMAP
83
42
46
66
6A
AA
AA
AA
92
92
82
C3
ENDCHAR
STARTCHAR 004E
ENCODING 78
SWIDTH 500 0
DWIDTH 8 0
BBX 8 12 0 0
BITMAP
C3
42
A2
A2
92
92
9A
8A
86
86
86
C2
ENDCHAR
STARTCHAR 004F
ENCODING 79
SWIDTH 500 0
DWIDTH 8 0
BBX 6 12 1 0
BITMAP
30
48
84
84
84
84
84
84
84
84
CC
78
ENDCHAR
STARTCHAR 0050
ENCODING 80
SWIDTH 500 0
DWIDTH 8 0
BBX 6 12 1 0
BITMAP
F0
CC
C4
C4
C4
C4
F8
C0
C0
C0
C0
C0
ENDCHAR
STARTCHAR 0051
ENCODING 81
SWIDTH 500 0
DWIDTH 8 0
BBX 6 14 1 -2
BITMAP
30
48
84
84
84
84
84
84
84
84
FC
48
3C
04
ENDCHAR
STARTCHAR 0052
ENCODING 82
SWIDTH 500 0
DWIDTH 8 0
BBX 7 12 0 0
BITMAP
F8
44
46
46
44
78
44
44
46
46
46
C6
ENDCHAR
STARTCHAR 0053
ENCODING 83
SWIDTH 500 0
DWIDTH 8 0
BBX 6 12 1 0
BITMAP
34
C4
84
84
C0
70
0C
0C
04
84
8C
E8
ENDCHAR
STARTCHAR 0054
ENCODING 84
SWIDTH 500 0
DWIDTH 8 0
BBX 8 12 0 0
BITMAP
7E
9A
99
18
18
18
18
18
18
18
18
18
ENDCHAR
STARTCHAR 0055
ENCODING 85
SWIDTH 500 0
DWIDTH 8 0
BBX 8 12 0 0
BITMAP
E3
42
42
42
42
42
42
42
42
42
62
7E
ENDCHAR
STARTCHAR 0056
ENCODING 86
SWIDTH 500 0
DWIDTH 8 0
BBX 7 12 0 0
BITMAP
E6
42
42
64
64
64
28
20
18
18
10
10
ENDCHAR
STARTCHAR 0057
ENCODING 87
SWIDTH 500 0
DWIDTH 8 0
BBX 8 12 0 0
BITMAP
FB
5A
5A
5A
4A
6A
6A
6A
34
24
24
24
ENDCHAR
STARTCHAR 0058
ENCODING 88
SWIDTH 500 0
DWIDTH 8 0
BBX 7 12 0 0
BITMAP
E6
42
64
68
28
18
18
18
28
24
46
C6
ENDCHAR
STARTCHAR 0059
ENCODING 89
SWIDTH 500 0
DWIDTH 8 0
BBX 8 12 0 0
BITMAP
E3
42
62
62
24
18
18
18
18
18
18
18
ENDCHAR
STARTCHAR 005A
ENCODING 90
SWIDTH 500 0
DWIDTH 8 0
BBX 6 12 1 0
BITMAP
FC
84
0C
08
10
10
30
20
40
40
C0
FC
ENDCHAR
STARTCHAR 005B
ENCODING 91
SWIDTH 500 0
DWIDTH 8 0
BBX 5 14 2 -1
BITMAP
F8
80
80
80
80
80
80
80
80
80
80
80
80
F8
ENDCHAR
STARTCHAR 005C
ENCODING 92
SWIDTH 500 0
DWIDTH 8 0
BBX 8 12 0 0
BITMAP
E3
40
62
24
10
7E
18
18
7E
18
18
18
ENDCHAR
STARTCHAR 005D
ENCODING 93
SWIDTH 500 0
DWIDTH 8 0
BBX 5 14 1 -1
BITMAP
F8
08
08
08
08
08
08
08
08
08
08
08
08
F8
ENDCHAR
STARTCHAR 005E
ENCODING 94
SWIDTH 500 0
DWIDTH 8 0
BBX 6 4 1 10
BITMAP
20
30
C8
04
ENDCHAR
STARTCHAR 005F
ENCODING 95
SWIDTH 500 0
DWIDTH 8 0
BBX 6 1 1 -2
BITMAP
FC
ENDCHAR
STARTCHAR 0060
ENCODING 96
SWIDTH 500 0
DWIDTH 8 0
BBX 3 5 3 8
BITMAP
40
C0
C0
40
20
ENDCHAR
STARTCHAR 0061
ENCODING 97
SWIDTH 500 0
DWIDTH 8 0
BBX 7 8 1 0
BITMAP
38
CC
0C
0C
FC
8C
8C
FE
ENDCHAR
STARTCHAR 0062
ENCODING 98
SWIDTH 500 0
DWIDTH 8 0
BBX 7 13 0 0
BITMAP
40
C0
40
40
40
58
66
42
42
42
42
62
4E
ENDCHAR
STARTCHAR 0063
ENCODING 99
SWIDTH 500 0
DWIDTH 8 0
BBX 6 8 1 0
BITMAP
30
CC
80
80
80
80
C4
F8
ENDCHAR
STARTCHAR 0064
ENCODING 100
SWIDTH 500 0
DWIDTH 8 0
BBX 6 13 1 0
BITMAP
04
0C
0C
0C
0C
3C
CC
8C
8C
8C
8C
8C
EC
ENDCHAR
STARTCHAR 0065
ENCODING 101
SWIDTH 500 0
DWIDTH 8 0
BBX 6 8 1 0
BITMAP
30
CC
84
84
F8
80
C4
F8
ENDCHAR
STARTCHAR 0066
ENCODING 102
SWIDTH 500 0
DWIDTH 8 0
BBX 6 13 1 0
BITMAP
38
4C
40
40
40
F8
40
40
40
40
40
40
60
ENDCHAR
STARTCHAR 0067
ENCODING 103
SWIDTH 500 0
DWIDTH 8 0
BBX 6 10 1 -2
BITMAP
3C
C8
8C
8C
F0
80
FC
84
CC
70
ENDCHAR
STARTCHAR 0068
ENCODING 104
SWIDTH 500 0
DWIDTH 8 0
BBX 7 13 0 0
BITMAP
40
C0
40
40
40
58
64
46
46
46
46
46
C6
ENDCHAR
STARTCHAR 0069
ENCODING 105
SWIDTH 500 0
DWIDTH 8 0
BBX 2 12 3 0
BITMAP
C0
C0
00
00
40
C0
C0
C0
C0
C0
C0
C0
ENDCHAR
STARTCHAR 006A
ENCODING 106
SWIDTH 500 0
DWIDTH 8 0
BBX 5 14 1 -2
BITMAP
08
08
00
00
08
18
08
08
08
08
08
88
88
F0
ENDCHAR
STARTCHAR 006B
ENCODING 107
SWIDTH 500 0
DWIDTH 8 0
BBX 7 13 0 0
BITMAP
40
C0
40
40
40
46
44
48
50
78
48
44
C6
ENDCHAR
STARTCHAR 006C
ENCODING 108
SWIDTH 500 0
DWIDTH 8 0
BBX 2 13 3 0
BITMAP
40
C0
C0
C0
C0
C0
C0
C0
C0
C0
C0
C0
C0
ENDCHAR
STARTCHAR 006D
ENCODING 109
SWIDTH 500 0
DWIDTH 8 0
BBX 8 8 0 0
BITMAP
56
FE
5A
5A
5A
5A
5A
DB
ENDCHAR
STARTCHAR 006E
ENCODING 110
SWIDTH 500 0
DWIDTH 8 0
BBX 7 8 0 0
BITMAP
58
E4
46
46
46
46
46
C6
ENDCHAR
STARTCHAR 006F
ENCODING 111
SWIDTH 500 0
DWIDTH 8 0
BBX 6 8 1 0
BITMAP
30
CC
84
84
84
84
84
FC
ENDCHAR
STARTCHAR 0070
ENCODING 112
SWIDTH 500 0
DWIDTH 8 0
BBX 7 10 0 -2
BITMAP
58
C6
42
42
42
42
66
46
48
E0
ENDCHAR
STARTCHAR 0071
ENCODING 113
SWIDTH 500 0
DWIDTH 8 0
BBX 6 10 1 -2
BITMAP
34
CC
8C
8C
8C
8C
CC
CC
3C
0C
ENDCHAR
STARTCHAR 0072
ENCODING 114
SWIDTH 500 0
DWIDTH 8 0
BBX 6 8 1 0
BITMAP
0C
CC
60
40
40
40
40
60
ENDCHAR
STARTCHAR 0073
ENCODING 115
SWIDTH 500 0
DWIDTH 8 0
BBX 6 8 1 0
BITMAP
30
4C
C0
C0
3C
0C
C4
FC
ENDCHAR
STARTCHAR 0074
ENCODING 116
SWIDTH 500 0
DWIDTH 8 0
BBX 6 12 1 0
BITMAP
20
20
20
20
FC
20
20
20
20
20
20
3C
ENDCHAR
STARTCHAR 0075
ENCODING 117
SWIDTH 500 0
DWIDTH 8 0
BBX 7 8 0 0
BITMAP
42
C6
46
46
46
46
46
7E
ENDCHAR
STARTCHAR 0076
ENCODING 118
SWIDTH 500 0
DWIDTH 8 0
BBX 7 8 0 0
BITMAP
E6
42
64
64
28
20
18
10
ENDCHAR
STARTCHAR 0077
ENCODING 119
SWIDTH 500 0
DWIDTH 8 0
BBX 7 8 0 0
BITMAP
DE
5A
5A
6A
4A
64
64
64
ENDCHAR
STARTCHAR 0078
ENCODING 120
SWIDTH 500 0
DWIDTH 8 0
BBX 6 8 1 0
BITMAP
CC
C4
58
20
30
50
48
8C
ENDCHAR
STARTCHAR 0079
ENCODING 121
SWIDTH 500 0
DWIDTH 8 0
BBX 7 10 0 -2
BITMAP
E6
42
64
24
18
18
10
10
80
E0
ENDCHAR
STARTCHAR 007A
ENCODING 122
SWIDTH 500 0
DWIDTH 8 0
BBX 6 8 1 0
BITMAP
FC
8C
10
10
20
20
C4
FC
ENDCHAR
STARTCHAR 007B
ENCODING 123
SWIDTH 500 0
DWIDTH 8 0
BBX 6 14 1 -1
BITMAP
0C
10
30
30
30
20
40
C0
20
30
30
30
10
0C
ENDCHAR
STARTCHAR 007C
ENCODING 124
SWIDTH 500 0
DWIDTH 8 0
BBX 2 15 3 -2
BITMAP
C0
C0
C0
C0
C0
C0
C0
C0
C0
C0
C0
C0
C0
C0
C0
ENDCHAR
STARTCHAR 007D
ENCODING 125
SWIDTH 500 0
DWIDTH 8 0
BBX 6 14 1 -1
BITMAP
C0
20
30
30
30
10
00
1C
10
30
30
30
20
C0
ENDCHAR
STARTCHAR 007E
ENCODING 126
SWIDTH 500 0
DWIDTH 8 0
BBX 6 1 1 12
BITMAP
FC
ENDCHAR
STARTCHAR 00A0
ENCODING 160
SWIDTH 1000 0
DWIDTH 16 0
BBX 14 4 1 4
BITMAP
DFDC
DB14
BE98
BF90
ENDCHAR
STARTCHAR 00A1
ENCODING 161
SWIDTH 1000 0
DWIDTH 16 0
BBX 2 12 7 0
BITMAP
C0
C0
00
80
80
80
C0
C0
C0
C0
C0
C0
ENDCHAR
STARTCHAR 00A4
ENCODING 164
SWIDTH 1000 0
DWIDTH 16 0
BBX 10 10 3 0
BITMAP
8040
4C80
3300
4000
4080
4080
4080
4100
3300
CCC0
ENDCHAR
STARTCHAR 00A6
ENCODING 166
SWIDTH 1000 0
DWIDTH 16 0
BBX 1 13 7 -1
BITMAP
80
80
80
80
80
00
00
00
80
80
80
80
80
ENDCHAR
STARTCHAR 00A7
ENCODING 167
SWIDTH 1000 0
DWIDTH 16 0
BBX 8 13 4 -1
BITMAP
7E
81
40
60
7E
86
81
60
18
06
81
81
7E
ENDCHAR
STARTCHAR 00A8
ENCODING 168
SWIDTH 1000 0
DWIDTH 16 0
BBX 4 2 6 12
BITMAP
90
90
ENDCHAR
STARTCHAR 00A9
ENCODING 169
SWIDTH 1000 0
DWIDTH 16 0
BBX 14 15 1 -2
BITMAP
0780
3870
4010
4FE8
8864
9024
B004
B004
B004
9024
8844
4708
4010
3860
0780
ENDCHAR
STARTCHAR 00AA
ENCODING 170
SWIDTH 1000 0
DWIDTH 16 0
BBX 6 5 1 6
BITMAP
70
38
48
DC
6C
ENDCHAR
STARTCHAR 00AB
ENCODING 171
SWIDTH 1000 0
DWIDTH 16 0
BBX 6 12 8 0
BITMAP
24
24
48
48
98
98
98
98
48
48
24
24
ENDCHAR
STARTCHAR 00AD
ENCODING 173
SWIDTH 1000 0
DWIDTH 16 0
BBX 16 7 0 5
BITMAP
DA22
A2A0
9B91
8A91
BA10
4002
03C0
ENDCHAR
STARTCHAR 00AE
ENCODING 174
SWIDTH 1000 0
DWIDTH 16 0
BBX 14 15 1 -2
BITMAP
0780
3870
4010
7FC8
8844
8844
88C4
8F04
8904
8884
88C4
7C78
4000
3860
0780
ENDCHAR
STARTCHAR 00AF
ENCODING 175
SWIDTH 1000 0
DWIDTH 16 0
BBX 6 1 5 12
BITMAP
FC
ENDCHAR
STARTCHAR 00B0
ENCODING 176
SWIDTH 1000 0
DWIDTH 16 0
BBX 4 4 2 8
BITMAP
E0
90
80
60
ENDCHAR
STARTCHAR 00B1
ENCODING 177
SWIDTH 1000 0
DWIDTH 16 0
BBX 12 12 2 0
BITMAP
0400
0400
0400
0400
0400
FFF0
0400
0400
0400
0400
0000
FFF0
ENDCHAR
STARTCHAR 00B2
ENCODING 178
SWIDTH 1000 0
DWIDTH 16 0
BBX 5 7 1 6
BITMAP
30
C8
48
10
30
48
F8
ENDCHAR
STARTCHAR 00B3
ENCODING 179
SWIDTH 1000 0
DWIDTH 16 0
BBX 6 7 1 6
BITMAP
30
48
08
38
CC
48
30
ENDCHAR
STARTCHAR 00B4
ENCODING 180
SWIDTH 1000 0
DWIDTH 16 0
BBX 4 2 6 12
BITMAP
20
F0
ENDCHAR
STARTCHAR 00B6
ENCODING 182
SWIDTH 1000 0
DWIDTH 16 0
BBX 8 15 3 -2
BITMAP
3F
79
F9
F9
F9
79
39
09
09
09
09
09
09
09
09
ENDCHAR
STARTCHAR 00B7
ENCODING 183
SWIDTH 1000 0
DWIDTH 16 0
BBX 2 2 7 4
BITMAP
C0
C0
ENDCHAR
STARTCHAR 00B8
ENCODING 184
SWIDTH 1000 0
DWIDTH 16 0
BBX 4 4 6 -2
BITMAP
20
60
10
F0
ENDCHAR
STARTCHAR 00B9
ENCODING 185
SWIDTH 1000 0
DWIDTH 16 0
BBX 4 7 2 6
BITMAP
20
E0
60
60
60
60
F0
ENDCHAR
STARTCHAR 00BA
ENCODING 186
SWIDTH 1000 0
DWIDTH 16 0
BBX 6 5 1 6
BITMAP
30
CC
CC
48
30
ENDCHAR
STARTCHAR 00BB
ENCODING 187
SWIDTH 1000 0
DWIDTH 16 0
BBX 6 12 2 0
BITMAP
90
90
88
48
64
64
64
64
48
88
90
90
ENDCHAR
STARTCHAR 00BC
ENCODING 188
SWIDTH 1000 0
DWIDTH 16 0
BBX 10 15 3 -2
BITMAP
0400
1C00
0C00
0C00
0C00
0C00
1E00
FFC0
0000
0400
1400
1400
2400
1E00
0600
ENDCHAR
STARTCHAR 00BD
ENCODING 189
SWIDTH 1000 0
DWIDTH 16 0
BBX 10 15 3 -2
BITMAP
0400
1C00
0C00
0C00
0C00
0C00
1E00
FFC0
0000
1E00
3200
0200
0400
0900
1E00
ENDCHAR
STARTCHAR 00BE
ENCODING 190
SWIDTH 1000 0
DWIDTH 16 0
BBX 10 15 3 -2
BITMAP
0C00
1200
0200
0E00
3300
1200
0C00
FFC0
0000
0400
1400
1400
2400
1E00
0600
ENDCHAR
STARTCHAR 00BF
ENCODING 191
SWIDTH 1000 0
DWIDTH 16 0
BBX 8 12 3 0
BITMAP
0C
0C
00
08
10
10
20
40
C3
C3
41
3F
ENDCHAR
STARTCHAR 00C0
ENCODING 192
SWIDTH 1000 0
DWIDTH 16 0
BBX 12 14 2 0
BITMAP
0E00
0600
0180
0400
0600
0A00
0900
0900
1180
2080
3F40
2040
4060
E0F0
ENDCHAR
STARTCHAR 00C1
ENCODING 193
SWIDTH 1000 0
DWIDTH 16 0
BBX 12 14 2 0
BITMAP
0700
0600
1800
0400
0600
0A00
0900
0900
1180
2080
3F40
2040
4060
E0F0
ENDCHAR
STARTCHAR 00C2
ENCODING 194
SWIDTH 1000 0
DWIDTH 16 0
BBX 12 14 2 0
BITMAP
0400
0600
1900
0400
0600
0A00
0900
0900
1180
2080
3F40
2040
4060
E0F0
ENDCHAR
STARTCHAR 00C3
ENCODING 195
SWIDTH 1000 0
DWIDTH 16 0
BBX 12 14 2 0
BITMAP
0C00
1680
0100
0400
0600
0A00
0900
0900
1180
2080
3F40
2040
4060
E0F0
ENDCHAR
STARTCHAR 00C4
ENCODING 196
SWIDTH 1000 0
DWIDTH 16 0
BBX 12 13 2 0
BITMAP
0900
0000
0400
0600
0A00
0900
0900
1180
2080
3F40
2040
4060
E0F0
ENDCHAR
STARTCHAR 00C5
ENCODING 197
SWIDTH 1000 0
DWIDTH 16 0
BBX 12 14 2 0
BITMAP
0600
0A00
0600
0000
0600
0A00
0900
0900
1180
2080
3F40
2040
4060
E0F0
ENDCHAR
STARTCHAR 00C6
ENCODING 198
SWIDTH 1000 0
DWIDTH 16 0
BBX 14 12 1 0
BITMAP
03FC
0304
0500
0500
0908
0908
01F8
1108
2F00
2100
0100
E3FC
ENDCHAR
STARTCHAR 00C7
ENCODING 199
SWIDTH 1000 0
DWIDTH 16 0
BBX 11 14 2 -2
BITMAP
1FA0
2060
4020
4020
8000
8000
8000
8000
4000
6020
18C0
0700
0600
0F00
ENDCHAR
STARTCHAR 00C8
ENCODING 200
SWIDTH 1000 0
DWIDTH 16 0
BBX 11 14 2 0
BITMAP
0E00
0600
0180
FFC0
6040
6020
6100
6100
7F00
6100
6100
6020
6020
FFE0
ENDCHAR
STARTCHAR 00C9
ENCODING 201
SWIDTH 1000 0
DWIDTH 16 0
BBX 11 14 2 0
BITMAP
0700
0600
1800
FFC0
6040
6020
6100
6100
7F00
6100
6100
6020
6020
FFE0
ENDCHAR
STARTCHAR 00CA
ENCODING 202
SWIDTH 1000 0
DWIDTH 16 0
BBX 11 14 2 0
BITMAP
0400
0600
1900
FFC0
6040
6020
6100
6100
7F00
6100
6100
6020
6020
FFE0
ENDCHAR
STARTCHAR 00CB
ENCODING 203
SWIDTH 1000 0
DWIDTH 16 0
BBX 11 13 2 0
BITMAP
0900
0000
FFC0
6040
6020
6100
6100
7F00
6100
6100
6020
6020
FFE0
ENDCHAR
STARTCHAR 00CC
ENCODING 204
SWIDTH 1000 0
DWIDTH 16 0
BBX 5 14 6 0
BITMAP
E0
60
18
00
F0
60
60
60
60
60
60
60
60
F0
ENDCHAR
STARTCHAR 00CD
ENCODING 205
SWIDTH 1000 0
DWIDTH 16 0
BBX 5 14 5 0
BITMAP
38
30
C0
00
78
30
30
30
30
30
30
30
30
78
ENDCHAR
STARTCHAR 00CE
ENCODING 206
SWIDTH 1000 0
DWIDTH 16 0
BBX 5 14 5 0
BITMAP
20
30
C8
00
78
30
30
30
30
30
30
30
30
78
ENDCHAR
STARTCHAR 00CF
ENCODING 207
SWIDTH 1000 0
DWIDTH 16 0
BBX 6 13 5 0
BITMAP
48
00
FC
30
30
30
30
30
30
30
30
30
78
ENDCHAR
STARTCHAR 00D0
ENCODING 208
SWIDTH 1000 0
DWIDTH 16 0
BBX 11 12 2 0
BITMAP
FD00
6080
6060
6060
6020
6020
FC20
6020
6060
6060
6080
FD00
ENDCHAR
STARTCHAR 00D1
ENCODING 209
SWIDTH 1000 0
DWIDTH 16 0
BBX 12 14 2 0
BITMAP
0C00
1680
0100
E070
7020
5820
4820
4C20
4620
4220
41A0
41A0
4060
E060
ENDCHAR
STARTCHAR 00D2
ENCODING 210
SWIDTH 1000 0
DWIDTH 16 0
BBX 12 14 2 0
BITMAP
0E00
0600
0180
0F00
30C0
6060
4020
8010
8010
8010
4020
4020
2040
1F80
ENDCHAR
STARTCHAR 00D3
ENCODING 211
SWIDTH 1000 0
DWIDTH 16 0
BBX 12 14 2 0
BITMAP
0700
0600
1800
0F00
30C0
6060
4020
8010
8010
8010
4020
4020
2040
1F80
ENDCHAR
STARTCHAR 00D4
ENCODING 212
SWIDTH 1000 0
DWIDTH 16 0
BBX 12 14 2 0
BITMAP
0400
0600
1900
0F00
30C0
6060
4020
8010
8010
8010
4020
4020
2040
1F80
ENDCHAR
STARTCHAR 00D5
ENCODING 213
SWIDTH 1000 0
DWIDTH 16 0
BBX 12 14 2 0
BITMAP
0C00
1680
0100
0F00
30C0
6060
4020
8010
8010
8010
4020
4020
2040
1F80
ENDCHAR
STARTCHAR 00D6
ENCODING 214
SWIDTH 1000 0
DWIDTH 16 0
BBX 12 13 2 0
BITMAP
0900
0000
0F00
30C0
6060
4020
8010
8010
8010
4020
4020
2040
1F80
ENDCHAR
STARTCHAR 00D7
ENCODING 215
SWIDTH 1000 0
DWIDTH 16 0
BBX 10 10 3 0
BITMAP
8000
4080
4100
3200
0000
0C00
1400
2300
4100
80C0
ENDCHAR
STARTCHAR 00D8
ENCODING 216
SWIDTH 1000 0
DWIDTH 16 0
BBX 12 12 2 0
BITMAP
1F90
2060
4060
40A0
8110
8210
8410
8810
5020
4020
6040
1F80
ENDCHAR
STARTCHAR 00D9
ENCODING 217
SWIDTH 1000 0
DWIDTH 16 0
BBX 12 14 2 0
BITMAP
0E00
0600
0180
F070
6020
6020
6020
6020
6020
6020
6020
6020
2040
1F80
ENDCHAR
STARTCHAR 00DA
ENCODING 218
SWIDTH 1000 0
DWIDTH 16 0
BBX 12 14 2 0
BITMAP
0380
0600
0800
F070
6020
6020
6020
6020
6020
6020
6020
6020
2040
1F80
ENDCHAR
STARTCHAR 00DB
ENCODING 219
SWIDTH 1000 0
DWIDTH 16 0
BBX 12 14 2 0
BITMAP
0200
0600
0980
F070
6020
6020
6020
6020
6020
6020
6020
6020
2040
1F80
ENDCHAR
STARTCHAR 00DC
ENCODING 220
SWIDTH 1000 0
DWIDTH 16 0
BBX 12 13 2 0
BITMAP
0900
0000
F070
6020
6020
6020
6020
6020
6020
6020
6020
2040
1F80
ENDCHAR
STARTCHAR 00DD
ENCODING 221
SWIDTH 1000 0
DWIDTH 16 0
BBX 14 14 1 0
BITMAP
01C0
0300
0400
F83C
3010
1020
0C40
0480
0300
0300
0300
0300
0300
0780
ENDCHAR
STARTCHAR 00DE
ENCODING 222
SWIDTH 1000 0
DWIDTH 16 0
BBX 9 12 4 0
BITMAP
E000
4000
7C00
4200
4180
4180
4180
4100
7E00
4000
4000
E000
ENDCHAR
STARTCHAR 00DF
ENCODING 223
SWIDTH 1000 0
DWIDTH 16 0
BBX 9 12 4 0
BITMAP
2E00
6200
4100
4100
4600
5C00
4300
4180
4180
4180
5180
DF00
ENDCHAR
STARTCHAR 00E0
ENCODING 224
SWIDTH 1000 0
DWIDTH 16 0
BBX 9 12 3 0
BITMAP
3800
0C00
0200
0000
7F00
4100
0100
0F00
7100
C100
C100
7B80
ENDCHAR
STARTCHAR 00E1
ENCODING 225
SWIDTH 1000 0
DWIDTH 16 0
BBX 9 12 3 0
BITMAP
0C00
1800
0000
0000
7F00
4100
0100
0F00
7100
C100
C100
7B80
ENDCHAR
STARTCHAR 00E2
ENCODING 226
SWIDTH 1000 0
DWIDTH 16 0
BBX 9 12 3 0
BITMAP
0800
0C00
3200
0000
7F00
4100
0100
0F00
7100
C100
C100
7B80
ENDCHAR
STARTCHAR 00E3
ENCODING 227
SWIDTH 1000 0
DWIDTH 16 0
BBX 9 12 3 0
BITMAP
3100
0A00
0400
0000
7F00
4100
0100
0F00
7100
C100
C100
7B80
ENDCHAR
STARTCHAR 00E4
ENCODING 228
SWIDTH 1000 0
DWIDTH 16 0
BBX 9 11 3 0
BITMAP
3400
0000
0000
7F00
4100
0100
0F00
7100
C100
C100
7B80
ENDCHAR
STARTCHAR 00E5
ENCODING 229
SWIDTH 1000 0
DWIDTH 16 0
BBX 9 12 3 0
BITMAP
0800
1400
0800
0000
7F00
4100
0100
0F00
7100
C100
C100
7B80
ENDCHAR
STARTCHAR 00E6
ENCODING 230
SWIDTH 1000 0
DWIDTH 16 0
BBX 14 8 1 0
BITMAP
7EF0
4308
030C
0FFC
5300
C300
C304
5CE8
ENDCHAR
STARTCHAR 00E7
ENCODING 231
SWIDTH 1000 0
DWIDTH 16 0
BBX 8 10 4 -2
BITMAP
7E
41
80
80
80
40
62
1C
18
3C
ENDCHAR
STARTCHAR 00E8
ENCODING 232
SWIDTH 1000 0
DWIDTH 16 0
BBX 9 12 3 0
BITMAP
1C00
0C00
0300
0000
3F00
2100
4080
FF80
C000
4000
2080
3F00
ENDCHAR
STARTCHAR 00E9
ENCODING 233
SWIDTH 1000 0
DWIDTH 16 0
BBX 9 12 3 0
BITMAP
0E00
0C00
3000
0000
3F00
2100
4080
FF80
C000
4000
2080
3F00
ENDCHAR
STARTCHAR 00EA
ENCODING 234
SWIDTH 1000 0
DWIDTH 16 0
BBX 9 12 3 0
BITMAP
0800
0C00
3200
0000
3F00
2100
4080
FF80
C000
4000
2080
3F00
ENDCHAR
STARTCHAR 00EB
ENCODING 235
SWIDTH 1000 0
DWIDTH 16 0
BBX 9 11 3 0
BITMAP
1200
0000
0000
3F00
2100
4080
FF80
C000
4000
2080
3F00
ENDCHAR
STARTCHAR 00EC
ENCODING 236
SWIDTH 1000 0
DWIDTH 16 0
BBX 5 12 5 0
BITMAP
E0
30
08
00
70
30
30
30
30
30
30
78
ENDCHAR
STARTCHAR 00ED
ENCODING 237
SWIDTH 1000 0
DWIDTH 16 0
BBX 5 12 5 0
BITMAP
38
30
C0
00
70
30
30
30
30
30
30
78
ENDCHAR
STARTCHAR 00EE
ENCODING 238
SWIDTH 1000 0
DWIDTH 16 0
BBX 5 12 5 0
BITMAP
20
30
C8
00
70
30
30
30
30
30
30
78
ENDCHAR
STARTCHAR 00EF
ENCODING 239
SWIDTH 1000 0
DWIDTH 16 0
BBX 4 11 6 0
BITMAP
90
00
00
E0
60
60
60
60
60
60
F0
ENDCHAR
STARTCHAR 00F0
ENCODING 240
SWIDTH 1000 0
DWIDTH 16 0
BBX 8 12 4 0
BITMAP
3E
1C
22
02
7D
47
83
81
81
81
42
7E
ENDCHAR
STARTCHAR 00F1
ENCODING 241
SWIDTH 1000 0
DWIDTH 16 0
BBX 10 12 3 0
BITMAP
1800
2D00
0200
0000
F700
2080
2080
2080
2080
2080
2080
71C0
ENDCHAR
STARTCHAR 00F2
ENCODING 242
SWIDTH 1000 0
DWIDTH 16 0
BBX 10 12 3 0
BITMAP
1C00
0C00
0300
0000
3F00
2100
4080
C0C0
C0C0
4080
2100
3F00
ENDCHAR
STARTCHAR 00F3
ENCODING 243
SWIDTH 1000 0
DWIDTH 16 0
BBX 10 12 3 0
BITMAP
0E00
0C00
3000
0000
3F00
2100
4080
C0C0
C0C0
4080
2100
3F00
ENDCHAR
STARTCHAR 00F4
ENCODING 244
SWIDTH 1000 0
DWIDTH 16 0
BBX 10 12 3 0
BITMAP
0800
0C00
3200
0000
3F00
2100
4080
C0C0
C0C0
4080
2100
3F00
ENDCHAR
STARTCHAR 00F5
ENCODING 245
SWIDTH 1000 0
DWIDTH 16 0
BBX 10 12 3 0
BITMAP
1800
2D00
0200
0000
3F00
2100
4080
C0C0
C0C0
4080
2100
3F00
ENDCHAR
STARTCHAR 00F6
ENCODING 246
SWIDTH 1000 0
DWIDTH 16 0
BBX 10 11 3 0
BITMAP
1200
0000
0000
3F00
2100
4080
C0C0
C0C0
4080
2100
3F00
ENDCHAR
STARTCHAR 00F7
ENCODING 247
SWIDTH 1000 0
DWIDTH 16 0
BBX 12 10 2 1
BITMAP
0600
0600
0000
0000
0000
FFF0
0000
0000
0600
0600
ENDCHAR
STARTCHAR 00F8
ENCODING 248
SWIDTH 1000 0
DWIDTH 16 0
BBX 10 8 3 0
BITMAP
3F80
2100
4280
C4C0
C8C0
5080
2100
7F00
ENDCHAR
STARTCHAR 00F9
ENCODING 249
SWIDTH 1000 0
DWIDTH 16 0
BBX 9 12 3 0
BITMAP
3000
1800
0400
0000
C300
4100
4100
4100
4100
4100
4100
3F80
ENDCHAR
STARTCHAR 00FA
ENCODING 250
SWIDTH 1000 0
DWIDTH 16 0
BBX 9 12 3 0
BITMAP
0E00
0C00
3000
0000
C300
4100
4100
4100
4100
4100
4100
3F80
ENDCHAR
STARTCHAR 00FB
ENCODING 251
SWIDTH 1000 0
DWIDTH 16 0
BBX 9 12 3 0
BITMAP
0800
0C00
3200
0000
C300
4100
4100
4100
4100
4100
4100
3F80
ENDCHAR
STARTCHAR 00FC
ENCODING 252
SWIDTH 1000 0
DWIDTH 16 0
BBX 9 11 3 0
BITMAP
3400
0000
0000
C300
4100
4100
4100
4100
4100
4100
3F80
ENDCHAR
STARTCHAR 00FD
ENCODING 253
SWIDTH 1000 0
DWIDTH 16 0
BBX 10 14 3 -2
BITMAP
0300
0600
0000
0000
71C0
2100
3100
1100
0A00
0C00
0400
0800
8000
F000
ENDCHAR
STARTCHAR 00FE
ENCODING 254
SWIDTH 1000 0
DWIDTH 16 0
BBX 10 14 3 -2
BITMAP
C000
4000
4000
4000
5F00
6080
40C0
40C0
4080
4080
7F00
4000
4000
E000
ENDCHAR
STARTCHAR 00FF
ENCODING 255
SWIDTH 1000 0
DWIDTH 16 0
BBX 10 13 3 -2
BITMAP
0B00
0000
0000
71C0
2100
3100
1100
0A00
0C00
0400
0800
8000
F000
ENDCHAR
STARTCHAR 0100
ENCODING 256
SWIDTH 1000 0
DWIDTH 16 0
BBX 12 13 2 0
BITMAP
1F80
0000
0400
0600
0A00
0900
0900
1180
2080
3F40
2040
4060
E0F0
ENDCHAR
STARTCHAR 0101
ENCODING 257
SWIDTH 1000 0
DWIDTH 16 0
BBX 9 10 3 0
BITMAP
3E00
0000
7F00
4100
0100
0F00
7100
C100
C100
7B80
ENDCHAR
STARTCHAR 0102
ENCODING 258
SWIDTH 1000 0
DWIDTH 16 0
BBX 12 14 2 0
BITMAP
1980
0F00
0000
0400
0600
0A00
0900
0900
1180
2080
3F40
2040
4060
E0F0
ENDCHAR
STARTCHAR 0103
ENCODING 259
SWIDTH 1000 0
DWIDTH 16 0
BBX 9 11 3 0
BITMAP
2200
1C00
0000
7F00
4100
0100
0F00
7100
C100
C100
7B80
ENDCHAR
STARTCHAR 0104
ENCODING 260
SWIDTH 1000 0
DWIDTH 16 0
BBX 12 14 2 -2
BITMAP
0600
0600
0200
0900
0900
1180
0080
2080
3F40
2040
4060
4060
A090
0030
ENDCHAR
STARTCHAR 0105
ENCODING 261
SWIDTH 1000 0
DWIDTH 16 0
BBX 9 10 3 -2
BITMAP
7F00
4100
0100
0F00
5100
C100
C100
4300
1D80
0180
ENDCHAR
STARTCHAR 0106
ENCODING 262
SWIDTH 1000 0
DWIDTH 16 0
BBX 11 14 2 0
BITMAP
0700
0600
1800
0600
39E0
6060
4020
8000
8000
8000
4000
4000
2040
1F80
ENDCHAR
STARTCHAR 0107
ENCODING 263
SWIDTH 1000 0
DWIDTH 16 0
BBX 9 11 3 0
BITMAP
0E00
1000
2000
3F00
2080
4000
C000
C000
4000
2080
3F00
ENDCHAR
STARTCHAR 0108
ENCODING 264
SWIDTH 1000 0
DWIDTH 16 0
BBX 11 14 2 0
BITMAP
0400
0600
1900
0600
39E0
6060
4020
8000
8000
8000
4000
4000
2040
1F80
ENDCHAR
STARTCHAR 0109
ENCODING 265
SWIDTH 1000 0
DWIDTH 16 0
BBX 9 12 3 0
BITMAP
0800
0C00
3200
0000
3F00
2080
4000
C000
C000
4000
2080
3F00
ENDCHAR
STARTCHAR 010C
ENCODING 268
SWIDTH 1000 0
DWIDTH 16 0
BBX 11 14 2 0
BITMAP
1100
0A00
0400
0600
31E0
6060
4020
8000
8000
8000
4000
4000
2040
1F80
ENDCHAR
STARTCHAR 010D
ENCODING 269
SWIDTH 1000 0
DWIDTH 16 0
BBX 9 11 3 0
BITMAP
2200
1C00
0800
3700
2080
4000
C000
C000
4000
2080
3F00
ENDCHAR
STARTCHAR 010E
ENCODING 270
SWIDTH 1000 0
DWIDTH 16 0
BBX 11 13 2 1
BITMAP
1E00
0800
FE00
6180
6040
6060
6020
6020
6020
6060
6060
6080
FD00
ENDCHAR
STARTCHAR 010F
ENCODING 271
SWIDTH 1000 0
DWIDTH 16 0
BBX 10 14 3 0
BITMAP
2200
1400
0B80
0080
0080
0080
3E80
4180
C080
C080
C080
C080
4080
3FC0
ENDCHAR
STARTCHAR 0111
ENCODING 273
SWIDTH 1000 0
DWIDTH 16 0
BBX 11 12 3 0
BITMAP
0380
0080
0FE0
0080
3A80
4180
C080
C080
C080
C080
4080
3FC0
ENDCHAR
STARTCHAR 0112
ENCODING 274
SWIDTH 1000 0
DWIDTH 16 0
BBX 11 13 2 0
BITMAP
1F80
0000
FFC0
6040
6020
6100
6100
7F00
6100
6100
6020
6020
FFE0
ENDCHAR
STARTCHAR 0113
ENCODING 275
SWIDTH 1000 0
DWIDTH 16 0
BBX 9 10 3 0
BITMAP
1E00
0000
3F00
2100
4080
FF80
C000
4000
2080
3F00
ENDCHAR
STARTCHAR 0118
ENCODING 280
SWIDTH 1000 0
DWIDTH 16 0
BBX 11 14 2 -2
BITMAP
FFC0
6040
6020
6000
6100
6100
7F00
6100
6000
6020
6020
6060
9F80
01C0
ENDCHAR
STARTCHAR 0119
ENCODING 281
SWIDTH 1000 0
DWIDTH 16 0
BBX 9 10 3 -2
BITMAP
3F00
2100
4080
FF80
C000
4000
2080
3100
0E00
0E00
ENDCHAR
STARTCHAR 011A
ENCODING 282
SWIDTH 1000 0
DWIDTH 16 0
BBX 11 14 2 0
BITMAP
1100
0A00
0400
FFC0
6040
6020
6100
6100
7F00
6100
6100
6020
6020
FFE0
ENDCHAR
STARTCHAR 011B
ENCODING 283
SWIDTH 1000 0
DWIDTH 16 0
BBX 9 11 3 0
BITMAP
2200
1C00
0800
3700
2100
4080
FF80
C000
4000
2080
3F00
ENDCHAR
STARTCHAR 011C
ENCODING 284
SWIDTH 1000 0
DWIDTH 16 0
BBX 13 14 2 0
BITMAP
0400
0600
1900
0600
39E0
6060
4020
8000
81F8
8060
4060
4060
2060
1FA0
ENDCHAR
STARTCHAR 011D
ENCODING 285
SWIDTH 1000 0
DWIDTH 16 0
BBX 10 14 3 -2
BITMAP
0800
0C00
3200
00C0
3F40
4100
4100
2300
3C00
2000
1F80
40C0
C0C0
5F80
ENDCHAR
STARTCHAR 0124
ENCODING 292
SWIDTH 1000 0
DWIDTH 16 0
BBX 12 14 2 0
BITMAP
0400
0600
1900
0000
F0F0
6060
6060
6060
7FE0
6060
6060
6060
6060
F0F0
ENDCHAR
STARTCHAR 0125
ENCODING 293
SWIDTH 1000 0
DWIDTH 16 0
BBX 10 14 3 0
BITMAP
0800
0C00
3200
4000
C000
4000
5F00
6080
4080
4080
4080
4080
4080
E1C0
ENDCHAR
STARTCHAR 0127
ENCODING 295
SWIDTH 1000 0
DWIDTH 16 0
BBX 11 12 2 0
BITMAP
6000
2000
FE00
2000
2700
2880
3040
2040
2040
2040
2040
70E0
ENDCHAR
STARTCHAR 012A
ENCODING 298
SWIDTH 1000 0
DWIDTH 16 0
BBX 6 13 5 0
BITMAP
FC
00
FC
30
30
30
30
30
30
30
30
30
78
ENDCHAR
STARTCHAR 012B
ENCODING 299
SWIDTH 1000 0
DWIDTH 16 0
BBX 5 10 5 0
BITMAP
F8
00
70
30
30
30
30
30
30
78
ENDCHAR
STARTCHAR 0134
ENCODING 308
SWIDTH 1000 0
DWIDTH 16 0
BBX 9 14 3 0
BITMAP
0200
0300
0C80
0000
0780
0300
0300
0300
0300
0300
4300
C300
C200
7C00
ENDCHAR
STARTCHAR 0135
ENCODING 309
SWIDTH 1000 0
DWIDTH 16 0
BBX 7 13 3 -1
BITMAP
06
00
00
06
02
02
02
02
02
02
02
C4
FC
ENDCHAR
STARTCHAR 0139
ENCODING 313
SWIDTH 1000 0
DWIDTH 16 0
BBX 11 14 3 0
BITMAP
0700
0C00
1000
F000
4000
4000
4000
4000
4000
4000
4000
4020
4000
FFC0
ENDCHAR
STARTCHAR 013A
ENCODING 314
SWIDTH 1000 0
DWIDTH 16 0
BBX 5 14 5 0
BITMAP
38
30
C0
30
70
30
30
30
30
30
30
30
30
78
ENDCHAR
STARTCHAR 013D
ENCODING 317
SWIDTH 1000 0
DWIDTH 16 0
BBX 11 14 3 0
BITMAP
2200
1400
0800
F000
4000
4000
4000
4000
4000
4000
4000
4020
4000
FFC0
ENDCHAR
STARTCHAR 013E
ENCODING 318
SWIDTH 1000 0
DWIDTH 16 0
BBX 5 14 5 0
BITMAP
88
50
20
00
70
30
30
30
30
30
30
30
30
78
ENDCHAR
STARTCHAR 0141
ENCODING 321
SWIDTH 1000 0
DWIDTH 16 0
BBX 13 12 1 0
BITMAP
3800
1000
1000
1000
1300
1C00
3000
D000
1000
1008
1000
3FF0
ENDCHAR
STARTCHAR 0142
ENCODING 322
SWIDTH 1000 0
DWIDTH 16 0
BBX 6 12 5 0
BITMAP
70
30
30
30
34
38
F0
30
30
30
30
78
ENDCHAR
STARTCHAR 0143
ENCODING 323
SWIDTH 1000 0
DWIDTH 16 0
BBX 12 14 2 0
BITMAP
0700
0600
1800
E070
7020
5820
4820
4C20
4620
4220
41A0
41A0
4060
E060
ENDCHAR
STARTCHAR 0144
ENCODING 324
SWIDTH 1000 0
DWIDTH 16 0
BBX 10 11 3 0
BITMAP
0700
0800
1000
F700
2080
2080
2080
2080
2080
2080
71C0
ENDCHAR
STARTCHAR 0147
ENCODING 327
SWIDTH 1000 0
DWIDTH 16 0
BBX 12 14 2 0
BITMAP
1100
0A00
0400
E070
7020
5820
4820
4C20
4620
4220
41A0
41A0
4060
E060
ENDCHAR
STARTCHAR 0148
ENCODING 328
SWIDTH 1000 0
DWIDTH 16 0
BBX 10 11 3 0
BITMAP
1100
0E00
0400
F300
2080
2080
2080
2080
2080
2080
71C0
ENDCHAR
STARTCHAR 014B
ENCODING 331
SWIDTH 1000 0
DWIDTH 16 0
BBX 9 10 3 -2
BITMAP
F700
2080
2080
2080
2080
2080
2080
2080
5080
0F00
ENDCHAR
STARTCHAR 014C
ENCODING 332
SWIDTH 1000 0
DWIDTH 16 0
BBX 12 13 2 0
BITMAP
1F80
0000
0F00
30C0
6060
4020
8010
8010
8010
4020
4020
2040
1F80
ENDCHAR
STARTCHAR 014D
ENCODING 333
SWIDTH 1000 0
DWIDTH 16 0
BBX 10 10 3 0
BITMAP
1E00
0000
3F00
2100
4080
C0C0
C0C0
4080
2100
3F00
ENDCHAR
STARTCHAR 0150
ENCODING 336
SWIDTH 1000 0
DWIDTH 16 0
BBX 12 14 2 0
BITMAP
0EE0
1980
2200
0F00
30C0
6060
4020
8010
8010
8010
4020
4020
2040
1F80
ENDCHAR
STARTCHAR 0151
ENCODING 337
SWIDTH 1000 0
DWIDTH 16 0
BBX 10 11 3 0
BITMAP
1DC0
2200
4400
3B00
2100
4080
C0C0
C0C0
4080
2100
3F00
ENDCHAR
STARTCHAR 0152
ENCODING 338
SWIDTH 1000 0
DWIDTH 16 0
BBX 14 12 1 0
BITMAP
3FFC
2104
C100
C100
8108
8108
81F8
8108
C100
C100
2100
3FFC
ENDCHAR
STARTCHAR 0153
ENCODING 339
SWIDTH 1000 0
DWIDTH 16 0
BBX 14 8 1 0
BITMAP
3CF0
4308
C30C
C3FC
C300
C300
4304
3CF8
ENDCHAR
STARTCHAR 0154
ENCODING 340
SWIDTH 1000 0
DWIDTH 16 0
BBX 13 14 2 0
BITMAP
0700
0600
1800
FF00
60C0
6060
6060
6040
7F80
6100
6080
6080
6088
F0F0
ENDCHAR
STARTCHAR 0155
ENCODING 341
SWIDTH 1000 0
DWIDTH 16 0
BBX 9 12 4 0
BITMAP
0E00
1800
2000
0000
E780
6980
6000
6000
6000
6000
6000
F000
ENDCHAR
STARTCHAR 0158
ENCODING 344
SWIDTH 1000 0
DWIDTH 16 0
BBX 13 13 2 1
BITMAP
1E00
0800
FF00
60C0
6060
6060
6040
7F80
6100
6080
6080
6088
F0F0
ENDCHAR
STARTCHAR 0159
ENCODING 345
SWIDTH 1000 0
DWIDTH 16 0
BBX 9 11 4 0
BITMAP
4400
3800
1000
E780
6980
6000
6000
6000
6000
6000
F000
ENDCHAR
STARTCHAR 015A
ENCODING 346
SWIDTH 1000 0
DWIDTH 16 0
BBX 10 14 3 0
BITMAP
0E00
0C00
3000
1C40
61C0
C0C0
C040
7000
0F00
0380
80C0
8040
C0C0
FE80
ENDCHAR
STARTCHAR 015B
ENCODING 347
SWIDTH 1000 0
DWIDTH 16 0
BBX 8 11 4 0
BITMAP
1C
20
40
7E
82
C0
78
06
03
81
FE
ENDCHAR
STARTCHAR 015C
ENCODING 348
SWIDTH 1000 0
DWIDTH 16 0
BBX 10 14 3 0
BITMAP
0800
0C00
3200
1C40
61C0
C0C0
C040
7000
0F00
0380
80C0
8040
C0C0
FE80
ENDCHAR
STARTCHAR 015D
ENCODING 349
SWIDTH 1000 0
DWIDTH 16 0
BBX 8 12 4 0
BITMAP
10
18
64
00
7E
82
C0
78
06
03
81
FE
ENDCHAR
STARTCHAR 015E
ENCODING 350
SWIDTH 1000 0
DWIDTH 16 0
BBX 10 14 3 -2
BITMAP
3FC0
40C0
C040
C040
7000
3C00
0380
00C0
8040
C040
F080
8F00
0C00
1E00
ENDCHAR
STARTCHAR 015F
ENCODING 351
SWIDTH 1000 0
DWIDTH 16 0
BBX 8 10 4 -2
BITMAP
7E
82
C0
78
07
81
C2
BC
18
3C
ENDCHAR
STARTCHAR 0160
ENCODING 352
SWIDTH 1000 0
DWIDTH 16 0
BBX 10 14 3 0
BITMAP
2200
1400
0800
1C40
61C0
C0C0
C040
7000
0F00
0380
80C0
8040
C0C0
FE80
ENDCHAR
STARTCHAR 0161
ENCODING 353
SWIDTH 1000 0
DWIDTH 16 0
BBX 8 12 4 0
BITMAP
44
28
10
00
7E
82
C0
78
06
03
81
FE
ENDCHAR
STARTCHAR 0162
ENCODING 354
SWIDTH 1000 0
DWIDTH 16 0
BBX 14 14 1 -2
BITMAP
7FF8
4308
8304
0300
0300
0300
0300
0300
0300
0300
0300
0780
0300
0780
ENDCHAR
STARTCHAR 0163
ENCODING 355
SWIDTH 1000 0
DWIDTH 16 0
BBX 8 14 4 -2
BITMAP
20
20
20
20
FC
20
20
20
20
21
10
1E
1C
1E
ENDCHAR
STARTCHAR 0164
ENCODING 356
SWIDTH 1000 0
DWIDTH 16 0
BBX 14 14 1 0
BITMAP
0880
0500
0200
7FF8
4308
8304
0300
0300
0300
0300
0300
0300
0300
0780
ENDCHAR
STARTCHAR 0165
ENCODING 357
SWIDTH 1000 0
DWIDTH 16 0
BBX 8 13 4 1
BITMAP
78
20
20
20
20
FC
20
20
20
20
20
21
1C
ENDCHAR
STARTCHAR 016A
ENCODING 362
SWIDTH 1000 0
DWIDTH 16 0
BBX 12 13 2 0
BITMAP
1F80
0000
F070
6020
6020
6020
6020
6020
6020
6020
6020
2040
1F80
ENDCHAR
STARTCHAR 016B
ENCODING 363
SWIDTH 1000 0
DWIDTH 16 0
BBX 9 10 3 0
BITMAP
1E00
0000
C300
4100
4100
4100
4100
4100
4100
3F80
ENDCHAR
STARTCHAR 016C
ENCODING 364
SWIDTH 1000 0
DWIDTH 16 0
BBX 12 14 2 0
BITMAP
1980
0F00
0000
F070
6020
6020
6020
6020
6020
6020
6020
6020
2040
1F80
ENDCHAR
STARTCHAR 016D
ENCODING 365
SWIDTH 1000 0
DWIDTH 16 0
BBX 9 11 3 0
BITMAP
2200
1C00
0000
C300
4100
4100
4100
4100
4100
4100
3F80
ENDCHAR
STARTCHAR 016E
ENCODING 366
SWIDTH 1000 0
DWIDTH 16 0
BBX 12 14 2 0
BITMAP
0600
0A00
0600
F070
6020
6020
6020
6020
6020
6020
6020
6020
2040
1F80
ENDCHAR
STARTCHAR 016F
ENCODING 367
SWIDTH 1000 0
DWIDTH 16 0
BBX 9 12 3 0
BITMAP
0800
1400
0800
0000
C300
4100
4100
4100
4100
4100
4100
3F80
ENDCHAR
STARTCHAR 0170
ENCODING 368
SWIDTH 1000 0
DWIDTH 16 0
BBX 12 14 2 0
BITMAP
0EE0
1980
2200
F070
6020
6020
6020
6020
6020
6020
6020
6020
2040
1F80
ENDCHAR
STARTCHAR 0171
ENCODING 369
SWIDTH 1000 0
DWIDTH 16 0
BBX 10 12 3 0
BITMAP
1DC0
3300
4400
0000
C300
4100
4100
4100
4100
4100
4100
3F80
ENDCHAR
STARTCHAR 0179
ENCODING 377
SWIDTH 1000 0
DWIDTH 16 0
BBX 11 14 2 0
BITMAP
0700
0600
1800
7FE0
40C0
8180
0100
0200
0600
0C00
1800
1820
6020
FFE0
ENDCHAR
STARTCHAR 017A
ENCODING 378
SWIDTH 1000 0
DWIDTH 16 0
BBX 8 11 4 0
BITMAP
1C
20
40
BF
86
0C
18
30
20
61
FF
ENDCHAR
STARTCHAR 017B
ENCODING 379
SWIDTH 1000 0
DWIDTH 16 0
BBX 11 13 2 0
BITMAP
0600
0000
7FE0
40C0
8180
0100
0200
0600
0C00
1800
1820
6020
FFE0
ENDCHAR
STARTCHAR 017C
ENCODING 380
SWIDTH 1000 0
DWIDTH 16 0
BBX 8 11 4 0
BITMAP
18
00
00
FF
86
0C
18
30
20
61
FF
ENDCHAR
STARTCHAR 017D
ENCODING 381
SWIDTH 1000 0
DWIDTH 16 0
BBX 11 14 2 0
BITMAP
1100
0A00
0400
7FE0
40C0
8180
0100
0200
0600
0C00
1800
1820
6020
FFE0
ENDCHAR
STARTCHAR 017E
ENCODING 382
SWIDTH 1000 0
DWIDTH 16 0
BBX 8 11 4 0
BITMAP
44
38
10
EF
86
0C
18
30
20
61
FF
ENDCHAR
STARTCHAR 0193
ENCODING 403
SWIDTH 1000 0
DWIDTH 16 0
BBX 14 14 1 0
BITMAP
001C
0034
0720
08A0
3060
4020
C000
C000
C0F8
C020
4020
4020
3060
0EA0
ENDCHAR
STARTCHAR 01C2
ENCODING 450
SWIDTH 1000 0
DWIDTH 16 0
BBX 6 12 5 0
BITMAP
30
30
30
30
FC
30
30
30
FC
30
30
30
ENDCHAR
STARTCHAR 01CD
ENCODING 461
SWIDTH 1000 0
DWIDTH 16 0
BBX 12 14 2 0
BITMAP
1100
0A00
0400
0000
0600
0A00
0900
0900
1180
2080
3F40
2040
4060
E0F0
ENDCHAR
STARTCHAR 01CE
ENCODING 462
SWIDTH 1000 0
DWIDTH 16 0
BBX 9 12 3 0
BITMAP
2200
1400
0800
0000
7F00
4100
0100
0F00
7100
C100
C100
7B80
ENDCHAR
STARTCHAR 01D0
ENCODING 464
SWIDTH 1000 0
DWIDTH 16 0
BBX 5 12 5 0
BITMAP
88
50
20
00
70
30
30
30
30
30
30
78
ENDCHAR
STARTCHAR 01D1
ENCODING 465
SWIDTH 1000 0
DWIDTH 16 0
BBX 12 14 2 0
BITMAP
1100
0A00
0400
0F00
30C0
6060
4020
8010
8010
8010
4020
4020
2040
1F80
ENDCHAR
STARTCHAR 01D2
ENCODING 466
SWIDTH 1000 0
DWIDTH 16 0
BBX 10 11 3 0
BITMAP
2200
1C00
0800
3700
2100
4080
C0C0
C0C0
4080
2100
3F00
ENDCHAR
STARTCHAR 01D4
ENCODING 468
SWIDTH 1000 0
DWIDTH 16 0
BBX 9 11 3 0
BITMAP
2200
1C00
0800
C300
4100
4100
4100
4100
4100
4100
3F80
ENDCHAR
STARTCHAR 01D6
ENCODING 470
SWIDTH 1000 0
DWIDTH 16 0
BBX 9 12 3 0
BITMAP
1E00
0000
1200
0000
C300
4100
4100
4100
4100
4100
4100
3F80
ENDCHAR
STARTCHAR 01D8
ENCODING 472
SWIDTH 1000 0
DWIDTH 16 0
BBX 9 13 3 0
BITMAP
0E00
1000
2000
1200
0000
C300
4100
4100
4100
4100
4100
4100
3F80
ENDCHAR
STARTCHAR 01DA
ENCODING 474
SWIDTH 1000 0
DWIDTH 16 0
BBX 9 13 3 0
BITMAP
2200
1C00
0800
1200
0000
C300
4100
4100
4100
4100
4100
4100
3F80
ENDCHAR
STARTCHAR 01DC
ENCODING 476
SWIDTH 1000 0
DWIDTH 16 0
BBX 9 13 3 0
BITMAP
1C00
0200
0100
1200
0000
C300
4100
4100
4100
4100
4100
4100
3F80
ENDCHAR
STARTCHAR 01F8
ENCODING 504
SWIDTH 1000 0
DWIDTH 16 0
BBX 12 14 2 0
BITMAP
0E00
0600
0180
E070
7020
5820
4820
4C20
4620
4220
41A0
41A0
4060
E060
ENDCHAR
STARTCHAR 01F9
ENCODING 505
SWIDTH 1000 0
DWIDTH 16 0
BBX 10 12 3 0
BITMAP
1C00
0C00
0300
0000
F700
2080
2080
2080
2080
2080
2080
71C0
ENDCHAR
STARTCHAR 01FD
ENCODING 509
SWIDTH 1000 0
DWIDTH 16 0
BBX 14 12 1 0
BITMAP
0380
0300
0C00
0000
7EF0
4308
030C
0FFC
5300
C300
C304
5CE8
ENDCHAR
STARTCHAR 0250
ENCODING 592
SWIDTH 1000 0
DWIDTH 16 0
BBX 9 8 4 0
BITMAP
ED00
4180
4180
4100
7C00
4000
4100
7F00
ENDCHAR
STARTCHAR 0251
ENCODING 593
SWIDTH 1000 0
DWIDTH 16 0
BBX 9 8 3 0
BITMAP
3F00
4100
C100
C100
C100
C100
4100
3F80
ENDCHAR
STARTCHAR 0252
ENCODING 594
SWIDTH 1000 0
DWIDTH 16 0
BBX 10 8 3 0
BITMAP
FF00
2080
20C0
20C0
20C0
20C0
2080
3F00
ENDCHAR
STARTCHAR 0253
ENCODING 595
SWIDTH 1000 0
DWIDTH 16 0
BBX 9 12 4 0
BITMAP
7C00
4600
8000
8000
BE00
C100
8180
8180
8180
8180
8100
FE00
ENDCHAR
STARTCHAR 0254
ENCODING 596
SWIDTH 1000 0
DWIDTH 16 0
BBX 8 8 5 0
BITMAP
FC
04
02
03
03
02
84
FC
ENDCHAR
STARTCHAR 0255
ENCODING 597
SWIDTH 1000 0
DWIDTH 16 0
BBX 9 10 3 -2
BITMAP
3F00
2080
4000
C000
C000
4300
2480
3900
1600
1000
ENDCHAR
STARTCHAR 0256
ENCODING 598
SWIDTH 1000 0
DWIDTH 16 0
BBX 12 14 3 -2
BITMAP
0380
0080
0080
0080
3E80
4180
C080
C080
C080
C080
4080
2380
1C90
00F0
ENDCHAR
STARTCHAR 0257
ENCODING 599
SWIDTH 1000 0
DWIDTH 16 0
BBX 12 12 3 0
BITMAP
00F0
0130
0100
0100
7D00
C300
8100
8100
8100
8100
C100
7B80
ENDCHAR
STARTCHAR 0258
ENCODING 600
SWIDTH 1000 0
DWIDTH 16 0
BBX 9 8 4 0
BITMAP
7E00
4200
8100
FF80
0180
0100
8200
7E00
ENDCHAR
STARTCHAR 0259
ENCODING 601
SWIDTH 1000 0
DWIDTH 16 0
BBX 9 8 4 0
BITMAP
7E00
8200
0100
0180
FF80
8100
4200
7E00
ENDCHAR
STARTCHAR 025A
ENCODING 602
SWIDTH 1000 0
DWIDTH 16 0
BBX 11 8 2 0
BITMAP
7E00
8200
01C0
0740
F920
8100
4200
7E00
ENDCHAR
STARTCHAR 025C
ENCODING 604
SWIDTH 1000 0
DWIDTH 16 0
BBX 6 8 5 0
BITMAP
FC
84
04
0C
3C
04
84
FC
ENDCHAR
STARTCHAR 025E
ENCODING 606
SWIDTH 1000 0
DWIDTH 16 0
BBX 7 8 4 0
BITMAP
7E
42
82
86
9E
82
42
7E
ENDCHAR
STARTCHAR 025F
ENCODING 607
SWIDTH 1000 0
DWIDTH 16 0
BBX 9 10 3 -2
BITMAP
0700
0200
0200
0200
0200
0200
1F80
0200
C400
FC00
ENDCHAR
STARTCHAR 0260
ENCODING 608
SWIDTH 1000 0
DWIDTH 16 0
BBX 12 12 3 -2
BITMAP
00F0
0130
7B00
C100
8100
8100
C100
C100
3F00
0100
C300
7A00
ENDCHAR
STARTCHAR 0261
ENCODING 609
SWIDTH 1000 0
DWIDTH 16 0
BBX 9 10 3 -2
BITMAP
3F80
4080
C080
C080
4080
4080
3D80
0080
4100
3F00
ENDCHAR
STARTCHAR 0264
ENCODING 612
SWIDTH 1000 0
DWIDTH 16 0
BBX 8 8 4 0
BITMAP
E3
62
24
14
18
18
04
0C
ENDCHAR
STARTCHAR 0265
ENCODING 613
SWIDTH 1000 0
DWIDTH 16 0
BBX 10 12 3 0
BITMAP
E1C0
4080
4080
4080
4080
4080
4180
2280
1880
0080
0080
00C0
ENDCHAR
STARTCHAR 0266
ENCODING 614
SWIDTH 1000 0
DWIDTH 16 0
BBX 10 12 3 0
BITMAP
3E00
2300
4000
4000
5F00
6080
4080
4080
4080
4080
4080
E1C0
ENDCHAR
STARTCHAR 0267
ENCODING 615
SWIDTH 1000 0
DWIDTH 16 0
BBX 9 14 3 -2
BITMAP
3E00
2300
4000
4000
5F00
6080
4080
4080
4080
4080
4080
4080
AC80
0F00
ENDCHAR
STARTCHAR 0268
ENCODING 616
SWIDTH 1000 0
DWIDTH 16 0
BBX 6 12 5 0
BITMAP
30
30
00
00
70
30
30
FC
30
30
30
78
ENDCHAR
STARTCHAR 026C
ENCODING 620
SWIDTH 1000 0
DWIDTH 16 0
BBX 6 12 5 0
BITMAP
70
30
30
30
F0
B0
B0
FC
30
30
30
78
ENDCHAR
STARTCHAR 026D
ENCODING 621
SWIDTH 1000 0
DWIDTH 16 0
BBX 6 14 6 -2
BITMAP
E0
60
60
60
60
60
60
60
60
60
60
60
64
3C
ENDCHAR
STARTCHAR 026E
ENCODING 622
SWIDTH 1000 0
DWIDTH 16 0
BBX 10 14 3 -2
BITMAP
E000
2000
2000
2000
3F80
2300
2400
2C00
2300
2080
20C0
F0C0
3080
1700
ENDCHAR
STARTCHAR 026F
ENCODING 623
SWIDTH 1000 0
DWIDTH 16 0
BBX 13 8 2 0
BITMAP
C630
4620
4620
4620
4620
4620
4620
7B78
ENDCHAR
STARTCHAR 0270
ENCODING 624
SWIDTH 1000 0
DWIDTH 16 0
BBX 13 10 2 -2
BITMAP
C630
4620
4620
4620
4620
4620
4620
4A60
3120
0038
ENDCHAR
STARTCHAR 0271
ENCODING 625
SWIDTH 1000 0
DWIDTH 16 0
BBX 12 10 2 -2
BITMAP
FFC0
6210
6210
6210
6210
6210
6210
6210
8110
01E0
ENDCHAR
STARTCHAR 0272
ENCODING 626
SWIDTH 1000 0
DWIDTH 16 0
BBX 12 10 1 -2
BITMAP
3FC0
0820
0820
0820
0820
0820
0820
0820
C850
F000
ENDCHAR
STARTCHAR 0273
ENCODING 627
SWIDTH 1000 0
DWIDTH 16 0
BBX 12 10 3 -2
BITMAP
F700
2080
2080
2080
2080
2080
2080
2080
5090
00F0
ENDCHAR
STARTCHAR 0275
ENCODING 629
SWIDTH 1000 0
DWIDTH 16 0
BBX 10 8 3 0
BITMAP
3F00
2100
4080
FFC0
C0C0
4080
2100
3F00
ENDCHAR
STARTCHAR 0279
ENCODING 633
SWIDTH 1000 0
DWIDTH 16 0
BBX 9 8 3 0
BITMAP
0780
0300
0300
0300
0300
0300
CB00
F380
ENDCHAR
STARTCHAR 027A
ENCODING 634
SWIDTH 1000 0
DWIDTH 16 0
BBX 9 12 3 0
BITMAP
0700
0300
0300
0300
0300
0300
0300
0300
0300
0300
CB00
F380
ENDCHAR
STARTCHAR 027B
ENCODING 635
SWIDTH 1000 0
DWIDTH 16 0
BBX 11 10 3 -2
BITMAP
0780
0300
0300
0300
0300
0300
CB00
F300
0320
01E0
ENDCHAR
STARTCHAR 027D
ENCODING 637
SWIDTH 1000 0
DWIDTH 16 0
BBX 9 10 4 -2
BITMAP
E780
6980
6000
6000
6000
6000
6000
6000
6400
3C00
ENDCHAR
STARTCHAR 027E
ENCODING 638
SWIDTH 1000 0
DWIDTH 16 0
BBX 6 8 5 0
BITMAP
3C
24
20
20
20
20
20
F8
ENDCHAR
STARTCHAR 0281
ENCODING 641
SWIDTH 1000 0
DWIDTH 16 0
BBX 8 8 4 0
BITMAP
F7
64
68
68
76
61
61
FE
ENDCHAR
STARTCHAR 0282
ENCODING 642
SWIDTH 1000 0
DWIDTH 16 0
BBX 8 10 4 -2
BITMAP
7E
82
C0
78
06
03
81
C2
BC
E0
ENDCHAR
STARTCHAR 0283
ENCODING 643
SWIDTH 1000 0
DWIDTH 16 0
BBX 8 16 4 -2
BITMAP
06
09
18
18
18
18
18
18
18
18
18
18
18
18
98
F0
ENDCHAR
STARTCHAR 0284
ENCODING 644
SWIDTH 1000 0
DWIDTH 16 0
BBX 10 12 3 -2
BITMAP
03C0
0240
0200
0200
0200
0200
0200
0200
1F80
0200
C400
FC00
ENDCHAR
STARTCHAR 0288
ENCODING 648
SWIDTH 1000 0
DWIDTH 16 0
BBX 7 14 4 -2
BITMAP
20
20
20
20
FC
20
20
20
20
20
20
20
26
1E
ENDCHAR
STARTCHAR 0289
ENCODING 649
SWIDTH 1000 0
DWIDTH 16 0
BBX 11 8 2 0
BITMAP
6180
2080
2080
FFE0
2080
2080
2080
1FC0
ENDCHAR
STARTCHAR 028A
ENCODING 650
SWIDTH 1000 0
DWIDTH 16 0
BBX 8 8 4 0
BITMAP
E7
42
42
81
81
81
42
7E
ENDCHAR
STARTCHAR 028B
ENCODING 651
SWIDTH 1000 0
DWIDTH 16 0
BBX 9 8 3 0
BITMAP
E180
2080
2080
2080
2080
2080
2100
3F00
ENDCHAR
STARTCHAR 028C
ENCODING 652
SWIDTH 1000 0
DWIDTH 16 0
BBX 10 8 3 0
BITMAP
0C00
0C00
1400
1200
2300
4300
4100
E1C0
ENDCHAR
STARTCHAR 028D
ENCODING 653
SWIDTH 1000 0
DWIDTH 16 0
BBX 14 8 1 0
BITMAP
1040
1860
1CB0
2CB0
2510
4310
4308
E79C
ENDCHAR
STARTCHAR 028E
ENCODING 654
SWIDTH 1000 0
DWIDTH 16 0
BBX 10 10 3 0
BITMAP
03C0
0440
0400
0800
0400
1400
2200
2300
0100
E380
ENDCHAR
STARTCHAR 0290
ENCODING 656
SWIDTH 1000 0
DWIDTH 16 0
BBX 11 10 4 -2
BITMAP
FF00
8600
0C00
1800
3000
2000
6100
C100
3F60
01E0
ENDCHAR
STARTCHAR 0291
ENCODING 657
SWIDTH 1000 0
DWIDTH 16 0
BBX 9 10 4 -2
BITMAP
FF00
8600
0C00
1800
3000
2180
6680
C800
3F00
1000
ENDCHAR
STARTCHAR 0292
ENCODING 658
SWIDTH 1000 0
DWIDTH 16 0
BBX 8 10 4 -2
BITMAP
7E
04
18
10
2E
02
01
81
42
7E
ENDCHAR
STARTCHAR 0294
ENCODING 660
SWIDTH 1000 0
DWIDTH 16 0
BBX 7 12 5 0
BITMAP
7C
C4
02
02
04
04
30
30
30
30
30
78
ENDCHAR
STARTCHAR 0295
ENCODING 661
SWIDTH 1000 0
DWIDTH 16 0
BBX 7 12 4 0
BITMAP
7C
46
80
80
40
40
18
18
18
18
18
3C
ENDCHAR
STARTCHAR 0298
ENCODING 664
SWIDTH 1000 0
DWIDTH 16 0
BBX 9 8 3 0
BITMAP
3F00
4100
8080
8C80
8C80
8080
4100
3F00
ENDCHAR
STARTCHAR 029D
ENCODING 669
SWIDTH 1000 0
DWIDTH 16 0
BBX 10 14 3 -2
BITMAP
0600
0600
0000
0000
0600
0200
0200
0200
0200
0200
7F00
C2C0
C400
7C00
ENDCHAR
STARTCHAR 02A1
ENCODING 673
SWIDTH 1000 0
DWIDTH 16 0
BBX 7 12 5 0
BITMAP
7C
C4
02
02
04
04
30
30
FC
30
30
78
ENDCHAR
STARTCHAR 02A2
ENCODING 674
SWIDTH 1000 0
DWIDTH 16 0
BBX 7 12 4 0
BITMAP
7C
46
80
80
40
40
18
18
7E
18
18
3C
ENDCHAR
STARTCHAR 02C7
ENCODING 711
SWIDTH 1000 0
DWIDTH 16 0
BBX 5 3 5 11
BITMAP
88
50
20
ENDCHAR
STARTCHAR 02C8
ENCODING 712
SWIDTH 1000 0
DWIDTH 16 0
BBX 2 5 7 9
BITMAP
C0
C0
C0
C0
C0
ENDCHAR
STARTCHAR 02CC
ENCODING 716
SWIDTH 1000 0
DWIDTH 16 0
BBX 2 3 7 -2
BITMAP
C0
C0
C0
ENDCHAR
STARTCHAR 02D0
ENCODING 720
SWIDTH 1000 0
DWIDTH 16 0
BBX 3 8 6 0
BITMAP
E0
60
40
00
00
40
60
E0
ENDCHAR
STARTCHAR 02D1
ENCODING 721
SWIDTH 1000 0
DWIDTH 16 0
BBX 3 3 6 5
BITMAP
E0
60
40
ENDCHAR
STARTCHAR 02D8
ENCODING 728
SWIDTH 1000 0
DWIDTH 16 0
BBX 6 2 5 12
BITMAP
CC
78
ENDCHAR
STARTCHAR 02D9
ENCODING 729
SWIDTH 1000 0
DWIDTH 16 0
BBX 2 1 7 12
BITMAP
C0
ENDCHAR
STARTCHAR 02DB
ENCODING 731
SWIDTH 1000 0
DWIDTH 16 0
BBX 4 3 6 -2
BITMAP
60
80
F0
ENDCHAR
STARTCHAR 02DD
ENCODING 733
SWIDTH 1000 0
DWIDTH 16 0
BBX 9 3 4 11
BITMAP
3B80
6600
8800
ENDCHAR
STARTCHAR 02DE
ENCODING 734
SWIDTH 1000 0
DWIDTH 16 0
BBX 5 5 5 2
BITMAP
20
E0
20
38
10
ENDCHAR
STARTCHAR 02E5
ENCODING 741
SWIDTH 1000 0
DWIDTH 16 0
BBX 6 14 5 -1
BITMAP
FC
04
04
04
04
04
04
04
04
04
04
04
04
04
ENDCHAR
STARTCHAR 02E6
ENCODING 742
SWIDTH 1000 0
DWIDTH 16 0
BBX 6 14 5 -1
BITMAP
04
04
04
FC
04
04
04
04
04
04
04
04
04
04
ENDCHAR
STARTCHAR 02E7
ENCODING 743
SWIDTH 1000 0
DWIDTH 16 0
BBX 5 14 6 -1
BITMAP
08
08
08
08
08
08
08
F8
08
08
08
08
08
08
ENDCHAR
STARTCHAR 02E8
ENCODING 744
SWIDTH 1000 0
DWIDTH 16 0
BBX 6 14 5 -1
BITMAP
04
04
04
04
04
04
04
04
04
04
FC
04
04
04
ENDCHAR
STARTCHAR 02E9
ENCODING 745
SWIDTH 1000 0
DWIDTH 16 0
BBX 6 14 5 -1
BITMAP
04
04
04
04
04
04
04
04
04
04
04
04
04
FC
ENDCHAR
STARTCHAR 0300
ENCODING 768
SWIDTH 1000 0
DWIDTH 16 0
BBX 5 3 6 11
BITMAP
E0
60
18
ENDCHAR
STARTCHAR 0301
ENCODING 769
SWIDTH 1000 0
DWIDTH 16 0
BBX 5 3 5 11
BITMAP
38
30
C0
ENDCHAR
STARTCHAR 0302
ENCODING 770
SWIDTH 1000 0
DWIDTH 16 0
BBX 5 3 5 11
BITMAP
20
30
C8
ENDCHAR
STARTCHAR 0303
ENCODING 771
SWIDTH 1000 0
DWIDTH 16 0
BBX 6 2 5 12
BITMAP
60
BC
ENDCHAR
STARTCHAR 0304
ENCODING 772
SWIDTH 1000 0
DWIDTH 16 0
BBX 6 1 5 12
BITMAP
FC
ENDCHAR
STARTCHAR 0306
ENCODING 774
SWIDTH 1000 0
DWIDTH 16 0
BBX 6 2 5 12
BITMAP
CC
78
ENDCHAR
STARTCHAR 0308
ENCODING 776
SWIDTH 1000 0
DWIDTH 16 0
BBX 4 1 6 12
BITMAP
90
ENDCHAR
STARTCHAR 030B
ENCODING 779
SWIDTH 1000 0
DWIDTH 16 0
BBX 9 3 4 11
BITMAP
3B80
6600
8800
ENDCHAR
STARTCHAR 030C
ENCODING 780
SWIDTH 1000 0
DWIDTH 16 0
BBX 5 3 5 11
BITMAP
88
50
20
ENDCHAR
STARTCHAR 030F
ENCODING 783
SWIDTH 1000 0
DWIDTH 16 0
BBX 9 3 3 11
BITMAP
EE00
3300
0880
ENDCHAR
STARTCHAR 0318
ENCODING 792
SWIDTH 1000 0
DWIDTH 16 0
BBX 4 3 6 -2
BITMAP
10
F0
10
ENDCHAR
STARTCHAR 0319
ENCODING 793
SWIDTH 1000 0
DWIDTH 16 0
BBX 4 3 6 -2
BITMAP
80
F0
80
ENDCHAR
STARTCHAR 031A
ENCODING 794
SWIDTH 1000 0
DWIDTH 16 0
BBX 4 3 8 10
BITMAP
F0
10
10
ENDCHAR
STARTCHAR 031C
ENCODING 796
SWIDTH 1000 0
DWIDTH 16 0
BBX 0 0 7 -2
BITMAP
ENDCHAR
STARTCHAR 031D
ENCODING 797
SWIDTH 1000 0
DWIDTH 16 0
BBX 4 2 6 -2
BITMAP
40
F0
ENDCHAR
STARTCHAR 031E
ENCODING 798
SWIDTH 1000 0
DWIDTH 16 0
BBX 4 2 6 -2
BITMAP
F0
40
ENDCHAR
STARTCHAR 031F
ENCODING 799
SWIDTH 1000 0
DWIDTH 16 0
BBX 3 3 6 -2
BITMAP
40
E0
40
ENDCHAR
STARTCHAR 0320
ENCODING 800
SWIDTH 1000 0
DWIDTH 16 0
BBX 4 1 6 -1
BITMAP
F0
ENDCHAR
STARTCHAR 0324
ENCODING 804
SWIDTH 1000 0
DWIDTH 16 0
BBX 4 1 6 -2
BITMAP
90
ENDCHAR
STARTCHAR 0325
ENCODING 805
SWIDTH 1000 0
DWIDTH 16 0
BBX 0 0 7 -2
BITMAP
ENDCHAR
STARTCHAR 0329
ENCODING 809
SWIDTH 1000 0
DWIDTH 16 0
BBX 2 2 7 -2
BITMAP
C0
C0
ENDCHAR
STARTCHAR 032A
ENCODING 810
SWIDTH 1000 0
DWIDTH 16 0
BBX 6 2 5 -2
BITMAP
FC
84
ENDCHAR
STARTCHAR 032C
ENCODING 812
SWIDTH 1000 0
DWIDTH 16 0
BBX 4 2 6 -2
BITMAP
B0
60
ENDCHAR
STARTCHAR 032F
ENCODING 815
SWIDTH 1000 0
DWIDTH 16 0
BBX 4 2 6 -2
BITMAP
60
F0
ENDCHAR
STARTCHAR 0330
ENCODING 816
SWIDTH 1000 0
DWIDTH 16 0
BBX 6 2 5 -2
BITMAP
60
BC
ENDCHAR
STARTCHAR 0334
ENCODING 820
SWIDTH 1000 0
DWIDTH 16 0
BBX 4 2 6 5
BITMAP
C0
30
ENDCHAR
STARTCHAR 0339
ENCODING 825
SWIDTH 1000 0
DWIDTH 16 0
BBX 1 2 8 -2
BITMAP
80
80
ENDCHAR
STARTCHAR 033A
ENCODING 826
SWIDTH 1000 0
DWIDTH 16 0
BBX 6 2 5 -2
BITMAP
84
FC
ENDCHAR
STARTCHAR 033B
ENCODING 827
SWIDTH 1000 0
DWIDTH 16 0
BBX 6 2 5 -2
BITMAP
FC
FC
ENDCHAR
STARTCHAR 033C
ENCODING 828
SWIDTH 1000 0
DWIDTH 16 0
BBX 8 2 4 -2
BITMAP
66
99
ENDCHAR
STARTCHAR 033D
ENCODING 829
SWIDTH 1000 0
DWIDTH 16 0
BBX 4 4 6 10
BITMAP
90
20
40
90
ENDCHAR
STARTCHAR 0361
ENCODING 865
SWIDTH 1000 0
DWIDTH 16 0
BBX 14 3 1 10
BITMAP
0FC0
F03C
8004
ENDCHAR
STARTCHAR 0391
ENCODING 913
SWIDTH 1000 0
DWIDTH 16 0
BBX 12 12 2 0
BITMAP
0400
0600
0200
0A00
1100
1180
0080
2080
3F40
4060
0020
C070
ENDCHAR
STARTCHAR 0392
ENCODING 914
SWIDTH 1000 0
DWIDTH 16 0
BBX 10 12 3 0
BITMAP
FF00
4080
40C0
40C0
4080
4100
7E80
40C0
4040
4040
40C0
FF80
ENDCHAR
STARTCHAR 0393
ENCODING 915
SWIDTH 1000 0
DWIDTH 16 0
BBX 10 12 3 0
BITMAP
FFC0
4040
4000
4000
4000
4000
4000
4000
4000
4000
4000
E000
ENDCHAR
STARTCHAR 0394
ENCODING 916
SWIDTH 1000 0
DWIDTH 16 0
BBX 12 12 2 0
BITMAP
0400
0600
0200
0A00
1100
1180
2080
2080
2040
4060
0020
FFF0
ENDCHAR
STARTCHAR 0395
ENCODING 917
SWIDTH 1000 0
DWIDTH 16 0
BBX 11 12 2 0
BITMAP
FFC0
6040
6000
6000
6100
6100
7F00
6100
6000
6020
6020
FFE0
ENDCHAR
STARTCHAR 0396
ENCODING 918
SWIDTH 1000 0
DWIDTH 16 0
BBX 11 12 2 0
BITMAP
7FE0
80C0
0180
0180
0200
0600
0400
0800
1800
1020
6020
FFE0
ENDCHAR
STARTCHAR 0397
ENCODING 919
SWIDTH 1000 0
DWIDTH 16 0
BBX 12 12 2 0
BITMAP
F0F0
6060
6060
6060
6060
6060
7FE0
6060
6060
6060
6060
F0F0
ENDCHAR
STARTCHAR 0398
ENCODING 920
SWIDTH 1000 0
DWIDTH 16 0
BBX 12 12 2 0
BITMAP
1F80
2040
4020
4020
9090
9F90
9090
8010
4020
4020
2040
1F80
ENDCHAR
STARTCHAR 0399
ENCODING 921
SWIDTH 1000 0
DWIDTH 16 0
BBX 4 12 6 0
BITMAP
F0
60
60
60
60
60
60
60
60
60
60
F0
ENDCHAR
STARTCHAR 039A
ENCODING 922
SWIDTH 1000 0
DWIDTH 16 0
BBX 12 12 2 0
BITMAP
F1C0
6080
6300
6200
6000
6800
7600
6600
6100
6180
60C0
F0F0
ENDCHAR
STARTCHAR 039B
ENCODING 923
SWIDTH 1000 0
DWIDTH 16 0
BBX 12 12 2 0
BITMAP
0400
0600
0200
0A00
1100
1180
2080
2080
2040
4060
0020
C070
ENDCHAR
STARTCHAR 039C
ENCODING 924
SWIDTH 1000 0
DWIDTH 16 0
BBX 12 12 2 0
BITMAP
E0F0
A020
90A0
90A0
9920
9920
9A20
8A20
8A20
8A20
8620
C470
ENDCHAR
STARTCHAR 039D
ENCODING 925
SWIDTH 1000 0
DWIDTH 16 0
BBX 12 12 2 0
BITMAP
E070
5020
5820
4820
4420
4620
4220
4120
41A0
40A0
4060
E060
ENDCHAR
STARTCHAR 039E
ENCODING 926
SWIDTH 1000 0
DWIDTH 16 0
BBX 10 12 3 0
BITMAP
FFC0
8040
0040
0000
0080
3F80
4000
0000
0000
8040
8040
FFC0
ENDCHAR
STARTCHAR 039F
ENCODING 927
SWIDTH 1000 0
DWIDTH 16 0
BBX 12 12 2 0
BITMAP
1F80
2040
4020
4020
8010
8010
8010
8010
4020
4020
2040
1F80
ENDCHAR
STARTCHAR 03A0
ENCODING 928
SWIDTH 1000 0
DWIDTH 16 0
BBX 12 12 2 0
BITMAP
FFF0
2040
2040
2040
2040
2040
2040
2040
2040
2040
2040
F0F0
ENDCHAR
STARTCHAR 03A1
ENCODING 929
SWIDTH 1000 0
DWIDTH 16 0
BBX 10 12 3 0
BITMAP
FF80
40C0
4040
4040
4040
40C0
7F00
4000
4000
4000
4000
E000
ENDCHAR
STARTCHAR 03A3
ENCODING 931
SWIDTH 1000 0
DWIDTH 16 0
BBX 12 14 2 -1
BITMAP
0040
FFA0
6020
1800
1800
0600
0600
0600
0400
1800
1010
6010
7FE0
8000
ENDCHAR
STARTCHAR 03A4
ENCODING 932
SWIDTH 1000 0
DWIDTH 16 0
BBX 14 12 1 0
BITMAP
7FF8
4308
8304
0300
0300
0300
0300
0300
0300
0300
0300
0780
ENDCHAR
STARTCHAR 03A5
ENCODING 933
SWIDTH 1000 0
DWIDTH 16 0
BBX 14 12 1 0
BITMAP
3CF0
4488
8304
0300
0300
0300
0300
0300
0300
0300
0300
0780
ENDCHAR
STARTCHAR 03A6
ENCODING 934
SWIDTH 1000 0
DWIDTH 16 0
BBX 12 12 2 0
BITMAP
0F00
0600
2FC0
6660
8610
8610
8610
8610
6660
2640
0F80
0F00
ENDCHAR
STARTCHAR 03A7
ENCODING 935
SWIDTH 1000 0
DWIDTH 16 0
BBX 12 12 2 0
BITMAP
F070
2040
1880
1880
0D00
0600
0600
0B00
0980
1080
2060
E070
ENDCHAR
STARTCHAR 03A8
ENCODING 936
SWIDTH 1000 0
DWIDTH 16 0
BBX 14 12 1 0
BITMAP
0780
6318
B334
3330
3330
3330
1320
1340
0FC0
0300
0300
0780
ENDCHAR
STARTCHAR 03A9
ENCODING 937
SWIDTH 1000 0
DWIDTH 16 0
BBX 12 12 2 0
BITMAP
1F80
2040
4020
4020
8010
8010
4020
4020
2040
1080
8910
F9F0
ENDCHAR
STARTCHAR 03B1
ENCODING 945
SWIDTH 1000 0
DWIDTH 16 0
BBX 10 8 3 0
BITMAP
3CC0
22C0
C280
C300
8200
8200
8E80
FB80
ENDCHAR
STARTCHAR 03B2
ENCODING 946
SWIDTH 1000 0
DWIDTH 16 0
BBX 11 14 2 -2
BITMAP
0740
0460
0860
0860
1040
1680
2180
2040
2040
6040
7180
4980
4600
8000
ENDCHAR
STARTCHAR 03B3
ENCODING 947
SWIDTH 1000 0
DWIDTH 16 0
BBX 10 10 3 -2
BITMAP
78C0
8D00
0E00
0C00
0800
0800
1000
3000
3000
3000
ENDCHAR
STARTCHAR 03B4
ENCODING 948
SWIDTH 1000 0
DWIDTH 16 0
BBX 10 12 3 0
BITMAP
1F00
1100
08C0
0440
0E00
3300
4100
4100
C100
C300
4200
7C00
ENDCHAR
STARTCHAR 03B5
ENCODING 949
SWIDTH 1000 0
DWIDTH 16 0
BBX 9 8 3 0
BITMAP
3F00
2080
3000
3C00
C000
C000
C100
7F00
ENDCHAR
STARTCHAR 03B6
ENCODING 950
SWIDTH 1000 0
DWIDTH 16 0
BBX 10 14 3 -2
BITMAP
1800
20C0
1F00
0400
0800
1000
2000
4000
C000
C000
7C00
0E00
0300
3A00
ENDCHAR
STARTCHAR 03B7
ENCODING 951
SWIDTH 1000 0
DWIDTH 16 0
BBX 10 10 3 -2
BITMAP
F7C0
1840
3040
30C0
2080
4080
C100
C300
0200
0600
ENDCHAR
STARTCHAR 03B8
ENCODING 952
SWIDTH 1000 0
DWIDTH 16 0
BBX 10 12 3 0
BITMAP
0FC0
0840
3040
2040
40C0
7FC0
C080
C080
8100
8300
8400
FC00
ENDCHAR
STARTCHAR 03B9
ENCODING 953
SWIDTH 1000 0
DWIDTH 16 0
BBX 8 8 4 0
BITMAP
20
20
60
40
40
81
86
78
ENDCHAR
STARTCHAR 03BA
ENCODING 954
SWIDTH 1000 0
DWIDTH 16 0
BBX 11 8 2 0
BITMAP
18E0
19A0
1600
3800
6600
6600
4600
8780
ENDCHAR
STARTCHAR 03BB
ENCODING 955
SWIDTH 1000 0
DWIDTH 16 0
BBX 10 12 3 0
BITMAP
1C00
0C00
0400
0400
0400
0400
0C00
1400
2200
6300
C300
C1C0
ENDCHAR
STARTCHAR 03BC
ENCODING 956
SWIDTH 1000 0
DWIDTH 16 0
BBX 12 10 1 -2
BITMAP
0C30
0C30
0820
1860
1040
1040
3080
2830
4600
C000
ENDCHAR
STARTCHAR 03BD
ENCODING 957
SWIDTH 1000 0
DWIDTH 16 0
BBX 10 8 3 0
BITMAP
4040
6040
2080
2100
0300
4600
F800
F000
ENDCHAR
STARTCHAR 03BE
ENCODING 958
SWIDTH 1000 0
DWIDTH 16 0
BBX 9 14 3 -2
BITMAP
1700
1000
3F80
4000
4000
2000
3F80
4000
0000
8000
FC00
1E00
0300
7A00
ENDCHAR
STARTCHAR 03BF
ENCODING 959
SWIDTH 1000 0
DWIDTH 16 0
BBX 9 8 3 0
BITMAP
3F00
2100
4080
C080
C080
C100
4300
7A00
ENDCHAR
STARTCHAR 03C0
ENCODING 960
SWIDTH 1000 0
DWIDTH 16 0
BBX 10 9 3 0
BITMAP
0040
FFC0
9300
3200
3200
2400
4400
CC00
CF00
ENDCHAR
STARTCHAR 03C1
ENCODING 961
SWIDTH 1000 0
DWIDTH 16 0
BBX 10 10 3 -2
BITMAP
0E80
1080
20C0
20C0
4080
6080
D300
CC00
8000
8000
ENDCHAR
STARTCHAR 03C2
ENCODING 962
SWIDTH 1000 0
DWIDTH 16 0
BBX 10 10 3 -2
BITMAP
3F00
2080
40C0
40C0
2000
3000
0800
0800
4C00
F800
ENDCHAR
STARTCHAR 03C3
ENCODING 963
SWIDTH 1000 0
DWIDTH 16 0
BBX 10 10 3 0
BITMAP
0040
0040
1FC0
3200
4000
4080
C080
C100
4300
7A00
ENDCHAR
STARTCHAR 03C4
ENCODING 964
SWIDTH 1000 0
DWIDTH 16 0
BBX 10 9 3 0
BITMAP
0040
FFC0
8800
1000
1000
3000
2000
2200
3C00
ENDCHAR
STARTCHAR 03C5
ENCODING 965
SWIDTH 1000 0
DWIDTH 16 0
BBX 10 8 3 0
BITMAP
2080
20C0
20C0
4080
4100
C100
C200
7C00
ENDCHAR
STARTCHAR 03C6
ENCODING 966
SWIDTH 1000 0
DWIDTH 16 0
BBX 10 14 3 -2
BITMAP
0300
0300
0200
0400
1F00
2480
C440
8C40
8840
88C0
5100
3E00
1000
3000
ENDCHAR
STARTCHAR 03C7
ENCODING 967
SWIDTH 1000 0
DWIDTH 16 0
BBX 11 10 2 -2
BITMAP
1860
3860
4580
0580
0600
0400
1C00
3400
6600
C380
ENDCHAR
STARTCHAR 03C8
ENCODING 968
SWIDTH 1000 0
DWIDTH 16 0
BBX 10 14 3 -2
BITMAP
0300
0300
0200
0200
64C0
2440
4440
4440
C8C0
C880
5300
3C00
1000
3000
ENDCHAR
STARTCHAR 03C9
ENCODING 969
SWIDTH 1000 0
DWIDTH 16 0
BBX 12 8 2 0
BITMAP
1820
2020
4210
4210
8610
8610
8620
78E0
ENDCHAR
STARTCHAR 0401
ENCODING 1025
SWIDTH 1000 0
DWIDTH 16 0
BBX 11 14 3 0
BITMAP
3300
3300
0000
0000
FFC0
4040
4000
4100
7F00
4000
4000
4020
4000
FFC0
ENDCHAR
STARTCHAR 0410
ENCODING 1040
SWIDTH 1000 0
DWIDTH 16 0
BBX 12 12 2 0
BITMAP
0400
0E00
0600
0200
0900
1180
0180
2080
3F40
4060
0060
C070
ENDCHAR
STARTCHAR 0411
ENCODING 1041
SWIDTH 1000 0
DWIDTH 16 0
BBX 10 12 3 0
BITMAP
FFC0
4040
4000
4000
4000
7F00
40C0
4040
4040
4040
40C0
FF80
ENDCHAR
STARTCHAR 0412
ENCODING 1042
SWIDTH 1000 0
DWIDTH 16 0
BBX 10 12 3 0
BITMAP
FF00
4080
40C0
40C0
4080
4100
7E80
40C0
4040
4040
40C0
FF80
ENDCHAR
STARTCHAR 0413
ENCODING 1043
SWIDTH 1000 0
DWIDTH 16 0
BBX 10 12 3 0
BITMAP
FFC0
4040
4000
4000
4000
4000
4000
4000
4000
4000
4000
E000
ENDCHAR
STARTCHAR 0414
ENCODING 1044
SWIDTH 1000 0
DWIDTH 16 0
BBX 12 14 2 -2
BITMAP
1FF0
0860
0860
0860
0860
0860
0860
0860
1860
1060
0060
2060
DF90
8010
ENDCHAR
STARTCHAR 0415
ENCODING 1045
SWIDTH 1000 0
DWIDTH 16 0
BBX 11 12 3 0
BITMAP
FFC0
4040
4000
4100
7F00
4100
4000
4000
4000
4020
4000
FFC0
ENDCHAR
STARTCHAR 0416
ENCODING 1046
SWIDTH 1000 0
DWIDTH 16 0
BBX 16 12 0 0
BITMAP
63C6
6186
1188
1188
0990
09A0
0FD0
1998
1188
1188
2184
F3CF
ENDCHAR
STARTCHAR 0417
ENCODING 1047
SWIDTH 1000 0
DWIDTH 16 0
BBX 10 12 3 0
BITMAP
3F00
C080
80C0
00C0
0080
0100
0780
00C0
0040
8040
C0C0
3F80
ENDCHAR
STARTCHAR 0418
ENCODING 1048
SWIDTH 1000 0
DWIDTH 16 0
BBX 12 12 2 0
BITMAP
F0F0
6060
60E0
6160
6260
6260
6460
6860
6860
7060
6060
F0F0
ENDCHAR
STARTCHAR 0419
ENCODING 1049
SWIDTH 1000 0
DWIDTH 16 0
BBX 12 14 2 0
BITMAP
1980
1980
1980
0600
F0F0
6060
60E0
6160
6260
6460
6860
7060
6060
F0F0
ENDCHAR
STARTCHAR 041A
ENCODING 1050
SWIDTH 1000 0
DWIDTH 16 0
BBX 12 12 2 0
BITMAP
F0E0
61A0
6100
6200
6600
7C00
6600
6200
6180
6180
60C0
F0F0
ENDCHAR
STARTCHAR 041B
ENCODING 1051
SWIDTH 1000 0
DWIDTH 16 0
BBX 13 12 1 0
BITMAP
0FF8
0430
0430
0430
0430
0430
0430
0430
0430
4C30
C830
E078
ENDCHAR
STARTCHAR 041C
ENCODING 1052
SWIDTH 1000 0
DWIDTH 16 0
BBX 14 12 1 0
BITMAP
7038
3030
2870
2870
0C90
4C90
4510
4410
4308
4308
4208
E01C
ENDCHAR
STARTCHAR 041D
ENCODING 1053
SWIDTH 1000 0
DWIDTH 16 0
BBX 12 12 2 0
BITMAP
F0F0
6060
6060
6060
7FE0
6060
6060
6060
6060
6060
6060
F0F0
ENDCHAR
STARTCHAR 041E
ENCODING 1054
SWIDTH 1000 0
DWIDTH 16 0
BBX 12 12 2 0
BITMAP
1F80
2040
4020
4020
8010
8010
8010
8010
4020
4020
2040
1F80
ENDCHAR
STARTCHAR 041F
ENCODING 1055
SWIDTH 1000 0
DWIDTH 16 0
BBX 12 12 2 0
BITMAP
FFF0
6060
6060
6060
6060
6060
6060
6060
6060
6060
6060
F0F0
ENDCHAR
STARTCHAR 0420
ENCODING 1056
SWIDTH 1000 0
DWIDTH 16 0
BBX 10 12 3 0
BITMAP
FF80
40C0
4040
4040
4040
4040
4180
7F00
4000
4000
4000
E000
ENDCHAR
STARTCHAR 0421
ENCODING 1057
SWIDTH 1000 0
DWIDTH 16 0
BBX 11 12 2 0
BITMAP
1FE0
2060
4020
4000
8000
8000
8000
8000
4000
4020
2060
1FE0
ENDCHAR
STARTCHAR 0422
ENCODING 1058
SWIDTH 1000 0
DWIDTH 16 0
BBX 14 12 1 0
BITMAP
3FF0
4308
8304
0300
0300
0300
0300
0300
0300
0300
0300
0780
ENDCHAR
STARTCHAR 0423
ENCODING 1059
SWIDTH 1000 0
DWIDTH 16 0
BBX 12 12 2 0
BITMAP
F070
6020
2040
2040
1080
1880
0900
0900
0600
6600
4400
7800
ENDCHAR
STARTCHAR 0424
ENCODING 1060
SWIDTH 1000 0
DWIDTH 16 0
BBX 12 12 2 0
BITMAP
0F00
0600
2FC0
6660
8610
8610
8610
8610
6660
2640
0F80
0F00
ENDCHAR
STARTCHAR 0425
ENCODING 1061
SWIDTH 1000 0
DWIDTH 16 0
BBX 12 12 2 0
BITMAP
F070
2040
1880
1880
0D00
0600
0600
0B00
0980
1080
2060
E070
ENDCHAR
STARTCHAR 0426
ENCODING 1062
SWIDTH 1000 0
DWIDTH 16 0
BBX 12 14 2 -2
BITMAP
F0E0
6040
6040
6040
6040
6040
6040
6040
6040
6040
6040
6040
9FB0
0010
ENDCHAR
STARTCHAR 0427
ENCODING 1063
SWIDTH 1000 0
DWIDTH 16 0
BBX 12 12 2 0
BITMAP
F0F0
6060
6060
6060
6060
6060
6060
30E0
0F60
0060
0060
00F0
ENDCHAR
STARTCHAR 0428
ENCODING 1064
SWIDTH 1000 0
DWIDTH 16 0
BBX 14 12 1 0
BITMAP
E79C
4308
4308
4308
4308
4308
4308
4308
4308
4308
4308
FFFC
ENDCHAR
STARTCHAR 0429
ENCODING 1065
SWIDTH 1000 0
DWIDTH 16 0
BBX 15 14 1 -2
BITMAP
E79C
4308
4308
4308
4308
4308
4308
4308
4308
4308
4308
4308
BCF4
0006
ENDCHAR
STARTCHAR 042A
ENCODING 1066
SWIDTH 1000 0
DWIDTH 16 0
BBX 14 12 1 0
BITMAP
FE00
8400
0400
0400
0400
07E0
0418
040C
040C
040C
0408
0FF0
ENDCHAR
STARTCHAR 042B
ENCODING 1067
SWIDTH 1000 0
DWIDTH 16 0
BBX 14 12 1 0
BITMAP
E01C
4008
4008
4008
4008
7E08
4188
40C8
40C8
40C8
4088
FF1C
ENDCHAR
STARTCHAR 042C
ENCODING 1068
SWIDTH 1000 0
DWIDTH 16 0
BBX 10 12 3 0
BITMAP
E000
4000
4000
4000
4000
7F00
40C0
4040
4040
4040
40C0
FF80
ENDCHAR
STARTCHAR 042D
ENCODING 1069
SWIDTH 1000 0
DWIDTH 16 0
BBX 10 12 3 0
BITMAP
FA00
8100
00C0
00C0
0040
0CC0
3340
0040
00C0
80C0
8100
FA00
ENDCHAR
STARTCHAR 042E
ENCODING 1070
SWIDTH 1000 0
DWIDTH 16 0
BBX 14 12 1 0
BITMAP
E3F0
4208
440C
4C04
7C04
4C04
4C04
4C04
4C04
440C
4208
E3F0
ENDCHAR
STARTCHAR 042F
ENCODING 1071
SWIDTH 1000 0
DWIDTH 16 0
BBX 11 12 2 0
BITMAP
3FE0
6040
4040
4040
4040
6040
1FC0
0840
1840
1840
2040
E0E0
ENDCHAR
STARTCHAR 0430
ENCODING 1072
SWIDTH 1000 0
DWIDTH 16 0
BBX 9 8 3 0
BITMAP
7F00
4100
0100
0F00
7100
C100
C100
7B80
ENDCHAR
STARTCHAR 0431
ENCODING 1073
SWIDTH 1000 0
DWIDTH 16 0
BBX 10 12 3 0
BITMAP
0F80
3F00
4000
4000
BF00
A100
C080
C0C0
C0C0
4080
2100
3F00
ENDCHAR
STARTCHAR 0432
ENCODING 1074
SWIDTH 1000 0
DWIDTH 16 0
BBX 8 8 4 0
BITMAP
FE
41
41
42
7E
41
41
FE
ENDCHAR
STARTCHAR 0433
ENCODING 1075
SWIDTH 1000 0
DWIDTH 16 0
BBX 8 8 4 0
BITMAP
FF
41
40
40
40
40
40
E0
ENDCHAR
STARTCHAR 0434
ENCODING 1076
SWIDTH 1000 0
DWIDTH 16 0
BBX 10 10 3 -2
BITMAP
1F80
1100
1100
1100
1100
1100
2100
4100
FEC0
8040
ENDCHAR
STARTCHAR 0435
ENCODING 1077
SWIDTH 1000 0
DWIDTH 16 0
BBX 9 8 3 0
BITMAP
3F00
2100
4080
FF80
C000
4000
2080
3F00
ENDCHAR
STARTCHAR 0436
ENCODING 1078
SWIDTH 1000 0
DWIDTH 16 0
BBX 14 9 1 -1
BITMAP
6798
2310
1320
0300
0FC0
0B40
3330
3330
F7BC
ENDCHAR
STARTCHAR 0437
ENCODING 1079
SWIDTH 1000 0
DWIDTH 16 0
BBX 8 8 4 0
BITMAP
FE
81
01
02
3E
01
81
FE
ENDCHAR
STARTCHAR 0438
ENCODING 1080
SWIDTH 1000 0
DWIDTH 16 0
BBX 8 8 4 0
BITMAP
C3
83
8D
89
B1
A1
C1
C3
ENDCHAR
STARTCHAR 0439
ENCODING 1081
SWIDTH 1000 0
DWIDTH 16 0
BBX 8 12 4 0
BITMAP
24
66
24
18
C3
83
8D
89
B1
A1
C1
C3
ENDCHAR
STARTCHAR 043A
ENCODING 1082
SWIDTH 1000 0
DWIDTH 16 0
BBX 9 8 4 0
BITMAP
E380
4580
5800
7000
5800
4C00
4600
E380
ENDCHAR
STARTCHAR 043B
ENCODING 1083
SWIDTH 1000 0
DWIDTH 16 0
BBX 10 8 2 0
BITMAP
0FC0
0880
0880
0880
0880
4880
9080
C1C0
ENDCHAR
STARTCHAR 043C
ENCODING 1084
SWIDTH 1000 0
DWIDTH 16 0
BBX 10 8 3 0
BITMAP
C0C0
A1C0
B2C0
B2C0
94C0
90C0
8CC0
C8C0
ENDCHAR
STARTCHAR 043D
ENCODING 1085
SWIDTH 1000 0
DWIDTH 16 0
BBX 8 8 4 0
BITMAP
C3
81
81
FF
81
81
81
C3
ENDCHAR
STARTCHAR 043E
ENCODING 1086
SWIDTH 1000 0
DWIDTH 16 0
BBX 10 8 3 0
BITMAP
3F00
2100
4080
C0C0
C0C0
4080
2100
3F00
ENDCHAR
STARTCHAR 043F
ENCODING 1087
SWIDTH 1000 0
DWIDTH 16 0
BBX 8 8 4 0
BITMAP
FF
42
42
42
42
42
42
C3
ENDCHAR
STARTCHAR 0440
ENCODING 1088
SWIDTH 1000 0
DWIDTH 16 0
BBX 10 10 3 -2
BITMAP
DF00
6080
40C0
40C0
4080
4080
7F00
4000
4000
E000
ENDCHAR
STARTCHAR 0441
ENCODING 1089
SWIDTH 1000 0
DWIDTH 16 0
BBX 9 8 3 0
BITMAP
3F00
2080
4000
C000
C000
4000
2080
3F00
ENDCHAR
STARTCHAR 0442
ENCODING 1090
SWIDTH 1000 0
DWIDTH 16 0
BBX 8 8 4 0
BITMAP
FF
99
18
18
18
18
18
3C
ENDCHAR
STARTCHAR 0443
ENCODING 1091
SWIDTH 1000 0
DWIDTH 16 0
BBX 10 10 3 -2
BITMAP
71C0
2080
3000
3100
1200
0A00
0C00
0C00
C800
E000
ENDCHAR
STARTCHAR 0444
ENCODING 1092
SWIDTH 1000 0
DWIDTH 16 0
BBX 10 14 3 -2
BITMAP
1C00
0C00
0C00
0C00
6D80
CCC0
8C40
8C40
8C40
8C40
CCC0
4C80
2F00
1E00
ENDCHAR
STARTCHAR 0445
ENCODING 1093
SWIDTH 1000 0
DWIDTH 16 0
BBX 11 8 3 0
BITMAP
F1C0
3100
1A00
0C00
0600
1300
2180
E1E0
ENDCHAR
STARTCHAR 0446
ENCODING 1094
SWIDTH 1000 0
DWIDTH 16 0
BBX 9 10 4 -2
BITMAP
C300
4200
4200
4200
4200
4200
4200
4200
BD80
0080
ENDCHAR
STARTCHAR 0447
ENCODING 1095
SWIDTH 1000 0
DWIDTH 16 0
BBX 8 8 4 0
BITMAP
C3
42
42
42
3A
02
02
07
ENDCHAR
STARTCHAR 0448
ENCODING 1096
SWIDTH 1000 0
DWIDTH 16 0
BBX 10 8 3 0
BITMAP
CCC0
CCC0
CCC0
CCC0
CCC0
CCC0
CCC0
FFC0
ENDCHAR
STARTCHAR 0449
ENCODING 1097
SWIDTH 1000 0
DWIDTH 16 0
BBX 11 10 3 -2
BITMAP
CCC0
CCC0
CCC0
CCC0
CCC0
CCC0
CCC0
CCC0
3320
0020
ENDCHAR
STARTCHAR 044A
ENCODING 1098
SWIDTH 1000 0
DWIDTH 16 0
BBX 12 8 2 0
BITMAP
7E00
8400
0400
07C0
0430
0410
0410
0FE0
ENDCHAR
STARTCHAR 044B
ENCODING 1099
SWIDTH 1000 0
DWIDTH 16 0
BBX 12 8 2 0
BITMAP
F0F0
6060
6060
7860
6660
6260
6260
FEF0
ENDCHAR
STARTCHAR 044C
ENCODING 1100
SWIDTH 1000 0
DWIDTH 16 0
BBX 9 8 4 0
BITMAP
F000
6000
6000
7E00
6180
6180
6180
FF00
ENDCHAR
STARTCHAR 044D
ENCODING 1101
SWIDTH 1000 0
DWIDTH 16 0
BBX 8 8 5 0
BITMAP
FC
82
33
3D
41
03
02
FC
ENDCHAR
STARTCHAR 044E
ENCODING 1102
SWIDTH 1000 0
DWIDTH 16 0
BBX 12 8 2 0
BITMAP
F2E0
6620
6410
7C10
6410
6410
6620
F3E0
ENDCHAR
STARTCHAR 044F
ENCODING 1103
SWIDTH 1000 0
DWIDTH 16 0
BBX 8 8 4 0
BITMAP
7F
82
82
42
3E
62
62
C7
ENDCHAR
STARTCHAR 0451
ENCODING 1105
SWIDTH 1000 0
DWIDTH 16 0
BBX 9 12 3 0
BITMAP
3300
3300
0000
0000
3F00
2100
4080
FF80
C000
4000
2080
3F00
ENDCHAR
STARTCHAR 1E3E
ENCODING 7742
SWIDTH 1000 0
DWIDTH 16 0
BBX 14 14 1 0
BITMAP
0380
0300
0C00
F03C
5010
4850
4850
4C90
4C90
4510
4410
4510
4310
6238
ENDCHAR
STARTCHAR 1E3F
ENCODING 7743
SWIDTH 1000 0
DWIDTH 16 0
BBX 13 12 1 0
BITMAP
0380
0300
0C00
0000
F6F0
2310
2310
2310
2310
2310
2310
6318
ENDCHAR
STARTCHAR 1F70
ENCODING 8048
SWIDTH 1000 0
DWIDTH 16 0
BBX 9 12 3 0
BITMAP
3800
0C00
0200
0000
3F00
4100
C100
C100
C100
C100
4100
3F80
ENDCHAR
STARTCHAR 1F71
ENCODING 8049
SWIDTH 1000 0
DWIDTH 16 0
BBX 9 12 3 0
BITMAP
0C00
1800
0000
0000
3F00
4100
C100
C100
C100
C100
4100
3F80
ENDCHAR
STARTCHAR 1F72
ENCODING 8050
SWIDTH 1000 0
DWIDTH 16 0
BBX 6 12 5 0
BITMAP
70
30
0C
00
FC
84
80
C0
F0
80
84
FC
ENDCHAR
STARTCHAR 1F73
ENCODING 8051
SWIDTH 1000 0
DWIDTH 16 0
BBX 6 12 5 0
BITMAP
38
30
C0
00
FC
84
80
C0
F0
80
84
FC
ENDCHAR
STARTCHAR 2000
ENCODING 8192
SWIDTH 1000 0
DWIDTH 16 0
BBX 0 0 0 0
BITMAP
ENDCHAR
STARTCHAR 2001
ENCODING 8193
SWIDTH 1000 0
DWIDTH 16 0
BBX 0 0 0 0
BITMAP
ENDCHAR
STARTCHAR 2002
ENCODING 8194
SWIDTH 1000 0
DWIDTH 16 0
BBX 0 0 0 0
BITMAP
ENDCHAR
STARTCHAR 2003
ENCODING 8195
SWIDTH 1000 0
DWIDTH 16 0
BBX 0 0 0 0
BITMAP
ENDCHAR
STARTCHAR 2004
ENCODING 8196
SWIDTH 1000 0
DWIDTH 16 0
BBX 0 0 0 0
BITMAP
ENDCHAR
STARTCHAR 2005
ENCODING 8197
SWIDTH 1000 0
DWIDTH 16 0
BBX 0 0 0 0
BITMAP
ENDCHAR
STARTCHAR 2006
ENCODING 8198
SWIDTH 1000 0
DWIDTH 16 0
BBX 0 0 0 0
BITMAP
ENDCHAR
STARTCHAR 2007
ENCODING 8199
SWIDTH 1000 0
DWIDTH 16 0
BBX 0 0 0 0
BITMAP
ENDCHAR
STARTCHAR 2008
ENCODING 8200
SWIDTH 1000 0
DWIDTH 16 0
BBX 0 0 0 0
BITMAP
ENDCHAR
STARTCHAR 2009
ENCODING 8201
SWIDTH 1000 0
DWIDTH 16 0
BBX 0 0 0 0
BITMAP
ENDCHAR
STARTCHAR 200A
ENCODING 8202
SWIDTH 1000 0
DWIDTH 16 0
BBX 0 0 0 0
BITMAP
ENDCHAR
STARTCHAR 200B
ENCODING 8203
SWIDTH 500 0
DWIDTH 8 0
BBX 0 0 0 0
BITMAP
ENDCHAR
STARTCHAR 200C
ENCODING 8204
SWIDTH 500 0
DWIDTH 8 0
BBX 0 0 0 0
BITMAP
ENDCHAR
STARTCHAR 200D
ENCODING 8205
SWIDTH 500 0
DWIDTH 8 0
BBX 0 0 0 0
BITMAP
ENDCHAR
STARTCHAR 200E
ENCODING 8206
SWIDTH 500 0
DWIDTH 8 0
BBX 0 0 0 0
BITMAP
ENDCHAR
STARTCHAR 200F
ENCODING 8207
SWIDTH 500 0
DWIDTH 8 0
BBX 0 0 0 0
BITMAP
ENDCHAR
STARTCHAR 2010
ENCODING 8208
SWIDTH 1000 0
DWIDTH 16 0
BBX 4 1 6 5
BITMAP
F0
ENDCHAR
STARTCHAR 2013
ENCODING 8211
SWIDTH 1000 0
DWIDTH 16 0
BBX 8 1 4 5
BITMAP
FF
ENDCHAR
STARTCHAR 2014
ENCODING 8212
SWIDTH 1000 0
DWIDTH 16 0
BBX 16 1 0 5
BITMAP
FFFF
ENDCHAR
STARTCHAR 2015
ENCODING 8213
SWIDTH 1000 0
DWIDTH 16 0
BBX 16 1 0 5
BITMAP
FFFF
ENDCHAR
STARTCHAR 2016
ENCODING 8214
SWIDTH 1000 0
DWIDTH 16 0
BBX 4 16 6 -2
BITMAP
90
90
90
90
90
90
90
90
90
90
90
90
90
90
90
90
ENDCHAR
STARTCHAR 2018
ENCODING 8216
SWIDTH 1000 0
DWIDTH 16 0
BBX 2 3 11 11
BITMAP
40
C0
C0
ENDCHAR
STARTCHAR 2019
ENCODING 8217
SWIDTH 1000 0
DWIDTH 16 0
BBX 2 4 3 10
BITMAP
C0
C0
C0
80
ENDCHAR
STARTCHAR 201C
ENCODING 8220
SWIDTH 1000 0
DWIDTH 16 0
BBX 6 4 9 10
BITMAP
04
48
C8
CC
ENDCHAR
STARTCHAR 201D
ENCODING 8221
SWIDTH 1000 0
DWIDTH 16 0
BBX 6 4 1 10
BITMAP
CC
CC
4C
48
ENDCHAR
STARTCHAR 2020
ENCODING 8224
SWIDTH 1000 0
DWIDTH 16 0
BBX 7 16 4 -2
BITMAP
10
18
18
10
FE
56
10
38
18
18
18
18
18
10
10
10
ENDCHAR
STARTCHAR 2021
ENCODING 8225
SWIDTH 1000 0
DWIDTH 16 0
BBX 7 16 4 -2
BITMAP
10
18
10
56
FE
10
38
18
10
18
38
10
FE
56
18
18
ENDCHAR
STARTCHAR 2022
ENCODING 8226
SWIDTH 1000 0
DWIDTH 16 0
BBX 6 5 5 3
BITMAP
78
FC
FC
FC
30
ENDCHAR
STARTCHAR 2025
ENCODING 8229
SWIDTH 1000 0
DWIDTH 16 0
BBX 10 2 3 4
BITMAP
C0C0
C0C0
ENDCHAR
STARTCHAR 2026
ENCODING 8230
SWIDTH 1000 0
DWIDTH 16 0
BBX 13 2 1 4
BITMAP
C318
C318
ENDCHAR
STARTCHAR 2030
ENCODING 8240
SWIDTH 1000 0
DWIDTH 16 0
BBX 14 15 1 -2
BITMAP
6080
9000
9100
9200
9400
9400
6800
0000
1318
2524
4CA4
4CA4
4CA4
0424
0318
ENDCHAR
STARTCHAR 2032
ENCODING 8242
SWIDTH 1000 0
DWIDTH 16 0
BBX 3 2 3 9
BITMAP
60
C0
ENDCHAR
STARTCHAR 2033
ENCODING 8243
SWIDTH 1000 0
DWIDTH 16 0
BBX 6 3 1 9
BITMAP
6C
C8
10
ENDCHAR
STARTCHAR 203B
ENCODING 8251
SWIDTH 1000 0
DWIDTH 16 0
BBX 12 12 2 0
BITMAP
8610
8620
6640
2080
1900
4020
E670
4A20
1180
2080
4660
0600
ENDCHAR
STARTCHAR 203C
ENCODING 8252
SWIDTH 1000 0
DWIDTH 16 0
BBX 6 12 5 0
BITMAP
CC
CC
CC
CC
CC
CC
84
84
84
00
CC
CC
ENDCHAR
STARTCHAR 203E
ENCODING 8254
SWIDTH 1000 0
DWIDTH 16 0
BBX 16 1 0 13
BITMAP
FFFF
ENDCHAR
STARTCHAR 203F
ENCODING 8255
SWIDTH 1000 0
DWIDTH 16 0
BBX 14 3 1 -1
BITMAP
C00C
3FF0
0FC0
ENDCHAR
STARTCHAR 2042
ENCODING 8258
SWIDTH 1000 0
DWIDTH 16 0
BBX 15 16 0 -2
BITMAP
0100
0180
0D60
0760
0180
0760
0980
0180
1010
1818
D6D6
7676
1818
7676
9898
1818
ENDCHAR
STARTCHAR 2047
ENCODING 8263
SWIDTH 1000 0
DWIDTH 16 0
BBX 15 12 1 0
BITMAP
FCFC
8484
C2C2
C2C2
0404
0C0C
1010
1010
2020
0000
3030
3030
ENDCHAR
STARTCHAR 2048
ENCODING 8264
SWIDTH 1000 0
DWIDTH 16 0
BBX 12 12 1 0
BITMAP
5A30
C330
C130
4130
0330
0230
0C10
0810
0010
0000
1830
1830
ENDCHAR
STARTCHAR 2049
ENCODING 8265
SWIDTH 1000 0
DWIDTH 16 0
BBX 12 12 3 0
BITMAP
CFC0
C820
CC30
CC30
C020
C040
8080
8000
8100
0000
C300
C300
ENDCHAR
STARTCHAR 2051
ENCODING 8273
SWIDTH 1000 0
DWIDTH 16 0
BBX 7 16 4 -2
BITMAP
10
18
D6
76
18
76
98
18
10
18
D6
76
18
76
98
18
ENDCHAR
STARTCHAR 20AC
ENCODING 8364
SWIDTH 1000 0
DWIDTH 16 0
BBX 12 13 1 -1
BITMAP
07E0
0C30
1000
1000
7FE0
FFC0
3000
7FC0
3000
1000
0810
0C30
03C0
ENDCHAR
STARTCHAR 2103
ENCODING 8451
SWIDTH 1000 0
DWIDTH 16 0
BBX 15 13 0 -1
BITMAP
E0FA
9106
8602
6402
0800
0800
0800
0800
0400
0400
0602
0204
01F8
ENDCHAR
STARTCHAR 210F
ENCODING 8463
SWIDTH 1000 0
DWIDTH 16 0
BBX 10 12 3 0
BITMAP
3000
1200
3800
7000
AF00
2B00
3100
4100
4300
4300
C240
C3C0
ENDCHAR
STARTCHAR 2113
ENCODING 8467
SWIDTH 1000 0
DWIDTH 16 0
BBX 8 12 3 0
BITMAP
0F
09
11
11
31
33
32
34
3C
38
30
CF
ENDCHAR
STARTCHAR 2116
ENCODING 8470
SWIDTH 1000 0
DWIDTH 16 0
BBX 14 12 1 0
BITMAP
C200
C200
A200
A200
B2F0
92D0
8A88
8A88
8E88
8688
82D0
C2F4
ENDCHAR
STARTCHAR 2121
ENCODING 8481
SWIDTH 1000 0
DWIDTH 16 0
BBX 16 12 0 0
BITMAP
FE00
9200
1000
1000
13D8
1238
1218
1298
1318
1218
1239
33DE
ENDCHAR
STARTCHAR 2127
ENCODING 8487
SWIDTH 1000 0
DWIDTH 16 0
BBX 12 12 2 0
BITMAP
F9F0
8910
1080
2040
4020
4020
8010
8010
4020
4020
2040
1F80
ENDCHAR
STARTCHAR 212B
ENCODING 8491
SWIDTH 1000 0
DWIDTH 16 0
BBX 14 15 1 -1
BITMAP
0300
0400
0480
0400
0200
0300
0300
0100
0480
08C0
0040
0FC0
1020
2030
F07C
ENDCHAR
STARTCHAR 2135
ENCODING 8501
SWIDTH 1000 0
DWIDTH 16 0
BBX 10 13 3 -1
BITMAP
8300
8300
C0C0
60C0
3340
1A40
2C00
4600
C300
C180
C0C0
C0C0
C040
ENDCHAR
STARTCHAR 2153
ENCODING 8531
SWIDTH 1000 0
DWIDTH 16 0
BBX 10 15 3 -2
BITMAP
0400
1C00
0C00
0C00
0C00
0C00
1E00
FFC0
0000
1E00
1200
0C00
0200
3300
1E00
ENDCHAR
STARTCHAR 2154
ENCODING 8532
SWIDTH 1000 0
DWIDTH 16 0
BBX 10 15 3 -2
BITMAP
0C00
3200
1200
0400
0C00
1200
3E00
FFC0
0000
1E00
1200
0C00
0200
3300
1E00
ENDCHAR
STARTCHAR 2155
ENCODING 8533
SWIDTH 1000 0
DWIDTH 16 0
BBX 10 15 3 -2
BITMAP
0400
1C00
0C00
0C00
0C00
0C00
1E00
FFC0
0000
1E00
1000
1E00
0300
3300
3E00
ENDCHAR
STARTCHAR 2160
ENCODING 8544
SWIDTH 1000 0
DWIDTH 16 0
BBX 4 12 6 0
BITMAP
F0
60
60
60
60
60
60
60
60
60
60
F0
ENDCHAR
STARTCHAR 2161
ENCODING 8545
SWIDTH 1000 0
DWIDTH 16 0
BBX 8 12 4 0
BITMAP
FF
66
66
66
66
66
66
66
66
66
66
FF
ENDCHAR
STARTCHAR 2162
ENCODING 8546
SWIDTH 1000 0
DWIDTH 16 0
BBX 12 12 2 0
BITMAP
FFF0
6660
6660
6660
6660
6660
6660
6660
6660
6660
6660
FFF0
ENDCHAR
STARTCHAR 2163
ENCODING 8547
SWIDTH 1000 0
DWIDTH 16 0
BBX 13 12 2 0
BITMAP
FC38
4810
4400
4420
4620
4620
4220
4240
4140
4180
4180
E180
ENDCHAR
STARTCHAR 2164
ENCODING 8548
SWIDTH 1000 0
DWIDTH 16 0
BBX 12 12 2 0
BITMAP
F070
6020
2040
2040
1080
1080
1880
1880
0900
0600
0600
0600
ENDCHAR
STARTCHAR 2165
ENCODING 8549
SWIDTH 1000 0
DWIDTH 16 0
BBX 12 12 2 0
BITMAP
E1F0
40A0
6120
6120
2220
2220
1220
1220
1A20
1C20
0C20
0870
ENDCHAR
STARTCHAR 2166
ENCODING 8550
SWIDTH 1000 0
DWIDTH 16 0
BBX 15 12 0 0
BITMAP
F3FE
6164
2164
2264
2264
1264
1264
1264
1C64
1C64
0C64
08FE
ENDCHAR
STARTCHAR 2167
ENCODING 8551
SWIDTH 1000 0
DWIDTH 16 0
BBX 16 12 0 0
BITMAP
F7FF
6296
6296
2296
2496
2496
1496
1896
1896
1896
1896
19FF
ENDCHAR
STARTCHAR 2168
ENCODING 8552
SWIDTH 1000 0
DWIDTH 16 0
BBX 12 12 2 0
BITMAP
FC70
4860
4400
4680
4280
4300
4180
4380
4480
4440
4860
F8F0
ENDCHAR
STARTCHAR 2169
ENCODING 8553
SWIDTH 1000 0
DWIDTH 16 0
BBX 12 12 2 0
BITMAP
F070
2040
1880
1880
0D00
0600
0600
0B00
0980
1080
2060
E070
ENDCHAR
STARTCHAR 216A
ENCODING 8554
SWIDTH 1000 0
DWIDTH 16 0
BBX 12 12 2 0
BITMAP
E3F0
6120
2220
1220
1C20
1820
0C20
1420
2620
0220
6120
C3F0
ENDCHAR
STARTCHAR 216B
ENCODING 8555
SWIDTH 1000 0
DWIDTH 16 0
BBX 16 12 0 0
BITMAP
F1FF
2196
1016
1A16
0A16
0C16
0616
0E16
1216
1116
2196
E3FF
ENDCHAR
STARTCHAR 2170
ENCODING 8560
SWIDTH 1000 0
DWIDTH 16 0
BBX 4 12 6 0
BITMAP
60
60
00
00
E0
60
60
60
60
60
60
F0
ENDCHAR
STARTCHAR 2171
ENCODING 8561
SWIDTH 1000 0
DWIDTH 16 0
BBX 8 12 4 0
BITMAP
C6
C6
00
00
C6
42
42
42
42
42
42
E7
ENDCHAR
STARTCHAR 2172
ENCODING 8562
SWIDTH 1000 0
DWIDTH 16 0
BBX 12 12 2 0
BITMAP
6660
6660
0000
0000
EEE0
6660
6660
6660
6660
6660
6660
FFF0
ENDCHAR
STARTCHAR 2173
ENCODING 8563
SWIDTH 1000 0
DWIDTH 16 0
BBX 12 12 2 0
BITMAP
6000
6000
0000
0000
EE30
6400
6620
6220
6240
6180
6180
F180
ENDCHAR
STARTCHAR 2174
ENCODING 8564
SWIDTH 1000 0
DWIDTH 16 0
BBX 10 8 3 0
BITMAP
E1C0
2080
3100
3100
1200
0A00
0C00
0C00
ENDCHAR
STARTCHAR 2175
ENCODING 8565
SWIDTH 1000 0
DWIDTH 16 0
BBX 12 12 2 0
BITMAP
0060
0060
0000
0000
E3E0
4060
6260
2260
2460
1860
1860
18F0
ENDCHAR
STARTCHAR 2176
ENCODING 8566
SWIDTH 1000 0
DWIDTH 16 0
BBX 16 12 0 0
BITMAP
0066
0066
0000
0000
F3EE
6126
2226
1226
1226
1C26
0C26
087F
ENDCHAR
STARTCHAR 2177
ENCODING 8567
SWIDTH 1000 0
DWIDTH 16 0
BBX 16 12 0 0
BITMAP
01B6
01B6
0000
0000
F7B6
6296
2496
2496
1096
1896
1896
19FF
ENDCHAR
STARTCHAR 2178
ENCODING 8568
SWIDTH 1000 0
DWIDTH 16 0
BBX 10 12 3 0
BITMAP
C000
C000
0000
0000
DDC0
4D00
4500
4200
4300
4700
4900
F9C0
ENDCHAR
STARTCHAR 2179
ENCODING 8569
SWIDTH 1000 0
DWIDTH 16 0
BBX 11 8 3 0
BITMAP
F1C0
3100
1A00
0C00
0600
1300
2180
E1E0
ENDCHAR
STARTCHAR 217A
ENCODING 8570
SWIDTH 1000 0
DWIDTH 16 0
BBX 11 12 2 0
BITMAP
00C0
00C0
0000
0000
77C0
2440
1040
1840
1840
2840
2440
EFE0
ENDCHAR
STARTCHAR 217B
ENCODING 8571
SWIDTH 1000 0
DWIDTH 16 0
BBX 14 12 1 0
BITMAP
00D8
00D8
0000
0000
67D8
24C8
38C8
10C8
18C8
28C8
0CC8
EFFC
ENDCHAR
STARTCHAR 2190
ENCODING 8592
SWIDTH 1000 0
DWIDTH 16 0
BBX 16 6 0 3
BITMAP
0800
3000
6000
FFFF
2000
1800
ENDCHAR
STARTCHAR 2191
ENCODING 8593
SWIDTH 1000 0
DWIDTH 16 0
BBX 5 16 6 -2
BITMAP
40
40
E0
E0
58
40
40
40
40
40
40
40
40
40
40
40
ENDCHAR
STARTCHAR 2192
ENCODING 8594
SWIDTH 1000 0
DWIDTH 16 0
BBX 16 6 0 3
BITMAP
0010
0004
0006
FFFF
0004
0010
ENDCHAR
STARTCHAR 2193
ENCODING 8595
SWIDTH 1000 0
DWIDTH 16 0
BBX 5 16 5 -2
BITMAP
20
20
20
20
20
20
20
20
20
20
20
20
A8
70
30
20
ENDCHAR
STARTCHAR 2194
ENCODING 8596
SWIDTH 1000 0
DWIDTH 16 0
BBX 16 6 0 3
BITMAP
0810
2004
6006
FFFF
2004
0810
ENDCHAR
STARTCHAR 2196
ENCODING 8598
SWIDTH 1000 0
DWIDTH 16 0
BBX 12 12 2 0
BITMAP
8000
E000
B800
A000
5800
4800
0600
0200
0180
0080
0060
0030
ENDCHAR
STARTCHAR 2197
ENCODING 8599
SWIDTH 1000 0
DWIDTH 16 0
BBX 11 11 3 0
BITMAP
0020
00E0
03C0
0100
0240
0440
0800
1000
2000
4000
8000
ENDCHAR
STARTCHAR 2198
ENCODING 8600
SWIDTH 1000 0
DWIDTH 16 0
BBX 12 12 2 0
BITMAP
8000
8000
6000
2000
1800
0800
0600
0220
01A0
0020
01A0
0070
ENDCHAR
STARTCHAR 2199
ENCODING 8601
SWIDTH 1000 0
DWIDTH 16 0
BBX 12 12 2 0
BITMAP
0010
0020
0040
0080
0100
0200
0400
4800
5000
A000
5800
E000
ENDCHAR
STARTCHAR 21C4
ENCODING 8644
SWIDTH 1000 0
DWIDTH 16 0
BBX 16 11 0 0
BITMAP
0010
0004
0006
FFFF
0004
1010
2000
FFFF
6000
1000
0800
ENDCHAR
STARTCHAR 21D2
ENCODING 8658
SWIDTH 1000 0
DWIDTH 16 0
BBX 16 9 0 1
BITMAP
0020
0018
0008
FFF6
0000
0003
0002
FFFC
0008
ENDCHAR
STARTCHAR 21D4
ENCODING 8660
SWIDTH 1000 0
DWIDTH 16 0
BBX 16 9 0 1
BITMAP
0020
1018
2008
5FF6
8000
8003
4002
3FFC
1008
ENDCHAR
STARTCHAR 21E6
ENCODING 8678
SWIDTH 1000 0
DWIDTH 16 0
BBX 14 12 1 0
BITMAP
0400
0C00
1400
2400
43FC
8004
8004
4004
27F8
1400
0C00
0400
ENDCHAR
STARTCHAR 21E7
ENCODING 8679
SWIDTH 1000 0
DWIDTH 16 0
BBX 11 15 2 -2
BITMAP
0400
0A00
1100
2080
4040
F1E0
1100
1100
1100
1100
1100
1100
1100
1100
1F00
ENDCHAR
STARTCHAR 21E8
ENCODING 8680
SWIDTH 1000 0
DWIDTH 16 0
BBX 14 12 1 0
BITMAP
0080
00C0
00A0
0090
FF08
8004
8004
8008
7F90
00A0
00C0
0080
ENDCHAR
STARTCHAR 21E9
ENCODING 8681
SWIDTH 1000 0
DWIDTH 16 0
BBX 11 15 2 -2
BITMAP
1F00
1100
1100
1100
1100
1100
1100
1100
1100
E0E0
4040
2080
1100
0A00
0400
ENDCHAR
STARTCHAR 2200
ENCODING 8704
SWIDTH 1000 0
DWIDTH 16 0
BBX 13 13 1 -1
BITMAP
8008
4010
4010
4010
3FE0
1040
1040
1040
0880
0500
0500
0500
0200
ENDCHAR
STARTCHAR 2202
ENCODING 8706
SWIDTH 1000 0
DWIDTH 16 0
BBX 10 12 3 0
BITMAP
0F80
0880
0040
0040
0CC0
3280
4180
4100
C100
C300
4200
7C00
ENDCHAR
STARTCHAR 2203
ENCODING 8707
SWIDTH 1000 0
DWIDTH 16 0
BBX 10 12 3 0
BITMAP
FFC0
0040
0040
0040
0040
0040
7FC0
0040
0040
0040
0040
FFC0
ENDCHAR
STARTCHAR 2205
ENCODING 8709
SWIDTH 1000 0
DWIDTH 16 0
BBX 13 13 1 -1
BITMAP
0008
0790
1860
2050
4080
4110
4210
4410
2810
2010
3860
4780
8000
ENDCHAR
STARTCHAR 2207
ENCODING 8711
SWIDTH 1000 0
DWIDTH 16 0
BBX 12 12 2 0
BITMAP
FFF0
4020
6020
2040
1080
1080
1880
0880
0500
0600
0600
0200
ENDCHAR
STARTCHAR 2208
ENCODING 8712
SWIDTH 1000 0
DWIDTH 16 0
BBX 9 8 3 2
BITMAP
3F80
4000
C000
8000
FF80
C000
4000
3F80
ENDCHAR
STARTCHAR 2209
ENCODING 8713
SWIDTH 1000 0
DWIDTH 16 0
BBX 9 12 3 0
BITMAP
0400
0400
3F80
4400
C400
8400
FF80
C400
4400
3400
0F80
0400
ENDCHAR
STARTCHAR 220B
ENCODING 8715
SWIDTH 1000 0
DWIDTH 16 0
BBX 9 8 4 2
BITMAP
FE00
0100
0180
0080
FF80
0180
0100
FE00
ENDCHAR
STARTCHAR 2211
ENCODING 8721
SWIDTH 1000 0
DWIDTH 16 0
BBX 16 16 0 -2
BITMAP
FFFF
DFB9
DFB7
DFBF
DFBF
DFB7
9F99
FFFF
FFFF
FF9D
FF79
FF7D
FFF5
FF71
FF9D
FFFF
ENDCHAR
STARTCHAR 2212
ENCODING 8722
SWIDTH 1000 0
DWIDTH 16 0
BBX 12 1 2 6
BITMAP
FFF0
ENDCHAR
STARTCHAR 2213
ENCODING 8723
SWIDTH 1000 0
DWIDTH 16 0
BBX 12 12 2 0
BITMAP
FFF0
0000
0400
0400
0400
0400
0400
FFF0
0400
0400
0400
0400
ENDCHAR
STARTCHAR 221A
ENCODING 8730
SWIDTH 1000 0
DWIDTH 16 0
BBX 16 16 0 -2
BITMAP
FFFF
DFB9
DFB7
DFBF
DFBF
DFB7
9F99
FFFF
FFFF
FF91
FF77
FF71
FFFF
FF77
FF99
FFFF
ENDCHAR
STARTCHAR 221D
ENCODING 8733
SWIDTH 1000 0
DWIDTH 16 0
BBX 14 8 1 2
BITMAP
3030
6CCC
8500
8300
8300
8300
C484
7CFC
ENDCHAR
STARTCHAR 221E
ENCODING 8734
SWIDTH 1000 0
DWIDTH 16 0
BBX 14 8 1 2
BITMAP
3030
6CD8
8504
8304
8304
8304
C48C
7CF8
ENDCHAR
STARTCHAR 221F
ENCODING 8735
SWIDTH 1000 0
DWIDTH 16 0
BBX 12 12 2 0
BITMAP
8000
8000
8000
8000
8000
8000
8000
8000
8000
8000
8000
FFF0
ENDCHAR
STARTCHAR 2220
ENCODING 8736
SWIDTH 1000 0
DWIDTH 16 0
BBX 16 16 0 -2
BITMAP
FFFF
DFB9
DFB7
DFBF
DFBF
DFB7
9F99
FFFF
FFFF
FF91
FF7F
FF7D
FFFB
FF7B
FF9B
FFFF
ENDCHAR
STARTCHAR 2225
ENCODING 8741
SWIDTH 1000 0
DWIDTH 16 0
BBX 10 12 3 0
BITMAP
0400
0400
0840
1080
1100
1100
2100
4200
4400
4400
8400
8800
ENDCHAR
STARTCHAR 2226
ENCODING 8742
SWIDTH 1000 0
DWIDTH 16 0
BBX 10 12 3 0
BITMAP
0400
0400
4840
5080
3100
1100
2D00
4200
4500
4400
8400
8800
ENDCHAR
STARTCHAR 2227
ENCODING 8743
SWIDTH 1000 0
DWIDTH 16 0
BBX 11 12 2 0
BITMAP
0400
0400
0A00
0A00
1100
1100
2080
2080
4040
4040
0020
8020
ENDCHAR
STARTCHAR 2228
ENCODING 8744
SWIDTH 1000 0
DWIDTH 16 0
BBX 11 12 2 0
BITMAP
8000
8000
8020
4040
2080
2080
2080
1100
0A00
0A00
0A00
0400
ENDCHAR
STARTCHAR 2229
ENCODING 8745
SWIDTH 1000 0
DWIDTH 16 0
BBX 16 16 0 -2
BITMAP
FFFF
DFB9
DFB7
DFBF
DFBF
DFB7
9F99
FFFF
FFFF
FF9B
FF7B
FF7B
FFFB
FF7B
FF99
FFFF
ENDCHAR
STARTCHAR 222A
ENCODING 8746
SWIDTH 1000 0
DWIDTH 16 0
BBX 16 16 0 -2
BITMAP
FFFF
DFB9
DFB7
DFBF
DFBF
DFB7
9F99
FFFF
FFFF
FF99
FF77
FF7F
FFFB
FF7F
FF91
FFFF
ENDCHAR
STARTCHAR 222B
ENCODING 8747
SWIDTH 1000 0
DWIDTH 16 0
BBX 16 16 0 -2
BITMAP
FFFF
DFB9
DFB7
DFBF
DFBF
DFB7
9F99
FFFF
FFFF
FF99
FF77
FF7F
FFFB
FF7F
FF91
FFFF
ENDCHAR
STARTCHAR 222C
ENCODING 8748
SWIDTH 1000 0
DWIDTH 16 0
BBX 10 16 3 -2
BITMAP
3080
31C0
4200
4200
4300
4300
6300
2100
2100
2100
3080
3080
1080
1080
D280
E300
ENDCHAR
STARTCHAR 222E
ENCODING 8750
SWIDTH 1000 0
DWIDTH 16 0
BBX 6 16 5 -2
BITMAP
10
38
40
40
20
20
78
B4
B4
B4
38
10
10
10
50
70
ENDCHAR
STARTCHAR 2234
ENCODING 8756
SWIDTH 1000 0
DWIDTH 16 0
BBX 11 11 2 0
BITMAP
0600
0600
0000
0000
0000
0000
0000
0000
0000
C060
C060
ENDCHAR
STARTCHAR 2235
ENCODING 8757
SWIDTH 1000 0
DWIDTH 16 0
BBX 16 16 0 -2
BITMAP
FFFF
DFB9
DFB7
DFBF
DFBF
DFB7
9F99
FFFF
FFFF
FF99
FF77
FF77
FFF7
FF77
FF99
FFFF
ENDCHAR
STARTCHAR 223D
ENCODING 8765
SWIDTH 1000 0
DWIDTH 16 0
BBX 14 8 1 2
BITMAP
3830
6CD8
8104
8104
8204
8204
C40C
7CF8
ENDCHAR
STARTCHAR 2243
ENCODING 8771
SWIDTH 1000 0
DWIDTH 16 0
BBX 12 5 2 4
BITMAP
7800
8610
0320
00C0
FFF0
ENDCHAR
STARTCHAR 2245
ENCODING 8773
SWIDTH 1000 0
DWIDTH 16 0
BBX 12 9 2 2
BITMAP
7800
8610
0320
00C0
0000
FFF0
0000
0000
FFF0
ENDCHAR
STARTCHAR 2248
ENCODING 8776
SWIDTH 1000 0
DWIDTH 16 0
BBX 12 7 2 2
BITMAP
7800
8610
0320
78C0
4C00
8320
01E0
ENDCHAR
STARTCHAR 2252
ENCODING 8786
SWIDTH 1000 0
DWIDTH 16 0
BBX 16 16 0 -2
BITMAP
FFFF
DFB9
DFB7
DFBF
DFBF
DFB7
9F99
FFFF
FFFF
FF99
FF77
FF77
FFF7
FF77
FF99
FFFF
ENDCHAR
STARTCHAR 2260
ENCODING 8800
SWIDTH 1000 0
DWIDTH 16 0
BBX 12 11 2 0
BITMAP
0100
0100
0200
FFF0
0200
0400
0400
FBF0
0000
0800
0800
ENDCHAR
STARTCHAR 2261
ENCODING 8801
SWIDTH 1000 0
DWIDTH 16 0
BBX 16 16 0 -2
BITMAP
FFFF
DFB9
DFB7
DFBF
DFBF
DFB7
9F99
FFFF
FFFF
FF9B
FF7B
FF7B
FFFB
FF7B
FF99
FFFF
ENDCHAR
STARTCHAR 2262
ENCODING 8802
SWIDTH 1000 0
DWIDTH 16 0
BBX 12 12 2 0
BITMAP
0080
0100
FFF0
0200
0200
0200
FDF0
0400
0800
FFF0
0800
1000
ENDCHAR
STARTCHAR 2266
ENCODING 8806
SWIDTH 1000 0
DWIDTH 16 0
BBX 12 12 2 0
BITMAP
0070
0180
1E00
6000
E000
1800
0780
0060
0010
FFF0
0000
FFF0
ENDCHAR
STARTCHAR 2267
ENCODING 8807
SWIDTH 1000 0
DWIDTH 16 0
BBX 12 12 2 0
BITMAP
E000
1800
0780
0060
0070
0180
1E00
6000
8000
FFF0
0000
FFF0
ENDCHAR
STARTCHAR 226A
ENCODING 8810
SWIDTH 1000 0
DWIDTH 16 0
BBX 13 13 2 -1
BITMAP
0110
0220
0CC0
1100
6600
8800
8800
4400
2200
1980
0440
0220
0198
ENDCHAR
STARTCHAR 226B
ENCODING 8811
SWIDTH 1000 0
DWIDTH 16 0
BBX 13 13 1 -1
BITMAP
4400
2200
1980
0440
0330
0088
0088
0110
0660
0CC0
1100
2200
CC00
ENDCHAR
STARTCHAR 2276
ENCODING 8822
SWIDTH 1000 0
DWIDTH 16 0
BBX 12 13 2 -1
BITMAP
00F0
0300
3C00
C000
3C00
0300
F0F0
0C00
03C0
0030
03C0
0C00
F000
ENDCHAR
STARTCHAR 2277
ENCODING 8823
SWIDTH 1000 0
DWIDTH 16 0
BBX 12 13 2 -1
BITMAP
F000
0C00
03C0
0030
03C0
0C00
F0F0
0300
3C00
C000
3C00
0300
00F0
ENDCHAR
STARTCHAR 2282
ENCODING 8834
SWIDTH 1000 0
DWIDTH 16 0
BBX 12 9 2 1
BITMAP
3FF0
6000
8000
8000
8000
8000
4000
6000
1FF0
ENDCHAR
STARTCHAR 2283
ENCODING 8835
SWIDTH 1000 0
DWIDTH 16 0
BBX 12 9 2 1
BITMAP
FFC0
0060
0020
0010
0010
0010
0020
0060
FF80
ENDCHAR
STARTCHAR 2284
ENCODING 8836
SWIDTH 1000 0
DWIDTH 16 0
BBX 12 13 2 -1
BITMAP
0020
0020
3FD0
6080
8080
8080
8100
8200
4200
6200
1FF0
0800
0800
ENDCHAR
STARTCHAR 2285
ENCODING 8837
SWIDTH 1000 0
DWIDTH 16 0
BBX 12 12 2 -1
BITMAP
0100
0200
FFC0
0460
0820
0810
0810
1010
2020
2060
FF80
4000
ENDCHAR
STARTCHAR 2286
ENCODING 8838
SWIDTH 1000 0
DWIDTH 16 0
BBX 12 11 2 0
BITMAP
1FF0
6000
8000
8000
8000
8000
4000
3FF0
0000
0000
FFF0
ENDCHAR
STARTCHAR 2287
ENCODING 8839
SWIDTH 1000 0
DWIDTH 16 0
BBX 12 11 2 0
BITMAP
FF80
0060
0020
0010
0010
0020
0020
FFC0
0000
0000
FFF0
ENDCHAR
STARTCHAR 228A
ENCODING 8842
SWIDTH 1000 0
DWIDTH 16 0
BBX 12 12 2 -2
BITMAP
1FF0
6000
8000
8000
8000
8000
4000
3FF0
0080
0000
FFF0
0400
ENDCHAR
STARTCHAR 228B
ENCODING 8843
SWIDTH 1000 0
DWIDTH 16 0
BBX 12 13 2 -2
BITMAP
FF80
0060
0020
0010
0010
0020
0020
FFC0
0000
0400
FFF0
0800
1000
ENDCHAR
STARTCHAR 2295
ENCODING 8853
SWIDTH 1000 0
DWIDTH 16 0
BBX 14 15 1 -2
BITMAP
0780
3870
4210
4208
8204
8204
8204
BFF4
8204
8204
8204
4208
4210
3860
0780
ENDCHAR
STARTCHAR 2296
ENCODING 8854
SWIDTH 1000 0
DWIDTH 16 0
BBX 14 15 1 -2
BITMAP
0780
3870
4010
4008
8004
8004
8004
BFF4
8004
8004
8004
4008
4010
3860
0780
ENDCHAR
STARTCHAR 2297
ENCODING 8855
SWIDTH 1000 0
DWIDTH 16 0
BBX 14 15 1 -2
BITMAP
0780
3870
4010
5028
9044
8C84
8004
8304
8504
88C4
8004
4008
4010
3860
0780
ENDCHAR
STARTCHAR 22A5
ENCODING 8869
SWIDTH 1000 0
DWIDTH 16 0
BBX 16 16 0 -2
BITMAP
FFFF
DFB9
DFB7
DFBF
DFBF
DFB7
9F99
FFFF
FFFF
FF99
FF77
FF79
FFF7
FF77
FF99
FFFF
ENDCHAR
STARTCHAR 22BF
ENCODING 8895
SWIDTH 1000 0
DWIDTH 16 0
BBX 12 12 2 0
BITMAP
0010
0010
0050
0090
0110
0210
0410
0810
1010
2010
4010
FFF0
ENDCHAR
STARTCHAR 22DA
ENCODING 8922
SWIDTH 1000 0
DWIDTH 16 0
BBX 10 14 3 -1
BITMAP
00C0
0F00
3000
F000
0C00
03C0
0000
FF80
C000
3C00
0300
0380
0C00
F000
ENDCHAR
STARTCHAR 22DB
ENCODING 8923
SWIDTH 1000 0
DWIDTH 16 0
BBX 10 14 3 -1
BITMAP
C000
3C00
0300
0380
0C00
F000
0000
FF80
00C0
0F00
3000
F000
0C00
03C0
ENDCHAR
STARTCHAR 2305
ENCODING 8965
SWIDTH 1000 0
DWIDTH 16 0
BBX 11 7 2 1
BITMAP
FFE0
0600
0800
1100
2080
2080
4040
ENDCHAR
STARTCHAR 2306
ENCODING 8966
SWIDTH 1000 0
DWIDTH 16 0
BBX 11 9 2 1
BITMAP
FFE0
0000
FFE0
0600
0800
1100
2080
2080
4040
ENDCHAR
STARTCHAR 2312
ENCODING 8978
SWIDTH 1000 0
DWIDTH 16 0
BBX 16 2 0 12
BITMAP
0FF0
FFFF
ENDCHAR
STARTCHAR 2318
ENCODING 8984
SWIDTH 1000 0
DWIDTH 16 0
BBX 14 15 1 -2
BITMAP
7038
8844
8844
8844
C84C
3FF0
0840
0840
0840
7FF8
C84C
8844
8844
D02C
7038
ENDCHAR
STARTCHAR 23BE
ENCODING 9150
SWIDTH 1000 0
DWIDTH 16 0
BBX 9 16 7 -2
BITMAP
FF80
8000
8000
8000
8000
8000
8000
8000
8000
8000
8000
8000
8000
8000
8000
8000
ENDCHAR
STARTCHAR 23BF
ENCODING 9151
SWIDTH 1000 0
DWIDTH 16 0
BBX 9 16 7 -2
BITMAP
8000
8000
8000
8000
8000
8000
8000
8000
8000
8000
8000
8000
8000
8000
8000
FF80
ENDCHAR
STARTCHAR 23C0
ENCODING 9152
SWIDTH 1000 0
DWIDTH 16 0
BBX 11 16 2 -2
BITMAP
0400
0400
0E00
1580
6440
8420
8420
8420
8420
8400
8420
4440
3580
0E00
0400
0400
ENDCHAR
STARTCHAR 23C1
ENCODING 9153
SWIDTH 1000 0
DWIDTH 16 0
BBX 16 16 0 -2
BITMAP
FFFF
0100
0380
0560
1910
2108
2108
2108
2108
2100
2108
1110
0D60
0380
0100
0100
ENDCHAR
STARTCHAR 23C2
ENCODING 9154
SWIDTH 1000 0
DWIDTH 16 0
BBX 16 16 0 -2
BITMAP
0100
0100
0380
0560
1910
2108
2100
2108
2108
2100
2108
1110
0D60
0380
0100
FFFF
ENDCHAR
STARTCHAR 23C3
ENCODING 9155
SWIDTH 1000 0
DWIDTH 16 0
BBX 11 16 2 -2
BITMAP
0400
0400
0400
0400
0600
0E00
1500
1500
2480
2480
4440
4440
8420
FFE0
0400
0400
ENDCHAR
STARTCHAR 23C4
ENCODING 9156
SWIDTH 1000 0
DWIDTH 16 0
BBX 16 16 0 -2
BITMAP
FFFF
0100
0100
0100
0180
0380
0540
0540
0920
0920
1110
1110
2108
3FF8
0100
0100
ENDCHAR
STARTCHAR 23C5
ENCODING 9157
SWIDTH 1000 0
DWIDTH 16 0
BBX 16 16 0 -2
BITMAP
0100
0100
0100
0100
0180
0380
0540
0540
0920
0920
1110
1110
2108
3FF8
0100
FFFF
ENDCHAR
STARTCHAR 23C6
ENCODING 9158
SWIDTH 1000 0
DWIDTH 16 0
BBX 11 16 2 -2
BITMAP
0400
0400
0400
0400
0400
0400
0400
7C00
8660
05C0
0400
0400
0400
0400
0400
0400
ENDCHAR
STARTCHAR 23C7
ENCODING 9159
SWIDTH 1000 0
DWIDTH 16 0
BBX 16 16 0 -2
BITMAP
FFFF
0100
0100
0100
0100
0100
0100
1F00
2198
0170
0100
0100
0100
0100
0100
0100
ENDCHAR
STARTCHAR 23C8
ENCODING 9160
SWIDTH 1000 0
DWIDTH 16 0
BBX 16 16 0 -2
BITMAP
0100
0100
0100
0100
0100
0100
0100
1F00
2198
0170
0100
0100
0100
0100
0100
FFFF
ENDCHAR
STARTCHAR 23C9
ENCODING 9161
SWIDTH 1000 0
DWIDTH 16 0
BBX 16 16 0 -2
BITMAP
FFFF
0100
0100
0100
0100
0100
0100
0100
0100
0100
0100
0100
0100
0100
0100
0100
ENDCHAR
STARTCHAR 23CA
ENCODING 9162
SWIDTH 1000 0
DWIDTH 16 0
BBX 16 16 0 -2
BITMAP
0100
0100
0100
0100
0100
0100
0100
0100
0100
0100
0100
0100
0100
0100
0100
FFFF
ENDCHAR
STARTCHAR 23CB
ENCODING 9163
SWIDTH 1000 0
DWIDTH 16 0
BBX 8 16 0 -2
BITMAP
FF
01
01
01
01
01
01
01
01
01
01
01
01
01
01
01
ENDCHAR
STARTCHAR 23CC
ENCODING 9164
SWIDTH 1000 0
DWIDTH 16 0
BBX 8 16 0 -2
BITMAP
01
01
01
01
01
01
01
01
01
01
01
01
01
01
01
FF
ENDCHAR
STARTCHAR 23CE
ENCODING 9166
SWIDTH 1000 0
DWIDTH 16 0
BBX 14 13 1 -1
BITMAP
007C
0044
0C44
1444
2444
47C4
8004
8004
4008
47F0
3400
1400
0C00
ENDCHAR
STARTCHAR 2423
ENCODING 9251
SWIDTH 1000 0
DWIDTH 16 0
BBX 14 3 1 -1
BITMAP
8004
8004
FFFC
ENDCHAR
STARTCHAR 2460
ENCODING 9312
SWIDTH 1000 0
DWIDTH 16 0
BBX 16 16 0 -2
BITMAP
03C0
0420
3818
2084
4782
8182
8181
8181
8181
8181
8180
8182
4182
27E4
1818
07E0
ENDCHAR
STARTCHAR 2461
ENCODING 9313
SWIDTH 1000 0
DWIDTH 16 0
BBX 16 16 0 -2
BITMAP
03C0
0420
3818
2184
4662
8422
8061
8061
8081
8181
8200
8622
47E2
27E4
1818
07E0
ENDCHAR
STARTCHAR 2462
ENCODING 9314
SWIDTH 1000 0
DWIDTH 16 0
BBX 16 16 0 -2
BITMAP
03C0
0420
3818
2184
4662
8422
8021
8061
81E1
8061
8420
8422
4662
2184
1818
07E0
ENDCHAR
STARTCHAR 2463
ENCODING 9315
SWIDTH 1000 0
DWIDTH 16 0
BBX 16 16 0 -2
BITMAP
03C0
0420
3818
21C4
4042
8242
8241
8441
8841
8041
8FF0
8042
4042
21E4
1818
07E0
ENDCHAR
STARTCHAR 2464
ENCODING 9316
SWIDTH 1000 0
DWIDTH 16 0
BBX 16 16 0 -2
BITMAP
03C0
0420
3818
27E4
4402
8402
8401
85C1
8461
8021
8020
8422
4662
23C4
1818
07E0
ENDCHAR
STARTCHAR 2465
ENCODING 9317
SWIDTH 1000 0
DWIDTH 16 0
BBX 16 16 0 -2
BITMAP
03C0
0420
3818
23C4
4662
8402
8401
85C1
8661
8421
8420
8422
4662
23C4
1818
07E0
ENDCHAR
STARTCHAR 2466
ENCODING 9318
SWIDTH 1000 0
DWIDTH 16 0
BBX 16 16 0 -2
BITMAP
03C0
0420
3818
27E4
4802
8022
8041
8041
8081
8081
8180
8182
4182
2184
1818
07E0
ENDCHAR
STARTCHAR 2467
ENCODING 9319
SWIDTH 1000 0
DWIDTH 16 0
BBX 16 16 0 -2
BITMAP
03C0
0420
3818
2184
4662
8422
8621
8741
82C1
8461
8420
8422
4662
2184
1818
07E0
ENDCHAR
STARTCHAR 2468
ENCODING 9320
SWIDTH 1000 0
DWIDTH 16 0
BBX 16 16 0 -2
BITMAP
03C0
0420
3818
23C4
4662
8422
8421
8421
8661
83A1
8020
8022
4662
23C4
1818
07E0
ENDCHAR
STARTCHAR 2469
ENCODING 9321
SWIDTH 1000 0
DWIDTH 16 0
BBX 16 16 0 -2
BITMAP
03C0
0420
3818
2004
4472
9C92
8499
8499
8499
8499
8498
8492
5E62
2004
1818
07E0
ENDCHAR
STARTCHAR 246A
ENCODING 9322
SWIDTH 1000 0
DWIDTH 16 0
BBX 16 16 0 -2
BITMAP
03C0
0420
3818
2004
4422
9C62
8421
8421
8421
8421
8420
8422
5E7A
2004
1818
07E0
ENDCHAR
STARTCHAR 246B
ENCODING 9323
SWIDTH 1000 0
DWIDTH 16 0
BBX 16 16 0 -2
BITMAP
03C0
0420
3818
2004
4472
9C9A
8419
8419
8421
8421
8448
848A
5EFA
2004
1818
07E0
ENDCHAR
STARTCHAR 246C
ENCODING 9324
SWIDTH 1000 0
DWIDTH 16 0
BBX 16 16 0 -2
BITMAP
03C0
0420
3818
2004
4472
9C9A
8419
8411
8431
8419
8498
849A
5E62
2004
1818
07E0
ENDCHAR
STARTCHAR 246D
ENCODING 9325
SWIDTH 1000 0
DWIDTH 16 0
BBX 16 16 0 -2
BITMAP
03C0
0420
3818
2004
4432
9C52
8491
8491
8491
8491
8470
8412
5E3A
2004
1818
07E0
ENDCHAR
STARTCHAR 246E
ENCODING 9326
SWIDTH 1000 0
DWIDTH 16 0
BBX 16 16 0 -2
BITMAP
03C0
0420
3818
2004
4472
9C82
8481
8461
8419
8419
8498
849A
5E62
2004
1818
07E0
ENDCHAR
STARTCHAR 246F
ENCODING 9327
SWIDTH 1000 0
DWIDTH 16 0
BBX 16 16 0 -2
BITMAP
03C0
0420
3818
2004
4472
9C9A
8481
84E1
8499
8499
8498
849A
5E62
2004
1818
07E0
ENDCHAR
STARTCHAR 2470
ENCODING 9328
SWIDTH 1000 0
DWIDTH 16 0
BBX 16 16 0 -2
BITMAP
03C0
0420
3818
2004
44FA
9C8A
8411
8411
8421
8421
8460
8462
5E62
2004
1818
07E0
ENDCHAR
STARTCHAR 2471
ENCODING 9329
SWIDTH 1000 0
DWIDTH 16 0
BBX 16 16 0 -2
BITMAP
03C0
0420
3818
2004
4472
9C9A
8499
8451
84B1
8499
8498
849A
5E62
2004
1818
07E0
ENDCHAR
STARTCHAR 2472
ENCODING 9330
SWIDTH 1000 0
DWIDTH 16 0
BBX 16 16 0 -2
BITMAP
03C0
0420
3818
2004
4472
9C9A
8499
8499
8459
8479
8498
849A
5E62
2004
1818
07E0
ENDCHAR
STARTCHAR 2473
ENCODING 9331
SWIDTH 1000 0
DWIDTH 16 0
BBX 16 16 0 -2
BITMAP
03C0
0420
3818
2004
4E7A
994A
8149
8149
8249
8649
8948
894A
5F32
2004
1818
07E0
ENDCHAR
STARTCHAR 24D0
ENCODING 9424
SWIDTH 1000 0
DWIDTH 16 0
BBX 16 16 0 -2
BITMAP
03C0
0420
3818
2004
4002
8002
87C1
8061
83E1
8661
8460
8672
4182
2004
1818
07E0
ENDCHAR
STARTCHAR 24D1
ENCODING 9425
SWIDTH 1000 0
DWIDTH 16 0
BBX 16 16 0 -2
BITMAP
03C0
0420
3818
2604
4E02
8602
87E1
8621
8611
8611
8620
8622
40C2
2004
1818
07E0
ENDCHAR
STARTCHAR 24D2
ENCODING 9426
SWIDTH 1000 0
DWIDTH 16 0
BBX 16 16 0 -2
BITMAP
03C0
0420
3818
2004
4002
8002
87E1
8621
8401
8401
8600
8622
41C2
2004
1818
07E0
ENDCHAR
STARTCHAR 24D3
ENCODING 9427
SWIDTH 1000 0
DWIDTH 16 0
BBX 16 16 0 -2
BITMAP
03C0
0420
3818
20E4
4062
8062
8761
8461
8861
8861
8460
8462
4312
2004
1818
07E0
ENDCHAR
STARTCHAR 24D4
ENCODING 9428
SWIDTH 1000 0
DWIDTH 16 0
BBX 16 16 0 -2
BITMAP
03C0
0420
3818
2004
4002
8002
87E1
8621
87E1
8401
8600
8622
41C2
2004
1818
07E0
ENDCHAR
STARTCHAR 24D5
ENCODING 9429
SWIDTH 1000 0
DWIDTH 16 0
BBX 16 16 0 -2
BITMAP
03C0
0420
3818
20E4
4122
8102
87C1
8101
8101
8101
8100
8102
4282
2004
1818
07E0
ENDCHAR
STARTCHAR 24D6
ENCODING 9430
SWIDTH 1000 0
DWIDTH 16 0
BBX 16 16 0 -2
BITMAP
03C0
0420
3818
2004
4002
8022
83D1
8661
8641
8381
83E0
8462
4622
27E4
1818
07E0
ENDCHAR
STARTCHAR 24D7
ENCODING 9431
SWIDTH 1000 0
DWIDTH 16 0
BBX 16 16 0 -2
BITMAP
03C0
0420
3818
2604
4E02
8602
86E1
8621
8621
8621
8620
8622
4012
2004
1818
07E0
ENDCHAR
STARTCHAR 24D8
ENCODING 9432
SWIDTH 1000 0
DWIDTH 16 0
BBX 16 16 0 -2
BITMAP
03C0
0420
3818
2184
4002
8002
8381
8181
8181
8181
8180
8182
4242
2004
1818
07E0
ENDCHAR
STARTCHAR 24D9
ENCODING 9433
SWIDTH 1000 0
DWIDTH 16 0
BBX 16 16 0 -2
BITMAP
03C0
0420
3818
2084
4002
8002
8181
8081
8081
8081
8080
8082
4582
2704
1818
07E0
ENDCHAR
STARTCHAR 24DA
ENCODING 9434
SWIDTH 1000 0
DWIDTH 16 0
BBX 16 16 0 -2
BITMAP
03C0
0420
3818
2604
4E02
8602
8661
8601
8781
8681
8660
8622
4012
2004
1818
07E0
ENDCHAR
STARTCHAR 24DB
ENCODING 9435
SWIDTH 1000 0
DWIDTH 16 0
BBX 16 16 0 -2
BITMAP
03C0
0420
3818
2184
4182
8182
8181
8181
8181
8181
8180
8182
4242
2004
1818
07E0
ENDCHAR
STARTCHAR 24DC
ENCODING 9436
SWIDTH 1000 0
DWIDTH 16 0
BBX 16 16 0 -2
BITMAP
03C0
0420
3818
2004
4002
8002
9F41
8991
8991
8991
8990
8992
4422
2004
1818
07E0
ENDCHAR
STARTCHAR 24DD
ENCODING 9437
SWIDTH 1000 0
DWIDTH 16 0
BBX 16 16 0 -2
BITMAP
03C0
0420
3818
2004
4002
8002
8FE1
8421
8421
8421
8420
8422
4812
2004
1818
07E0
ENDCHAR
STARTCHAR 24DE
ENCODING 9438
SWIDTH 1000 0
DWIDTH 16 0
BBX 16 16 0 -2
BITMAP
03C0
0420
3818
2004
4002
8002
87E1
8661
8421
8421
8660
8662
4182
2004
1818
07E0
ENDCHAR
STARTCHAR 24DF
ENCODING 9439
SWIDTH 1000 0
DWIDTH 16 0
BBX 16 16 0 -2
BITMAP
03C0
0420
3818
2004
4002
8002
8FE1
8621
8611
8611
8620
87E2
4602
2604
1818
07E0
ENDCHAR
STARTCHAR 24E0
ENCODING 9440
SWIDTH 1000 0
DWIDTH 16 0
BBX 16 16 0 -2
BITMAP
03C0
0420
3818
2004
4002
8002
8761
8461
8861
8861
8460
87E2
4062
2064
1818
07E0
ENDCHAR
STARTCHAR 24E1
ENCODING 9441
SWIDTH 1000 0
DWIDTH 16 0
BBX 16 16 0 -2
BITMAP
03C0
0420
3818
2004
4002
8002
86E1
8321
8201
8201
8200
8202
4102
2004
1818
07E0
ENDCHAR
STARTCHAR 24E2
ENCODING 9442
SWIDTH 1000 0
DWIDTH 16 0
BBX 16 16 0 -2
BITMAP
03C0
0420
3818
2004
4002
8002
87E1
8621
8381
81C1
8460
8662
4182
2004
1818
07E0
ENDCHAR
STARTCHAR 24E3
ENCODING 9443
SWIDTH 1000 0
DWIDTH 16 0
BBX 16 16 0 -2
BITMAP
03C0
0420
3818
2104
4102
8102
87C1
8101
8101
8101
8100
81A2
4042
2004
1818
07E0
ENDCHAR
STARTCHAR 24E4
ENCODING 9444
SWIDTH 1000 0
DWIDTH 16 0
BBX 16 16 0 -2
BITMAP
03C0
0420
3818
2004
4002
8002
8661
8661
8661
8661
8660
8262
4182
2004
1818
07E0
ENDCHAR
STARTCHAR 24E5
ENCODING 9445
SWIDTH 1000 0
DWIDTH 16 0
BBX 16 16 0 -2
BITMAP
03C0
0420
3818
2004
4002
8002
8F31
8621
8241
8141
8180
8182
4002
2004
1818
07E0
ENDCHAR
STARTCHAR 24E6
ENCODING 9446
SWIDTH 1000 0
DWIDTH 16 0
BBX 16 16 0 -2
BITMAP
03C0
0420
3818
2004
4002
8002
9999
9991
8AA1
8AA1
8660
8442
4002
2004
1818
07E0
ENDCHAR
STARTCHAR 24E7
ENCODING 9447
SWIDTH 1000 0
DWIDTH 16 0
BBX 16 16 0 -2
BITMAP
03C0
0420
3818
2004
4002
8002
8E31
8241
8181
8181
8260
8422
4812
2004
1818
07E0
ENDCHAR
STARTCHAR 24E8
ENCODING 9448
SWIDTH 1000 0
DWIDTH 16 0
BBX 16 16 0 -2
BITMAP
03C0
0420
3818
2004
4002
8002
8671
8221
8141
8181
8080
8082
4902
2604
1818
07E0
ENDCHAR
STARTCHAR 24E9
ENCODING 9449
SWIDTH 1000 0
DWIDTH 16 0
BBX 16 16 0 -2
BITMAP
03C0
0420
3818
2004
4002
8002
87E1
8841
8181
8101
8610
8422
4BC2
2004
1818
07E0
ENDCHAR
STARTCHAR 24EB
ENCODING 9451
SWIDTH 1000 0
DWIDTH 16 0
BBX 16 16 0 -2
BITMAP
03C0
07E0
1FF8
3FFC
7BDE
639E
FBDF
FBDF
FBDF
FBDF
7BDE
7BDE
6186
3FFC
1FF8
07E0
ENDCHAR
STARTCHAR 24EC
ENCODING 9452
SWIDTH 1000 0
DWIDTH 16 0
BBX 16 16 0 -2
BITMAP
03C0
07E0
1FF8
3FFC
7BAE
6366
FBE7
FBE7
FBFF
FBDF
7BB6
7BF6
6106
3FFC
1FF8
07E0
ENDCHAR
STARTCHAR 24ED
ENCODING 9453
SWIDTH 1000 0
DWIDTH 16 0
BBX 16 16 0 -2
BITMAP
03C0
07E0
1FF8
3FFC
7BAE
6366
FBE7
FBEF
FBFF
FBE7
7B66
7B66
619E
3FFC
1FF8
07E0
ENDCHAR
STARTCHAR 24EE
ENCODING 9454
SWIDTH 1000 0
DWIDTH 16 0
BBX 16 16 0 -2
BITMAP
03C0
07E0
1FF8
3FFC
7BCE
63AE
FBEF
FBEF
FB6F
FB6F
7BEE
7BEE
61C6
3FFC
1FF8
07E0
ENDCHAR
STARTCHAR 24EF
ENCODING 9455
SWIDTH 1000 0
DWIDTH 16 0
BBX 16 16 0 -2
BITMAP
03C0
07E0
1FF8
3FFC
7B8E
63FE
FBFF
FB9F
FBE7
FBE7
7B66
7B66
619E
3FFC
1FF8
07E0
ENDCHAR
STARTCHAR 24F0
ENCODING 9456
SWIDTH 1000 0
DWIDTH 16 0
BBX 16 16 0 -2
BITMAP
03C0
07E0
1FF8
3FFC
7BAE
6366
FB7F
FB1F
FB67
FB67
7B66
7B66
619E
3FFC
1FF8
07E0
ENDCHAR
STARTCHAR 24F1
ENCODING 9457
SWIDTH 1000 0
DWIDTH 16 0
BBX 16 16 0 -2
BITMAP
03C0
07E0
1FF8
3FFC
7B06
6376
FBEF
FBEF
FBDF
FBDF
7B9E
7B9E
619E
3FFC
1FF8
07E0
ENDCHAR
STARTCHAR 24F2
ENCODING 9458
SWIDTH 1000 0
DWIDTH 16 0
BBX 16 16 0 -2
BITMAP
03C0
07E0
1FF8
3FFC
7BAE
6366
FB67
FBAF
FBEF
FB67
7B66
7B66
619E
3FFC
1FF8
07E0
ENDCHAR
STARTCHAR 24F3
ENCODING 9459
SWIDTH 1000 0
DWIDTH 16 0
BBX 16 16 0 -2
BITMAP
03C0
07E0
1FF8
3FFC
7BAE
6366
FB67
FB67
FBA7
FB87
7B66
7B66
619E
3FFC
1FF8
07E0
ENDCHAR
STARTCHAR 24F4
ENCODING 9460
SWIDTH 1000 0
DWIDTH 16 0
BBX 16 16 0 -2
BITMAP
03C0
07E0
1FF8
3FFC
7586
66B6
FEB7
FEB7
FDB7
F9B7
76B6
76B6
60CE
3FFC
1FF8
07E0
ENDCHAR
STARTCHAR 24F5
ENCODING 9461
SWIDTH 1000 0
DWIDTH 16 0
BBX 16 16 0 -2
BITMAP
03C0
0420
3FF8
2814
718A
A38A
A185
C183
C183
C183
A184
A18A
53CA
2814
1FF8
07E0
ENDCHAR
STARTCHAR 24F6
ENCODING 9462
SWIDTH 1000 0
DWIDTH 16 0
BBX 16 16 0 -2
BITMAP
03C0
0420
3FF8
2814
77EA
A42A
A025
C063
C083
C103
A224
A7EA
500A
2814
1FF8
07E0
ENDCHAR
STARTCHAR 24F7
ENCODING 9463
SWIDTH 1000 0
DWIDTH 16 0
BBX 16 16 0 -2
BITMAP
03C0
0420
3FF8
2814
77EA
A42A
A025
C063
C1E3
C023
A424
A42A
53CA
2814
1FF8
07E0
ENDCHAR
STARTCHAR 24F8
ENCODING 9464
SWIDTH 1000 0
DWIDTH 16 0
BBX 16 16 0 -2
BITMAP
03C0
0420
3FF8
2814
718A
A28A
A285
C283
C483
C883
AFE4
A08A
51EA
2814
1FD8
07E0
ENDCHAR
STARTCHAR 24F9
ENCODING 9465
SWIDTH 1000 0
DWIDTH 16 0
BBX 16 16 0 -2
BITMAP
03C0
0420
3FF8
2814
77EA
A40A
A405
C5C3
C623
C023
A424
A42A
53CA
2814
1FF8
07E0
ENDCHAR
STARTCHAR 24FA
ENCODING 9466
SWIDTH 1000 0
DWIDTH 16 0
BBX 16 16 0 -2
BITMAP
03C0
0420
3FF8
2814
77EA
A42A
A405
C5C3
C623
C423
A424
A42A
53CA
2814
1FF8
07E0
ENDCHAR
STARTCHAR 24FB
ENCODING 9467
SWIDTH 1000 0
DWIDTH 16 0
BBX 16 16 0 -2
BITMAP
03C0
0420
3FF8
2814
77EA
A42A
A045
C083
C083
C083
A184
A18A
518A
2814
1FF8
07E0
ENDCHAR
STARTCHAR 24FC
ENCODING 9468
SWIDTH 1000 0
DWIDTH 16 0
BBX 16 16 0 -2
BITMAP
03C0
0420
3FF8
2814
77EA
A42A
A625
C763
C6E3
C463
A424
A42A
53CA
2814
1FF8
07E0
ENDCHAR
STARTCHAR 24FD
ENCODING 9469
SWIDTH 1000 0
DWIDTH 16 0
BBX 16 16 0 -2
BITMAP
03C0
0420
3FF8
2814
77EA
A42A
A425
C423
C3E3
C023
A424
A42A
53CA
2814
1FF8
07E0
ENDCHAR
STARTCHAR 24FE
ENCODING 9470
SWIDTH 1000 0
DWIDTH 16 0
BBX 16 16 0 -2
BITMAP
03C0
0420
3FF8
2814
76EA
AEAA
A695
C693
C693
C693
A6A4
A68A
594A
2814
1FF8
07E0
ENDCHAR
STARTCHAR 2500
ENCODING 9472
SWIDTH 1000 0
DWIDTH 16 0
BBX 16 1 0 6
BITMAP
FFFF
ENDCHAR
STARTCHAR 2501
ENCODING 9473
SWIDTH 1000 0
DWIDTH 16 0
BBX 16 2 0 5
BITMAP
FFFF
FFFF
ENDCHAR
STARTCHAR 2502
ENCODING 9474
SWIDTH 1000 0
DWIDTH 16 0
BBX 1 16 7 -2
BITMAP
80
80
80
80
80
80
80
80
80
80
80
80
80
80
80
80
ENDCHAR
STARTCHAR 2503
ENCODING 9475
SWIDTH 1000 0
DWIDTH 16 0
BBX 2 16 7 -2
BITMAP
C0
C0
C0
C0
C0
C0
C0
C0
C0
C0
C0
C0
C0
C0
C0
C0
ENDCHAR
STARTCHAR 250C
ENCODING 9484
SWIDTH 1000 0
DWIDTH 16 0
BBX 9 8 7 -2
BITMAP
FF80
8000
8000
8000
8000
8000
8000
8000
ENDCHAR
STARTCHAR 250F
ENCODING 9487
SWIDTH 1000 0
DWIDTH 16 0
BBX 9 9 7 -2
BITMAP
FF80
FF80
C000
C000
C000
C000
C000
C000
C000
ENDCHAR
STARTCHAR 2510
ENCODING 9488
SWIDTH 1000 0
DWIDTH 16 0
BBX 8 8 0 -2
BITMAP
FF
01
01
01
01
01
01
01
ENDCHAR
STARTCHAR 2513
ENCODING 9491
SWIDTH 1000 0
DWIDTH 16 0
BBX 9 9 0 -2
BITMAP
FF80
FF80
0180
0180
0180
0180
0180
0180
0180
ENDCHAR
STARTCHAR 2514
ENCODING 9492
SWIDTH 1000 0
DWIDTH 16 0
BBX 9 8 7 6
BITMAP
8000
8000
8000
8000
8000
8000
8000
FF80
ENDCHAR
STARTCHAR 2517
ENCODING 9495
SWIDTH 1000 0
DWIDTH 16 0
BBX 9 9 7 5
BITMAP
C000
C000
C000
C000
C000
C000
C000
FF80
FF80
ENDCHAR
STARTCHAR 2518
ENCODING 9496
SWIDTH 1000 0
DWIDTH 16 0
BBX 8 8 0 6
BITMAP
01
01
01
01
01
01
01
FF
ENDCHAR
STARTCHAR 251B
ENCODING 9499
SWIDTH 1000 0
DWIDTH 16 0
BBX 9 9 0 5
BITMAP
0180
0180
0180
0180
0180
0180
0180
FF80
FF80
ENDCHAR
STARTCHAR 251C
ENCODING 9500
SWIDTH 1000 0
DWIDTH 16 0
BBX 9 16 7 -2
BITMAP
8000
8000
8000
8000
8000
8000
8000
8000
FF80
8000
8000
8000
8000
8000
8000
8000
ENDCHAR
STARTCHAR 251D
ENCODING 9501
SWIDTH 1000 0
DWIDTH 16 0
BBX 9 16 7 -2
BITMAP
8000
8000
8000
8000
8000
8000
8000
FF80
FF80
8000
8000
8000
8000
8000
8000
8000
ENDCHAR
STARTCHAR 2520
ENCODING 9504
SWIDTH 1000 0
DWIDTH 16 0
BBX 9 16 7 -2
BITMAP
C000
C000
C000
C000
C000
C000
C000
C000
FF80
C000
C000
C000
C000
C000
C000
C000
ENDCHAR
STARTCHAR 2523
ENCODING 9507
SWIDTH 1000 0
DWIDTH 16 0
BBX 9 16 7 -2
BITMAP
C000
C000
C000
C000
C000
C000
C000
FF80
FF80
C000
C000
C000
C000
C000
C000
C000
ENDCHAR
STARTCHAR 2524
ENCODING 9508
SWIDTH 1000 0
DWIDTH 16 0
BBX 8 16 0 -2
BITMAP
01
01
01
01
01
01
01
01
FF
01
01
01
01
01
01
01
ENDCHAR
STARTCHAR 2525
ENCODING 9509
SWIDTH 1000 0
DWIDTH 16 0
BBX 8 16 0 -2
BITMAP
01
01
01
01
01
01
01
FF
FF
01
01
01
01
01
01
01
ENDCHAR
STARTCHAR 2528
ENCODING 9512
SWIDTH 1000 0
DWIDTH 16 0
BBX 9 16 0 -2
BITMAP
0180
0180
0180
0180
0180
0180
0180
0180
FF80
0180
0180
0180
0180
0180
0180
0180
ENDCHAR
STARTCHAR 252B
ENCODING 9515
SWIDTH 1000 0
DWIDTH 16 0
BBX 9 16 0 -2
BITMAP
0180
0180
0180
0180
0180
0180
0180
FF80
FF80
0180
0180
0180
0180
0180
0180
0180
ENDCHAR
STARTCHAR 252C
ENCODING 9516
SWIDTH 1000 0
DWIDTH 16 0
BBX 16 8 0 -2
BITMAP
FFFF
0100
0100
0100
0100
0100
0100
0100
ENDCHAR
STARTCHAR 252F
ENCODING 9519
SWIDTH 1000 0
DWIDTH 16 0
BBX 16 9 0 -2
BITMAP
FFFF
FFFF
0100
0100
0100
0100
0100
0100
0100
ENDCHAR
STARTCHAR 2530
ENCODING 9520
SWIDTH 1000 0
DWIDTH 16 0
BBX 16 8 0 -2
BITMAP
FFFF
0180
0180
0180
0180
0180
0180
0180
ENDCHAR
STARTCHAR 2533
ENCODING 9523
SWIDTH 1000 0
DWIDTH 16 0
BBX 16 9 0 -2
BITMAP
FFFF
FFFF
0180
0180
0180
0180
0180
0180
0180
ENDCHAR
STARTCHAR 2534
ENCODING 9524
SWIDTH 1000 0
DWIDTH 16 0
BBX 16 8 0 6
BITMAP
0100
0100
0100
0100
0100
0100
0100
FFFF
ENDCHAR
STARTCHAR 2537
ENCODING 9527
SWIDTH 1000 0
DWIDTH 16 0
BBX 16 9 0 5
BITMAP
0100
0100
0100
0100
0100
0100
0100
FFFF
FFFF
ENDCHAR
STARTCHAR 2538
ENCODING 9528
SWIDTH 1000 0
DWIDTH 16 0
BBX 16 8 0 6
BITMAP
0180
0180
0180
0180
0180
0180
0180
FFFF
ENDCHAR
STARTCHAR 253B
ENCODING 9531
SWIDTH 1000 0
DWIDTH 16 0
BBX 16 9 0 5
BITMAP
0180
0180
0180
0180
0180
0180
0180
FFFF
FFFF
ENDCHAR
STARTCHAR 253C
ENCODING 9532
SWIDTH 1000 0
DWIDTH 16 0
BBX 16 16 0 -2
BITMAP
0100
0100
0100
0100
0100
0100
0100
0100
FFFF
0100
0100
0100
0100
0100
0100
0100
ENDCHAR
STARTCHAR 253F
ENCODING 9535
SWIDTH 1000 0
DWIDTH 16 0
BBX 16 16 0 -2
BITMAP
0100
0100
0100
0100
0100
0100
0100
FFFF
FFFF
0100
0100
0100
0100
0100
0100
0100
ENDCHAR
STARTCHAR 2542
ENCODING 9538
SWIDTH 1000 0
DWIDTH 16 0
BBX 16 16 0 -2
BITMAP
0180
0180
0180
0180
0180
0180
0180
0180
FFFF
0180
0180
0180
0180
0180
0180
0180
ENDCHAR
STARTCHAR 254B
ENCODING 9547
SWIDTH 1000 0
DWIDTH 16 0
BBX 16 16 0 -2
BITMAP
0180
0180
0180
0180
0180
0180
0180
FFFF
FFFF
0180
0180
0180
0180
0180
0180
0180
ENDCHAR
STARTCHAR 25A0
ENCODING 9632
SWIDTH 1000 0
DWIDTH 16 0
BBX 14 15 1 -2
BITMAP
FFFC
FFFC
FFFC
FFFC
FFFC
FFFC
FFFC
FFFC
FFFC
FFFC
FFFC
FFFC
FFFC
FFFC
FFFC
ENDCHAR
STARTCHAR 25A1
ENCODING 9633
SWIDTH 1000 0
DWIDTH 16 0
BBX 14 15 1 -2
BITMAP
FFFC
8004
8004
8004
8004
8004
8004
8004
8004
8004
8004
8004
8004
8004
FFFC
ENDCHAR
STARTCHAR 25B1
ENCODING 9649
SWIDTH 1000 0
DWIDTH 16 0
BBX 14 7 1 2
BITMAP
1FFC
2004
4008
4010
4010
8010
FFE0
ENDCHAR
STARTCHAR 25B2
ENCODING 9650
SWIDTH 1000 0
DWIDTH 16 0
BBX 14 12 1 0
BITMAP
0200
0300
0700
0700
0FC0
0FC0
1FC0
1FE0
3FF0
3FF0
7FF8
FFFC
ENDCHAR
STARTCHAR 25B3
ENCODING 9651
SWIDTH 1000 0
DWIDTH 16 0
BBX 14 12 1 0
BITMAP
0200
0500
0500
0500
08C0
1040
1040
1020
6010
4010
4008
FFFC
ENDCHAR
STARTCHAR 25B6
ENCODING 9654
SWIDTH 1000 0
DWIDTH 16 0
BBX 12 15 2 -2
BITMAP
8000
E000
F000
FC00
FE00
FFC0
FFE0
FFF0
FFC0
FF00
FE00
F800
E000
8000
8000
ENDCHAR
STARTCHAR 25B7
ENCODING 9655
SWIDTH 1000 0
DWIDTH 16 0
BBX 12 15 2 -2
BITMAP
8000
E000
9000
8C00
8200
81C0
8020
8030
8040
8180
8600
9800
A000
C000
8000
ENDCHAR
STARTCHAR 25BC
ENCODING 9660
SWIDTH 1000 0
DWIDTH 16 0
BBX 14 12 1 0
BITMAP
FFFC
FFFC
7FF8
3FF0
3FF0
1FE0
0FC0
0FC0
0F80
0700
0300
0300
ENDCHAR
STARTCHAR 25BD
ENCODING 9661
SWIDTH 1000 0
DWIDTH 16 0
BBX 14 12 1 0
BITMAP
FFFC
8004
4008
4010
2010
1020
1040
1040
0880
0500
0500
0700
ENDCHAR
STARTCHAR 25C0
ENCODING 9664
SWIDTH 1000 0
DWIDTH 16 0
BBX 12 15 2 -2
BITMAP
0010
0070
00F0
03F0
07F0
3FF0
7FF0
FFF0
3FF0
0FF0
07F0
01F0
0070
0010
0010
ENDCHAR
STARTCHAR 25C1
ENCODING 9665
SWIDTH 1000 0
DWIDTH 16 0
BBX 12 15 2 -2
BITMAP
0010
0070
0090
0310
0410
3810
4010
C010
2010
1810
0610
0190
0090
0050
0010
ENDCHAR
STARTCHAR 25C6
ENCODING 9670
SWIDTH 1000 0
DWIDTH 16 0
BBX 16 16 0 -2
BITMAP
0180
0180
07E0
07E0
1FF8
1FF8
7FFE
7FFE
FFFF
7FFE
3FFC
1FF8
0FF0
07E0
03C0
0180
ENDCHAR
STARTCHAR 25C7
ENCODING 9671
SWIDTH 1000 0
DWIDTH 16 0
BBX 16 16 0 -2
BITMAP
0180
0280
0460
0820
1018
2008
4006
8002
8001
8002
6004
2008
1810
0820
0640
0380
ENDCHAR
STARTCHAR 25C9
ENCODING 9673
SWIDTH 1000 0
DWIDTH 16 0
BBX 14 15 1 -2
BITMAP
0780
3870
4790
5FE8
BFF4
BFF4
BFF4
BFF4
BFF4
BFF4
BFF4
4FC8
4790
3860
0780
ENDCHAR
STARTCHAR 25CB
ENCODING 9675
SWIDTH 1000 0
DWIDTH 16 0
BBX 14 15 1 -2
BITMAP
0780
3870
4010
4008
8004
8004
8004
8004
8004
8004
8004
4008
4010
3860
0780
ENDCHAR
STARTCHAR 25CE
ENCODING 9678
SWIDTH 1000 0
DWIDTH 16 0
BBX 14 15 1 -2
BITMAP
0780
3870
4010
4FC8
9044
9024
A014
A014
A014
9024
9044
4F08
4010
3860
0780
ENDCHAR
STARTCHAR 25CF
ENCODING 9679
SWIDTH 1000 0
DWIDTH 16 0
BBX 14 15 1 -2
BITMAP
0780
3FF0
3FF0
7FF8
FFFC
FFFC
FFFC
FFFC
FFFC
FFFC
FFFC
7FF8
3FF0
0FC0
0780
ENDCHAR
STARTCHAR 25D0
ENCODING 9680
SWIDTH 1000 0
DWIDTH 16 0
BBX 14 15 1 -2
BITMAP
0780
3E70
3E10
7E08
FE04
FE04
FE04
FE04
FE04
FE04
FE04
7E08
3E10
0E60
0780
ENDCHAR
STARTCHAR 25D1
ENCODING 9681
SWIDTH 1000 0
DWIDTH 16 0
BBX 14 15 1 -2
BITMAP
0780
39F0
41F0
41F8
81FC
81FC
81FC
81FC
81FC
81FC
81FC
41F8
41F0
39C0
0780
ENDCHAR
STARTCHAR 25D2
ENCODING 9682
SWIDTH 1000 0
DWIDTH 16 0
BBX 14 15 1 -2
BITMAP
0780
3870
4010
4008
8004
8004
8004
FFFC
FFFC
FFFC
FFFC
7FF8
3FF0
0FC0
0780
ENDCHAR
STARTCHAR 25D3
ENCODING 9683
SWIDTH 1000 0
DWIDTH 16 0
BBX 14 15 1 -2
BITMAP
0780
3FF0
3FF0
7FF8
FFFC
FFFC
FFFC
8004
8004
8004
8004
4008
4010
3860
0780
ENDCHAR
STARTCHAR 25E6
ENCODING 9702
SWIDTH 1000 0
DWIDTH 16 0
BBX 6 5 5 3
BITMAP
78
84
84
84
70
ENDCHAR
STARTCHAR 25EF
ENCODING 9711
SWIDTH 1000 0
DWIDTH 16 0
BBX 16 16 0 -2
BITMAP
03C0
0420
3818
2004
4002
8002
8001
8001
8001
8001
8000
8002
4002
2004
1818
07E0
ENDCHAR
STARTCHAR 2600
ENCODING 9728
SWIDTH 1000 0
DWIDTH 16 0
BBX 16 16 0 -2
BITMAP
0180
0180
6186
300C
0180
07E0
07E0
0FF0
EFF7
0FF0
07E0
07E0
1008
300C
2184
0180
ENDCHAR
STARTCHAR 2601
ENCODING 9729
SWIDTH 1000 0
DWIDTH 16 0
BBX 14 11 1 0
BITMAP
0600
1F80
1F80
3FFC
3FFC
FFFC
FFFC
FFFC
FEFC
78FC
007C
ENDCHAR
STARTCHAR 2602
ENCODING 9730
SWIDTH 1000 0
DWIDTH 16 0
BBX 14 15 1 -2
BITMAP
0200
0F80
1FC0
7FF0
FFF8
FFFC
B36C
1204
0200
0200
0200
0200
1200
1200
0C00
ENDCHAR
STARTCHAR 2603
ENCODING 9731
SWIDTH 1000 0
DWIDTH 16 0
BBX 16 16 0 -2
BITMAP
0862
1274
43F8
24F8
103C
D24B
1008
524A
399C
2000
C182
4182
4002
2184
1008
0FF0
ENDCHAR
STARTCHAR 2605
ENCODING 9733
SWIDTH 1000 0
DWIDTH 16 0
BBX 13 13 1 -1
BITMAP
0200
0300
0700
0700
FFF8
7FF0
3FE0
1FC0
0FC0
1FC0
3CE0
3060
0010
ENDCHAR
STARTCHAR 2606
ENCODING 9734
SWIDTH 1000 0
DWIDTH 16 0
BBX 13 13 1 -1
BITMAP
0700
0500
0500
0480
F878
4000
2020
1040
1040
1240
2520
48D0
3030
ENDCHAR
STARTCHAR 260E
ENCODING 9742
SWIDTH 1000 0
DWIDTH 16 0
BBX 14 12 1 0
BITMAP
1FE0
3FF0
7FF8
ECDC
0FC0
1FE0
3870
3030
7038
7038
7CF8
7FF8
ENDCHAR
STARTCHAR 2616
ENCODING 9750
SWIDTH 1000 0
DWIDTH 16 0
BBX 12 13 2 -1
BITMAP
0F00
1080
6060
4020
4020
8020
8020
8020
8020
8010
8010
8010
FFF0
ENDCHAR
STARTCHAR 2617
ENCODING 9751
SWIDTH 1000 0
DWIDTH 16 0
BBX 12 13 2 -1
BITMAP
0F00
1F80
7FE0
7FE0
7FE0
7FE0
7FE0
7FE0
7FE0
FFF0
FFF0
FFF0
FFF0
ENDCHAR
STARTCHAR 261E
ENCODING 9758
SWIDTH 1000 0
DWIDTH 16 0
BBX 15 8 1 2
BITMAP
0FFC
F202
81FC
82A0
BD60
8CE0
A6C0
DFC0
ENDCHAR
STARTCHAR 2640
ENCODING 9792
SWIDTH 1000 0
DWIDTH 16 0
BBX 9 15 3 -2
BITMAP
0C00
7300
4100
4100
4000
4100
3200
0C00
0800
FF80
0800
0800
0800
0800
0800
ENDCHAR
STARTCHAR 2642
ENCODING 9794
SWIDTH 1000 0
DWIDTH 16 0
BBX 14 14 1 -2
BITMAP
01FC
0004
0024
0044
0084
0104
1A00
2400
4200
8100
8100
4200
2400
1800
ENDCHAR
STARTCHAR 2660
ENCODING 9824
SWIDTH 1000 0
DWIDTH 16 0
BBX 11 13 2 -1
BITMAP
0400
0600
0E00
1F00
3F80
7FC0
7FE0
FFE0
FFE0
7FE0
0600
0E00
1F00
ENDCHAR
STARTCHAR 2661
ENCODING 9825
SWIDTH 1000 0
DWIDTH 16 0
BBX 11 13 2 -1
BITMAP
79E0
8A20
8420
8020
8020
8020
8020
4040
2080
2080
1100
0A00
0400
ENDCHAR
STARTCHAR 2662
ENCODING 9826
SWIDTH 1000 0
DWIDTH 16 0
BBX 10 15 3 -2
BITMAP
0800
1400
1400
2200
4100
4100
8080
8040
8080
4100
4100
2200
1400
1400
0800
ENDCHAR
STARTCHAR 2663
ENCODING 9827
SWIDTH 1000 0
DWIDTH 16 0
BBX 13 13 1 -1
BITMAP
0F80
0F80
0FC0
0FC0
0700
3360
7FF0
FFF8
FFF8
7FF0
3360
0700
0F80
ENDCHAR
STARTCHAR 2664
ENCODING 9828
SWIDTH 1000 0
DWIDTH 16 0
BBX 11 13 2 -1
BITMAP
0400
0A00
0A00
1100
2080
4040
8020
8020
8220
9B20
68C0
0A00
1F00
ENDCHAR
STARTCHAR 2665
ENCODING 9829
SWIDTH 1000 0
DWIDTH 16 0
BBX 11 13 2 -1
BITMAP
79E0
FBE0
FFE0
FFE0
FFE0
7FE0
7FE0
7FC0
3F80
1F80
1F00
0E00
0400
ENDCHAR
STARTCHAR 2666
ENCODING 9830
SWIDTH 1000 0
DWIDTH 16 0
BBX 10 15 3 -2
BITMAP
0800
0C00
1C00
3E00
3F00
7F00
FF80
FFC0
FF80
3F00
3F00
1C00
1C00
0800
0800
ENDCHAR
STARTCHAR 2667
ENCODING 9831
SWIDTH 1000 0
DWIDTH 16 0
BBX 13 13 1 -1
BITMAP
0F80
0880
1040
1040
0880
3560
4190
8008
8008
4510
35E0
0400
0F80
ENDCHAR
STARTCHAR 2668
ENCODING 9832
SWIDTH 1000 0
DWIDTH 16 0
BBX 14 13 1 -1
BITMAP
0240
12C0
3480
3480
12C0
0B40
0D20
0D20
CB4C
8344
C00C
6018
1FE0
ENDCHAR
STARTCHAR 2669
ENCODING 9833
SWIDTH 1000 0
DWIDTH 16 0
BBX 5 16 5 -2
BITMAP
08
08
08
08
08
08
08
08
08
08
08
08
38
F8
F0
F0
ENDCHAR
STARTCHAR 266A
ENCODING 9834
SWIDTH 1000 0
DWIDTH 16 0
BBX 10 16 3 -2
BITMAP
0400
0400
0600
0700
0480
04C0
0440
0440
0440
0440
0400
0400
3C00
7C00
F800
F000
ENDCHAR
STARTCHAR 266B
ENCODING 9835
SWIDTH 1000 0
DWIDTH 16 0
BBX 13 16 1 -2
BITMAP
0600
0780
0478
0418
0408
0408
0408
0408
0408
0408
7C08
F808
F0F8
60F0
00F0
00C0
ENDCHAR
STARTCHAR 266C
ENCODING 9836
SWIDTH 1000 0
DWIDTH 16 0
BBX 13 16 1 -2
BITMAP
0600
0780
0478
0618
05E8
0478
0408
0408
0408
0408
7C08
F808
F0F8
60F0
00F0
00C0
ENDCHAR
STARTCHAR 266D
ENCODING 9837
SWIDTH 1000 0
DWIDTH 16 0
BBX 7 16 5 -2
BITMAP
80
80
80
80
80
80
9C
A4
C2
82
84
84
88
90
E0
C0
ENDCHAR
STARTCHAR 266E
ENCODING 9838
SWIDTH 1000 0
DWIDTH 16 0
BBX 6 15 5 -2
BITMAP
80
80
80
9C
FC
84
84
84
84
FC
E4
04
04
04
04
ENDCHAR
STARTCHAR 266F
ENCODING 9839
SWIDTH 1000 0
DWIDTH 16 0
BBX 12 16 2 -2
BITMAP
0080
1080
1080
1080
1FF0
FF80
1080
1080
1080
1080
1FF0
FF80
1080
1080
1080
1080
ENDCHAR
STARTCHAR 2713
ENCODING 10003
SWIDTH 1000 0
DWIDTH 16 0
BBX 10 11 3 0
BITMAP
00C0
0100
0100
0200
0200
8400
8C00
5000
5000
2000
2000
ENDCHAR
STARTCHAR 2756
ENCODING 10070
SWIDTH 1000 0
DWIDTH 16 0
BBX 14 15 1 -2
BITMAP
0200
0700
0F80
0FC0
2FA0
7370
FAF8
FCFC
FAF8
3730
2FA0
0FC0
0F80
0300
0200
ENDCHAR
STARTCHAR 2776
ENCODING 10102
SWIDTH 1000 0
DWIDTH 16 0
BBX 16 16 0 -2
BITMAP
03C0
07E0
1FF8
3F7C
787E
7E7E
FE7F
FE7F
FE7F
FE7F
7E7E
7E7E
7E7E
381C
1FF8
07E0
ENDCHAR
STARTCHAR 2777
ENCODING 10103
SWIDTH 1000 0
DWIDTH 16 0
BBX 16 16 0 -2
BITMAP
03C0
07E0
1FF8
3E7C
799E
7BDE
FF9F
FF9F
FF7F
FE7F
7DFE
79FE
7A1E
381C
1FF8
07E0
ENDCHAR
STARTCHAR 2778
ENCODING 10104
SWIDTH 1000 0
DWIDTH 16 0
BBX 16 16 0 -2
BITMAP
03C0
07E0
1FF8
3E7C
799E
7BDE
FFDF
FF9F
FFBF
FF9F
7BDE
7BDE
799E
3E7C
1FF8
07E0
ENDCHAR
STARTCHAR 2779
ENCODING 10105
SWIDTH 1000 0
DWIDTH 16 0
BBX 16 16 0 -2
BITMAP
03C0
07E0
1FF8
3E3C
7FBE
7FBE
FDBF
FBBF
FFBF
FFBF
700E
7FBE
7FBE
3E1C
1FF8
07E0
ENDCHAR
STARTCHAR 277A
ENCODING 10106
SWIDTH 1000 0
DWIDTH 16 0
BBX 16 16 0 -2
BITMAP
03C0
07E0
1FF8
381C
7BFE
7BFE
FBFF
FA3F
FB9F
FFDF
7FDE
7BDE
799E
3C3C
1FF8
07E0
ENDCHAR
STARTCHAR 277B
ENCODING 10107
SWIDTH 1000 0
DWIDTH 16 0
BBX 16 16 0 -2
BITMAP
03C0
07E0
1FF8
3C3C
799E
7BFE
FBFF
FA3F
FB9F
FBDF
7BDE
7BDE
799E
3C3C
1FF8
07E0
ENDCHAR
STARTCHAR 277C
ENCODING 10108
SWIDTH 1000 0
DWIDTH 16 0
BBX 16 16 0 -2
BITMAP
03C0
07E0
1FF8
381C
7FFE
7FDE
FFBF
FFBF
FF7F
FF7F
7E7E
7E7E
7E7E
3E7C
1FF8
07E0
ENDCHAR
STARTCHAR 277D
ENCODING 10109
SWIDTH 1000 0
DWIDTH 16 0
BBX 16 16 0 -2
BITMAP
03C0
07E0
1FF8
3E7C
799E
7BDE
F9DF
F8BF
FD3F
FB9F
7BDE
7BDE
799E
3E7C
1FF8
07E0
ENDCHAR
STARTCHAR 277E
ENCODING 10110
SWIDTH 1000 0
DWIDTH 16 0
BBX 16 16 0 -2
BITMAP
03C0
07E0
1FF8
3C3C
799E
7BDE
FBDF
FBDF
F99F
FC5F
7FDE
7FDE
799E
3C3C
1FF8
07E0
ENDCHAR
STARTCHAR 277F
ENCODING 10111
SWIDTH 1000 0
DWIDTH 16 0
BBX 16 16 0 -2
BITMAP
03C0
07E0
1FF8
3FFC
7BAE
63EE
FB67
FB67
FB67
FB67
7B66
7BEE
619E
3FFC
1FF8
07E0
ENDCHAR
STARTCHAR 2934
ENCODING 10548
SWIDTH 1000 0
DWIDTH 16 0
BBX 13 12 1 0
BITMAP
0010
0010
0038
0058
0090
0010
0020
0020
0040
0040
0380
FC00
ENDCHAR
STARTCHAR 2935
ENCODING 10549
SWIDTH 1000 0
DWIDTH 16 0
BBX 14 11 1 0
BITMAP
FC00
0380
0040
0000
0020
0010
0010
0054
0058
0030
0010
ENDCHAR
STARTCHAR 29BF
ENCODING 10687
SWIDTH 1000 0
DWIDTH 16 0
BBX 14 15 1 -2
BITMAP
0780
3870
4010
4008
8004
8304
8784
8784
8784
8004
8004
4008
4010
3860
0780
ENDCHAR
STARTCHAR 29FA
ENCODING 10746
SWIDTH 1000 0
DWIDTH 16 0
BBX 12 12 2 0
BITMAP
1080
1080
1080
1080
1080
1080
FFF0
1080
1080
1080
1080
1080
ENDCHAR
STARTCHAR 29FB
ENCODING 10747
SWIDTH 1000 0
DWIDTH 16 0
BBX 12 12 2 0
BITMAP
2400
2480
2480
2480
2480
2480
FFF0
2480
2480
2480
2480
2480
ENDCHAR
STARTCHAR 3000
ENCODING 12288
SWIDTH 1000 0
DWIDTH 16 0
BBX 0 0 0 0
BITMAP
ENDCHAR
STARTCHAR 3001
ENCODING 12289
SWIDTH 1000 0
DWIDTH 16 0
BBX 4 3 2 -2
BITMAP
80
60
30
ENDCHAR
STARTCHAR 3002
ENCODING 12290
SWIDTH 1000 0
DWIDTH 16 0
BBX 4 3 2 -2
BITMAP
60
00
90
ENDCHAR
STARTCHAR 3003
ENCODING 12291
SWIDTH 1000 0
DWIDTH 16 0
BBX 7 9 4 1
BITMAP
22
22
22
22
66
66
44
44
88
ENDCHAR
STARTCHAR 3005
ENCODING 12293
SWIDTH 1000 0
DWIDTH 16 0
BBX 11 11 2 0
BITMAP
0800
0C60
0FE0
1840
1040
2080
4100
8E00
0300
0180
0080
ENDCHAR
STARTCHAR 3006
ENCODING 12294
SWIDTH 1000 0
DWIDTH 16 0
BBX 16 15 0 -1
BITMAP
0001
0007
000E
0030
0060
1D80
2180
2260
2460
4800
5800
6000
6000
4000
C000
ENDCHAR
STARTCHAR 3007
ENCODING 12295
SWIDTH 1000 0
DWIDTH 16 0
BBX 14 12 1 0
BITMAP
0780
1CE0
6018
C00C
8004
8004
8004
8004
8004
C00C
3030
1FE0
ENDCHAR
STARTCHAR 3008
ENCODING 12296
SWIDTH 1000 0
DWIDTH 16 0
BBX 5 15 8 -1
BITMAP
08
10
20
20
40
80
80
80
80
40
20
20
10
08
08
ENDCHAR
STARTCHAR 3009
ENCODING 12297
SWIDTH 1000 0
DWIDTH 16 0
BBX 5 15 3 -1
BITMAP
80
40
40
20
10
10
08
08
10
10
20
00
40
80
80
ENDCHAR
STARTCHAR 300A
ENCODING 12298
SWIDTH 1000 0
DWIDTH 16 0
BBX 8 16 7 -2
BITMAP
09
09
16
14
68
48
90
90
90
90
48
48
24
14
12
09
ENDCHAR
STARTCHAR 300B
ENCODING 12299
SWIDTH 1000 0
DWIDTH 16 0
BBX 8 16 1 -2
BITMAP
90
90
48
48
34
14
0B
09
09
09
10
10
24
08
40
90
ENDCHAR
STARTCHAR 300C
ENCODING 12300
SWIDTH 1000 0
DWIDTH 16 0
BBX 4 10 9 3
BITMAP
F0
80
80
80
80
80
80
80
80
80
ENDCHAR
STARTCHAR 300D
ENCODING 12301
SWIDTH 1000 0
DWIDTH 16 0
BBX 4 10 3 -2
BITMAP
10
10
10
10
10
10
10
10
10
F0
ENDCHAR
STARTCHAR 300E
ENCODING 12302
SWIDTH 1000 0
DWIDTH 16 0
BBX 5 11 9 3
BITMAP
F8
88
B8
C0
C0
C0
C0
C0
C0
C0
C0
ENDCHAR
STARTCHAR 300F
ENCODING 12303
SWIDTH 1000 0
DWIDTH 16 0
BBX 5 10 2 -2
BITMAP
38
28
28
28
28
28
28
28
C8
F8
ENDCHAR
STARTCHAR 3010
ENCODING 12304
SWIDTH 1000 0
DWIDTH 16 0
BBX 4 16 9 -2
BITMAP
F0
F0
E0
C0
C0
C0
80
80
80
80
C0
C0
C0
C0
E0
F0
ENDCHAR
STARTCHAR 3011
ENCODING 12305
SWIDTH 1000 0
DWIDTH 16 0
BBX 4 16 3 -2
BITMAP
F0
F0
70
30
30
30
10
10
10
10
30
30
30
30
70
F0
ENDCHAR
STARTCHAR 3012
ENCODING 12306
SWIDTH 1000 0
DWIDTH 16 0
BBX 14 14 1 -2
BITMAP
FFFC
0000
0000
0000
FFFC
0300
0300
0300
0300
0300
0300
0300
0300
0300
ENDCHAR
STARTCHAR 3013
ENCODING 12307
SWIDTH 1000 0
DWIDTH 16 0
BBX 14 11 1 0
BITMAP
FFFC
FFFC
FFFC
FFFC
0000
0000
0000
FFFC
FFFC
FFFC
FFFC
ENDCHAR
STARTCHAR 3014
ENCODING 12308
SWIDTH 1000 0
DWIDTH 16 0
BBX 5 16 8 -2
BITMAP
08
10
E0
80
80
80
80
80
80
80
80
80
80
80
60
18
ENDCHAR
STARTCHAR 3015
ENCODING 12309
SWIDTH 1000 0
DWIDTH 16 0
BBX 5 16 3 -2
BITMAP
80
40
28
08
08
08
08
08
08
08
08
08
08
08
30
C0
ENDCHAR
STARTCHAR 3016
ENCODING 12310
SWIDTH 1000 0
DWIDTH 16 0
BBX 6 16 7 -2
BITMAP
FC
84
88
90
90
90
A0
A0
A0
A0
90
90
90
90
88
FC
ENDCHAR
STARTCHAR 3017
ENCODING 12311
SWIDTH 1000 0
DWIDTH 16 0
BBX 6 16 3 -2
BITMAP
FC
84
44
44
24
24
14
14
14
14
24
24
44
44
44
FC
ENDCHAR
STARTCHAR 3018
ENCODING 12312
SWIDTH 1000 0
DWIDTH 16 0
BBX 5 16 8 -2
BITMAP
08
10
E8
90
A0
A0
A0
A0
A0
A0
A0
A0
A0
90
68
18
ENDCHAR
STARTCHAR 3019
ENCODING 12313
SWIDTH 1000 0
DWIDTH 16 0
BBX 5 16 3 -2
BITMAP
80
40
A8
48
28
28
28
28
28
28
28
28
28
48
B0
C0
ENDCHAR
STARTCHAR 301C
ENCODING 12316
SWIDTH 1000 0
DWIDTH 16 0
BBX 15 4 1 4
BITMAP
7000
8C00
0382
00FC
ENDCHAR
STARTCHAR 301D
ENCODING 12317
SWIDTH 1000 0
DWIDTH 16 0
BBX 6 5 9 8
BITMAP
10
C8
4C
20
10
ENDCHAR
STARTCHAR 301F
ENCODING 12319
SWIDTH 1000 0
DWIDTH 16 0
BBX 6 5 1 -2
BITMAP
20
90
C8
6C
20
ENDCHAR
STARTCHAR 3020
ENCODING 12320
SWIDTH 1000 0
DWIDTH 16 0
BBX 16 12 0 0
BITMAP
3FFC
3FFC
0000
3FFC
0180
4DB2
97E9
95A9
6996
2804
17C8
0FD0
ENDCHAR
STARTCHAR 3033
ENCODING 12339
SWIDTH 1000 0
DWIDTH 16 0
BBX 9 16 3 -2
BITMAP
0100
0100
0080
0180
0300
0300
0300
0600
0C00
0C00
3000
3000
4000
C000
8000
8000
ENDCHAR
STARTCHAR 3034
ENCODING 12340
SWIDTH 1000 0
DWIDTH 16 0
BBX 12 16 3 -2
BITMAP
0100
0100
0080
0180
0300
0300
0300
0600
0C40
0C20
3030
3100
40C0
C040
8000
8000
ENDCHAR
STARTCHAR 3035
ENCODING 12341
SWIDTH 1000 0
DWIDTH 16 0
BBX 9 16 3 -2
BITMAP
8000
C000
6000
3000
1000
1800
0C00
0C00
0600
0600
0300
0300
0100
0180
0180
0080
ENDCHAR
STARTCHAR 303B
ENCODING 12347
SWIDTH 1000 0
DWIDTH 16 0
BBX 4 11 9 1
BITMAP
C0
30
30
30
70
80
C0
20
30
10
10
ENDCHAR
STARTCHAR 303C
ENCODING 12348
SWIDTH 1000 0
DWIDTH 16 0
BBX 14 13 1 -1
BITMAP
FFFC
8014
8024
8044
8084
8104
8204
8404
8804
9004
A004
C004
FFFC
ENDCHAR
STARTCHAR 303D
ENCODING 12349
SWIDTH 1000 0
DWIDTH 16 0
BBX 14 15 1 -2
BITMAP
3000
CB80
8C80
0040
0040
0040
0040
0020
0020
0030
0010
0008
000C
000C
0004
ENDCHAR
STARTCHAR 3041
ENCODING 12353
SWIDTH 1000 0
DWIDTH 16 0
BBX 10 12 3 -2
BITMAP
0800
0800
FE00
1000
1400
1F00
74C0
D440
9840
B040
C080
0300
ENDCHAR
STARTCHAR 3042
ENCODING 12354
SWIDTH 1000 0
DWIDTH 16 0
BBX 14 16 1 -2
BITMAP
0C00
0600
04C0
47C0
3C00
0D00
0880
0BC0
1D30
2B08
480C
4C0C
8C0C
8408
E410
C070
ENDCHAR
STARTCHAR 3043
ENCODING 12355
SWIDTH 1000 0
DWIDTH 16 0
BBX 10 8 3 0
BITMAP
8300
8080
80C0
8040
9040
60C0
6040
2000
ENDCHAR
STARTCHAR 3044
ENCODING 12356
SWIDTH 1000 0
DWIDTH 16 0
BBX 14 12 1 0
BITMAP
8000
4000
4030
4010
4008
400C
4404
4404
280C
280C
3000
3000
ENDCHAR
STARTCHAR 3045
ENCODING 12357
SWIDTH 1000 0
DWIDTH 16 0
BBX 6 12 5 -2
BITMAP
30
18
00
00
FC
C4
04
04
0C
0C
10
20
ENDCHAR
STARTCHAR 3046
ENCODING 12358
SWIDTH 1000 0
DWIDTH 16 0
BBX 8 16 4 -2
BITMAP
20
18
06
00
00
1C
E0
81
01
01
01
01
02
06
18
60
ENDCHAR
STARTCHAR 3047
ENCODING 12359
SWIDTH 1000 0
DWIDTH 16 0
BBX 9 12 4 -2
BITMAP
0800
0600
0000
0400
3E00
2400
1800
1000
7000
4800
8780
0780
ENDCHAR
STARTCHAR 3048
ENCODING 12360
SWIDTH 1000 0
DWIDTH 16 0
BBX 12 15 2 -1
BITMAP
0600
0100
0000
0100
2780
1900
0200
0400
0000
1800
1000
6C00
6400
83F0
01F0
ENDCHAR
STARTCHAR 3049
ENCODING 12361
SWIDTH 1000 0
DWIDTH 16 0
BBX 11 11 2 -1
BITMAP
1800
10C0
1620
3840
1000
1740
1860
3060
F060
5380
1000
ENDCHAR
STARTCHAR 304A
ENCODING 12362
SWIDTH 1000 0
DWIDTH 16 0
BBX 14 14 1 -2
BITMAP
1000
0800
0830
0B0C
CF0C
3010
1000
13F0
1408
180C
300C
D008
D018
18E0
ENDCHAR
STARTCHAR 304B
ENCODING 12363
SWIDTH 1000 0
DWIDTH 16 0
BBX 15 15 1 -2
BITMAP
0800
0C00
0C00
0830
0F08
D084
D084
1086
309E
2080
2100
4100
C300
8600
0400
ENDCHAR
STARTCHAR 304C
ENCODING 12364
SWIDTH 1000 0
DWIDTH 16 0
BBX 15 16 1 -2
BITMAP
0004
0802
0C18
0C08
0820
0F10
D08C
D08C
108C
309C
2080
2100
4100
C300
8600
0400
ENDCHAR
STARTCHAR 304D
ENCODING 12365
SWIDTH 1000 0
DWIDTH 16 0
BBX 11 16 2 -2
BITMAP
1800
1800
0980
8700
7E00
0260
0780
7900
0080
0040
2DE0
4060
8000
4000
3F00
1F00
ENDCHAR
STARTCHAR 304E
ENCODING 12366
SWIDTH 1000 0
DWIDTH 16 0
BBX 14 16 2 -2
BITMAP
1808
1804
09B0
8710
7E00
0260
0780
7900
0080
0040
2DE0
4060
8000
4000
3F00
1F00
ENDCHAR
STARTCHAR 304F
ENCODING 12367
SWIDTH 1000 0
DWIDTH 16 0
BBX 9 15 3 -1
BITMAP
0080
0300
0300
0C00
1000
E000
8000
8000
4000
3000
0800
0600
0300
0100
0180
ENDCHAR
STARTCHAR 3050
ENCODING 12368
SWIDTH 1000 0
DWIDTH 16 0
BBX 13 16 3 -2
BITMAP
0100
0100
0318
0648
0820
1000
E000
8000
8000
4000
3000
0800
0400
0200
0300
0300
ENDCHAR
STARTCHAR 3051
ENCODING 12369
SWIDTH 1000 0
DWIDTH 16 0
BBX 15 15 1 -2
BITMAP
40C0
2030
2030
4034
447E
43B0
C030
D030
D030
E020
E020
4020
4040
0040
0080
ENDCHAR
STARTCHAR 3052
ENCODING 12370
SWIDTH 1000 0
DWIDTH 16 0
BBX 15 16 1 -2
BITMAP
0004
C002
41D8
4048
C040
C04C
8FF0
8440
A040
A040
C040
C0C0
C0C0
C080
4000
0100
ENDCHAR
STARTCHAR 3053
ENCODING 12371
SWIDTH 1000 0
DWIDTH 16 0
BBX 11 13 2 -1
BITMAP
3C00
0FC0
0600
0800
0000
0000
0000
0000
8000
8000
8000
4000
3FE0
ENDCHAR
STARTCHAR 3054
ENCODING 12372
SWIDTH 1000 0
DWIDTH 16 0
BBX 14 15 2 -1
BITMAP
0008
0004
3C30
0F90
0600
0800
0000
0000
0000
0000
8000
8000
8000
4000
3FE0
ENDCHAR
STARTCHAR 3055
ENCODING 12373
SWIDTH 1000 0
DWIDTH 16 0
BBX 11 16 2 -2
BITMAP
1800
1800
08E0
04C0
FF00
3100
0080
0040
0760
19E0
6020
8000
4000
6000
1F80
0380
ENDCHAR
STARTCHAR 3056
ENCODING 12374
SWIDTH 1000 0
DWIDTH 16 0
BBX 14 16 2 -2
BITMAP
1808
3004
19B0
0990
FE00
3200
0180
0080
0640
19E0
6040
8000
4000
6000
1F80
0380
ENDCHAR
STARTCHAR 3057
ENCODING 12375
SWIDTH 1000 0
DWIDTH 16 0
BBX 12 16 3 -2
BITMAP
C000
4000
6000
6000
4000
4000
4000
4000
4000
4000
4000
4010
4060
40C0
3F00
1C00
ENDCHAR
STARTCHAR 3058
ENCODING 12376
SWIDTH 1000 0
DWIDTH 16 0
BBX 12 16 3 -2
BITMAP
C000
4000
6100
6080
4600
4200
4000
4000
4000
4000
4000
4010
4060
40C0
3F00
1C00
ENDCHAR
STARTCHAR 3059
ENCODING 12377
SWIDTH 1000 0
DWIDTH 16 0
BBX 16 16 0 -2
BITMAP
0180
00C0
0040
0040
8FBF
7880
0380
0480
0840
0840
0440
07C0
0080
0080
0100
0200
ENDCHAR
STARTCHAR 305A
ENCODING 12378
SWIDTH 1000 0
DWIDTH 16 0
BBX 16 16 0 -2
BITMAP
0182
00C1
004C
0044
8FFE
7887
0380
0480
0840
0840
0440
07C0
0080
0080
0100
0200
ENDCHAR
STARTCHAR 305B
ENCODING 12379
SWIDTH 1000 0
DWIDTH 16 0
BBX 16 16 0 -2
BITMAP
0060
0020
1830
0820
0820
0826
1FF9
E820
0820
0860
08C0
0840
0800
0400
03F8
01F8
ENDCHAR
STARTCHAR 305C
ENCODING 12380
SWIDTH 1000 0
DWIDTH 16 0
BBX 16 16 0 -2
BITMAP
0002
0041
186C
0864
0860
0866
1FF8
E860
0840
0840
0980
0880
0800
0400
03F8
01F8
ENDCHAR
STARTCHAR 305D
ENCODING 12381
SWIDTH 1000 0
DWIDTH 16 0
BBX 14 15 1 -2
BITMAP
00C0
0EC0
0880
0300
0200
0878
03FC
3D00
E200
0400
0400
0400
0400
0380
01C0
ENDCHAR
STARTCHAR 305E
ENCODING 12382
SWIDTH 1000 0
DWIDTH 16 0
BBX 15 15 1 -2
BITMAP
00C0
0EC6
0892
0308
0200
0878
03FC
3D00
E200
0400
0400
0400
0400
0380
01C0
ENDCHAR
STARTCHAR 305F
ENCODING 12383
SWIDTH 1000 0
DWIDTH 16 0
BBX 14 15 1 -2
BITMAP
0800
0C00
0900
0E00
F860
101C
100C
2000
2000
4000
4200
C400
C200
01FC
007C
ENDCHAR
STARTCHAR 3060
ENCODING 12384
SWIDTH 1000 0
DWIDTH 16 0
BBX 15 16 1 -2
BITMAP
0004
0802
0C18
0908
0E00
F860
101C
100C
2000
2000
4000
4200
C400
C200
01FC
007C
ENDCHAR
STARTCHAR 3061
ENCODING 12385
SWIDTH 1000 0
DWIDTH 16 0
BBX 14 16 1 -2
BITMAP
0800
0C00
0800
0880
FF00
4800
1000
1000
13F0
1608
300C
300C
0018
0030
00C0
0300
ENDCHAR
STARTCHAR 3062
ENCODING 12386
SWIDTH 1000 0
DWIDTH 16 0
BBX 15 16 1 -2
BITMAP
0800
0C00
0806
0892
FF08
4800
1000
1000
13F0
1608
300C
300C
0018
0030
00C0
0300
ENDCHAR
STARTCHAR 3063
ENCODING 12387
SWIDTH 1000 0
DWIDTH 16 0
BBX 11 8 2 0
BITMAP
0380
0E40
F020
4020
0020
0060
0040
0380
ENDCHAR
STARTCHAR 3064
ENCODING 12388
SWIDTH 1000 0
DWIDTH 16 0
BBX 15 10 0 0
BITMAP
07F8
0E04
F002
6002
0002
0006
0006
000C
0030
0160
ENDCHAR
STARTCHAR 3065
ENCODING 12389
SWIDTH 1000 0
DWIDTH 16 0
BBX 16 14 0 0
BITMAP
0002
0001
000C
0004
07F8
0E08
F004
6006
0006
0006
000C
0018
0060
03C0
ENDCHAR
STARTCHAR 3066
ENCODING 12390
SWIDTH 1000 0
DWIDTH 16 0
BBX 13 14 1 -2
BITMAP
03F8
8EC0
F100
4200
0400
0400
0800
0800
0800
0C00
0400
0300
00E0
0060
ENDCHAR
STARTCHAR 3067
ENCODING 12391
SWIDTH 1000 0
DWIDTH 16 0
BBX 15 14 1 -2
BITMAP
03F0
8EC0
F106
4212
0408
0400
0800
0800
0800
0C00
0400
0300
00E0
0060
ENDCHAR
STARTCHAR 3068
ENCODING 12392
SWIDTH 1000 0
DWIDTH 16 0
BBX 10 15 3 -2
BITMAP
4000
3000
2000
2000
2000
2380
2F00
3000
2000
C000
8000
8000
8000
7FC0
3F00
ENDCHAR
STARTCHAR 3069
ENCODING 12393
SWIDTH 1000 0
DWIDTH 16 0
BBX 12 15 3 -2
BITMAP
4030
30D0
2040
2000
2000
2380
2F00
3000
2000
C000
8000
8000
8000
7FC0
3F00
ENDCHAR
STARTCHAR 306A
ENCODING 12394
SWIDTH 1000 0
DWIDTH 16 0
BBX 14 16 1 -2
BITMAP
0400
0200
0400
8D00
FA80
1030
101C
3024
4040
C080
8080
0080
0F80
00C0
10B0
0F10
ENDCHAR
STARTCHAR 306B
ENCODING 12395
SWIDTH 1000 0
DWIDTH 16 0
BBX 14 14 1 -2
BITMAP
4000
2000
2070
439C
4030
4000
4000
C000
D000
D200
D400
6200
63FC
2000
ENDCHAR
STARTCHAR 306C
ENCODING 12396
SWIDTH 1000 0
DWIDTH 16 0
BBX 15 14 0 -1
BITMAP
0200
0180
2100
21E0
2718
3A06
2206
6602
5402
9806
8806
94FC
208E
0072
ENDCHAR
STARTCHAR 306D
ENCODING 12397
SWIDTH 1000 0
DWIDTH 16 0
BBX 14 16 1 -2
BITMAP
3000
1000
0800
0800
1000
38E0
D718
1808
300C
300C
500C
500C
D1F8
D11C
30E4
3000
ENDCHAR
STARTCHAR 306E
ENCODING 12398
SWIDTH 1000 0
DWIDTH 16 0
BBX 14 13 1 -1
BITMAP
03C0
0F20
3118
210C
4304
8204
0404
8404
8804
900C
E008
4010
00E0
ENDCHAR
STARTCHAR 306F
ENCODING 12399
SWIDTH 1000 0
DWIDTH 16 0
BBX 14 15 1 -2
BITMAP
C040
6030
4030
4020
C02C
C1F0
C020
8020
A020
A030
A030
C3F0
C43C
43E4
41C0
ENDCHAR
STARTCHAR 3070
ENCODING 12400
SWIDTH 1000 0
DWIDTH 16 0
BBX 15 16 1 -2
BITMAP
0004
C002
60D8
4048
4040
C858
C7E0
C040
8040
A040
A040
A040
C7E0
C870
47C8
4300
ENDCHAR
STARTCHAR 3071
ENCODING 12401
SWIDTH 1000 0
DWIDTH 16 0
BBX 15 15 1 -2
BITMAP
C000
60DE
4052
404C
C850
C7E0
C040
8040
A040
A040
A040
C7E0
C870
47C8
4300
ENDCHAR
STARTCHAR 3072
ENCODING 12402
SWIDTH 1000 0
DWIDTH 16 0
BBX 15 14 1 -2
BITMAP
1C30
BC30
5030
1030
2028
2048
404C
4046
4040
40C0
4080
4100
3E00
0C00
ENDCHAR
STARTCHAR 3073
ENCODING 12403
SWIDTH 1000 0
DWIDTH 16 0
BBX 16 16 0 -2
BITMAP
0002
0001
1C2C
BC24
5820
1030
2038
2038
202C
6026
6040
6040
6080
2180
1E00
0C00
ENDCHAR
STARTCHAR 3074
ENCODING 12404
SWIDTH 1000 0
DWIDTH 16 0
BBX 16 14 0 -2
BITMAP
1C2F
BC29
5826
1030
2038
2038
202C
6026
6040
6040
6080
2180
1E00
0C00
ENDCHAR
STARTCHAR 3075
ENCODING 12405
SWIDTH 1000 0
DWIDTH 16 0
BBX 16 14 0 -1
BITMAP
0200
0100
0180
0080
0100
0200
0200
0000
0100
03FE
0482
B887
6082
4380
ENDCHAR
STARTCHAR 3076
ENCODING 12406
SWIDTH 1000 0
DWIDTH 16 0
BBX 16 14 0 -1
BITMAP
0200
0100
0186
009A
0108
0200
0200
0000
0100
03FE
0482
B887
6082
4380
ENDCHAR
STARTCHAR 3077
ENCODING 12407
SWIDTH 1000 0
DWIDTH 16 0
BBX 16 14 0 -1
BITMAP
0200
0100
0180
008C
0112
0212
020C
0000
0100
03FE
0482
B887
6082
4380
ENDCHAR
STARTCHAR 3078
ENCODING 12408
SWIDTH 1000 0
DWIDTH 16 0
BBX 16 11 0 0
BITMAP
0C00
1200
1000
2180
2080
E060
E020
0018
000C
0007
0001
ENDCHAR
STARTCHAR 3079
ENCODING 12409
SWIDTH 1000 0
DWIDTH 16 0
BBX 16 13 0 0
BITMAP
0018
0068
0C20
1200
1000
2180
2080
E060
E020
0018
000C
0007
0001
ENDCHAR
STARTCHAR 307A
ENCODING 12410
SWIDTH 1000 0
DWIDTH 16 0
BBX 16 12 0 0
BITMAP
0018
0C24
1224
1018
2180
2080
E060
E020
0018
000C
0007
0001
ENDCHAR
STARTCHAR 307B
ENCODING 12411
SWIDTH 1000 0
DWIDTH 16 0
BBX 14 15 1 -2
BITMAP
C000
63FC
4020
4030
C030
C078
C3F0
8030
A030
A030
A030
C3F0
C43C
43E4
40C0
ENDCHAR
STARTCHAR 307C
ENCODING 12412
SWIDTH 1000 0
DWIDTH 16 0
BBX 15 15 1 -2
BITMAP
C000
6FF6
40C2
404C
C04C
C070
CFF0
8040
A040
A040
A040
C7E0
C870
47C8
4300
ENDCHAR
STARTCHAR 307D
ENCODING 12413
SWIDTH 1000 0
DWIDTH 16 0
BBX 15 16 1 -2
BITMAP
000C
C012
6FF2
40CC
4040
C040
C1F0
CF40
8040
A040
A040
A040
C7E0
C870
47C8
4300
ENDCHAR
STARTCHAR 307E
ENCODING 12414
SWIDTH 1000 0
DWIDTH 16 0
BBX 11 16 2 -2
BITMAP
0600
0200
0300
0200
7FC0
6200
0240
03C0
3E00
0200
0200
0200
7F80
82E0
7E20
3800
ENDCHAR
STARTCHAR 307F
ENCODING 12415
SWIDTH 1000 0
DWIDTH 16 0
BBX 14 12 1 -1
BITMAP
3F80
1180
0300
0220
0410
0410
1FB0
28F0
D03C
B02C
C040
C0C0
ENDCHAR
STARTCHAR 3080
ENCODING 12416
SWIDTH 1000 0
DWIDTH 16 0
BBX 14 15 1 -2
BITMAP
3000
1000
1300
FC10
D028
1024
3024
902C
9020
5010
3010
2010
2030
1FF0
0FC0
ENDCHAR
STARTCHAR 3081
ENCODING 12417
SWIDTH 1000 0
DWIDTH 16 0
BBX 15 14 0 -1
BITMAP
0180
4080
6080
21E0
2798
1906
3206
5202
9E02
8C06
8C06
9204
6008
0070
ENDCHAR
STARTCHAR 3082
ENCODING 12418
SWIDTH 1000 0
DWIDTH 16 0
BBX 10 16 3 -2
BITMAP
3000
1000
1800
1000
D000
3000
2000
E000
4000
F080
4C40
4040
4040
40C0
3F80
0F00
ENDCHAR
STARTCHAR 3083
ENCODING 12419
SWIDTH 1000 0
DWIDTH 16 0
BBX 12 12 1 -2
BITMAP
0300
0F00
10E0
1330
9C10
7C30
0240
0200
0100
0100
0080
0080
ENDCHAR
STARTCHAR 3084
ENCODING 12420
SWIDTH 1000 0
DWIDTH 16 0
BBX 16 16 0 -2
BITMAP
0100
0080
1FC0
2080
10FE
1B02
1C01
B403
627E
0218
0180
0180
0080
00C0
0060
0060
ENDCHAR
STARTCHAR 3085
ENCODING 12421
SWIDTH 1000 0
DWIDTH 16 0
BBX 10 12 3 -2
BITMAP
0C00
0400
5F80
92C0
A240
D240
D240
D240
4C80
0300
0400
0800
ENDCHAR
STARTCHAR 3086
ENCODING 12422
SWIDTH 1000 0
DWIDTH 16 0
BBX 14 15 1 -2
BITMAP
0300
8C80
C9E0
D698
C8CC
90C4
B0C4
C8C4
C8CC
C488
C0B0
41C0
0100
0200
0400
ENDCHAR
STARTCHAR 3087
ENCODING 12423
SWIDTH 1000 0
DWIDTH 16 0
BBX 8 12 4 -2
BITMAP
10
08
08
09
0E
08
08
08
78
8E
19
70
ENDCHAR
STARTCHAR 3088
ENCODING 12424
SWIDTH 1000 0
DWIDTH 16 0
BBX 11 16 2 -2
BITMAP
0800
0600
0600
0600
0660
07E0
0600
0600
0600
0600
0600
0600
7F80
86E0
8C20
7800
ENDCHAR
STARTCHAR 3089
ENCODING 12425
SWIDTH 1000 0
DWIDTH 16 0
BBX 11 16 3 -2
BITMAP
1000
1000
0C00
0C00
6000
0000
4000
4000
4300
CCC0
F020
C020
8060
0040
0380
0C00
ENDCHAR
STARTCHAR 308A
ENCODING 12426
SWIDTH 1000 0
DWIDTH 16 0
BBX 9 16 4 -2
BITMAP
8000
8000
9E00
A100
A180
A180
C180
8180
8180
8180
0100
0100
0200
0200
0400
1800
ENDCHAR
STARTCHAR 308B
ENCODING 12427
SWIDTH 1000 0
DWIDTH 16 0
BBX 11 15 2 -2
BITMAP
0200
3D80
1300
0600
0400
1800
1000
3BC0
3060
6020
C020
1E20
2260
1180
0E00
ENDCHAR
STARTCHAR 308C
ENCODING 12428
SWIDTH 1000 0
DWIDTH 16 0
BBX 16 16 0 -2
BITMAP
1800
0800
0C00
0800
09C0
9A10
6C10
1810
1820
1020
3020
7020
5820
F831
180E
1000
ENDCHAR
STARTCHAR 308D
ENCODING 12429
SWIDTH 1000 0
DWIDTH 16 0
BBX 13 15 1 -2
BITMAP
1100
0E80
0100
0200
0400
0C00
09C0
3E10
3008
C008
C008
0010
0030
00C0
0700
ENDCHAR
STARTCHAR 308E
ENCODING 12430
SWIDTH 1000 0
DWIDTH 16 0
BBX 10 12 3 -2
BITMAP
1000
1000
1000
3000
6E80
20C0
2040
6040
A0C0
E0C0
3300
3000
ENDCHAR
STARTCHAR 308F
ENCODING 12431
SWIDTH 1000 0
DWIDTH 16 0
BBX 14 16 1 -2
BITMAP
0800
0C00
0C00
0C00
0800
0C00
7CF8
0B0C
1C04
1804
2804
480C
EC08
DC10
0CE0
0800
ENDCHAR
STARTCHAR 3090
ENCODING 12432
SWIDTH 1000 0
DWIDTH 16 0
BBX 14 14 1 -1
BITMAP
2300
1D00
0300
0200
0200
05C0
0E30
3808
4808
900C
900C
E3A8
6230
01C0
ENDCHAR
STARTCHAR 3091
ENCODING 12433
SWIDTH 1000 0
DWIDTH 16 0
BBX 14 16 1 -2
BITMAP
0080
13C0
0D00
0100
02C0
0720
0830
3030
0F20
0940
0680
0800
30F8
288C
C71C
8204
ENDCHAR
STARTCHAR 3092
ENCODING 12434
SWIDTH 1000 0
DWIDTH 16 0
BBX 12 16 2 -2
BITMAP
0800
0400
8900
7F80
1800
1000
2830
7470
C780
8600
1E00
2600
4000
4000
3FC0
1FC0
ENDCHAR
STARTCHAR 3093
ENCODING 12435
SWIDTH 1000 0
DWIDTH 16 0
BBX 14 15 1 -2
BITMAP
0300
0300
0300
0200
0400
0C00
0800
1000
1600
3B00
2304
410C
C108
81F0
80C0
ENDCHAR
STARTCHAR 3094
ENCODING 12436
SWIDTH 1000 0
DWIDTH 16 0
BBX 11 16 4 -2
BITMAP
2000
1860
07A0
0080
0000
1C00
E000
8100
0100
0100
0100
0100
0200
0600
1800
6000
ENDCHAR
STARTCHAR 3095
ENCODING 12437
SWIDTH 1000 0
DWIDTH 16 0
BBX 12 12 2 -2
BITMAP
0800
0C00
0880
9E40
5920
1130
1170
2100
6100
6100
4E00
0600
ENDCHAR
STARTCHAR 3096
ENCODING 12438
SWIDTH 1000 0
DWIDTH 16 0
BBX 11 12 3 -2
BITMAP
4300
4100
D100
CFE0
8100
8100
A100
C100
C300
C200
0000
0400
ENDCHAR
STARTCHAR 309B
ENCODING 12443
SWIDTH 1000 0
DWIDTH 16 0
BBX 4 4 0 10
BITMAP
20
10
C0
40
ENDCHAR
STARTCHAR 309C
ENCODING 12444
SWIDTH 1000 0
DWIDTH 16 0
BBX 3 3 1 9
BITMAP
E0
A0
C0
ENDCHAR
STARTCHAR 309D
ENCODING 12445
SWIDTH 1000 0
DWIDTH 16 0
BBX 6 6 5 4
BITMAP
80
40
30
30
0C
7C
ENDCHAR
STARTCHAR 309E
ENCODING 12446
SWIDTH 1000 0
DWIDTH 16 0
BBX 8 8 5 3
BITMAP
03
0D
84
40
30
18
0C
78
ENDCHAR
STARTCHAR 309F
ENCODING 12447
SWIDTH 1000 0
DWIDTH 16 0
BBX 13 16 2 -2
BITMAP
0180
0080
0180
0180
0390
06F8
0400
0C00
1F80
18C0
3060
6060
4860
C840
8480
0780
ENDCHAR
STARTCHAR 30A0
ENCODING 12448
SWIDTH 1000 0
DWIDTH 16 0
BBX 4 3 6 4
BITMAP
F0
00
F0
ENDCHAR
STARTCHAR 30A1
ENCODING 12449
SWIDTH 1000 0
DWIDTH 16 0
BBX 10 10 3 -2
BITMAP
0080
FFC0
C0C0
0E00
0C00
0800
0800
1000
1000
2000
ENDCHAR
STARTCHAR 30A2
ENCODING 12450
SWIDTH 1000 0
DWIDTH 16 0
BBX 14 14 1 -2
BITMAP
8FFC
FC0C
0238
0320
0180
0100
0300
0200
0400
0400
0C00
0800
1000
2000
ENDCHAR
STARTCHAR 30A3
ENCODING 12451
SWIDTH 1000 0
DWIDTH 16 0
BBX 7 11 4 -2
BITMAP
02
02
06
04
18
18
68
88
08
08
08
ENDCHAR
STARTCHAR 30A4
ENCODING 12452
SWIDTH 1000 0
DWIDTH 16 0
BBX 9 16 3 -2
BITMAP
0100
0100
0380
0300
0600
0C00
1C00
3400
4400
8400
0400
0400
0400
0400
0400
0400
ENDCHAR
STARTCHAR 30A5
ENCODING 12453
SWIDTH 1000 0
DWIDTH 16 0
BBX 9 10 4 -1
BITMAP
1800
9F80
7180
8180
8100
0200
0200
0400
0800
1000
ENDCHAR
STARTCHAR 30A6
ENCODING 12454
SWIDTH 1000 0
DWIDTH 16 0
BBX 13 14 2 -2
BITMAP
0C00
0600
0600
FFF0
7038
4020
4060
4060
4040
0080
0080
0100
0000
0400
ENDCHAR
STARTCHAR 30A7
ENCODING 12455
SWIDTH 1000 0
DWIDTH 16 0
BBX 11 8 2 -1
BITMAP
2180
1E40
0600
0600
0600
0400
8440
7BA0
ENDCHAR
STARTCHAR 30A8
ENCODING 12456
SWIDTH 1000 0
DWIDTH 16 0
BBX 15 11 0 0
BITMAP
2018
1FE8
0180
0180
0180
0180
0180
0100
0100
FFFE
7006
ENDCHAR
STARTCHAR 30A9
ENCODING 12457
SWIDTH 1000 0
DWIDTH 16 0
BBX 10 12 3 -2
BITMAP
0800
0400
04C0
9FC0
6C00
0C00
1400
3400
4400
8400
0C00
0400
ENDCHAR
STARTCHAR 30AA
ENCODING 12458
SWIDTH 1000 0
DWIDTH 16 0
BBX 14 15 1 -2
BITMAP
0100
00C0
00C0
00FC
8FFC
71C0
03C0
02C0
04C0
08C0
10C0
40C0
80C0
01C0
00C0
ENDCHAR
STARTCHAR 30AB
ENCODING 12459
SWIDTH 1000 0
DWIDTH 16 0
BBX 12 15 2 -2
BITMAP
0600
0300
0200
0620
8FE0
7430
0820
1860
1860
1040
2040
4080
8880
0780
0180
ENDCHAR
STARTCHAR 30AC
ENCODING 12460
SWIDTH 1000 0
DWIDTH 16 0
BBX 14 16 2 -2
BITMAP
0008
0604
0330
0210
0620
8FE0
7430
0820
1860
1860
1040
2040
4080
8880
0780
0180
ENDCHAR
STARTCHAR 30AD
ENCODING 12461
SWIDTH 1000 0
DWIDTH 16 0
BBX 13 15 1 -2
BITMAP
0800
0400
0460
0780
8C00
7200
0218
03E0
8F00
7100
0100
0080
0080
00C0
00C0
ENDCHAR
STARTCHAR 30AE
ENCODING 12462
SWIDTH 1000 0
DWIDTH 16 0
BBX 15 16 1 -2
BITMAP
0004
0802
0418
0448
07A0
8C00
7200
0218
03E0
8F00
7100
0100
0080
0080
00C0
00C0
ENDCHAR
STARTCHAR 30AF
ENCODING 12463
SWIDTH 1000 0
DWIDTH 16 0
BBX 11 15 2 -2
BITMAP
0800
0440
0FE0
1860
1860
60C0
0080
0180
0300
0600
0400
1800
1000
6000
8000
ENDCHAR
STARTCHAR 30B0
ENCODING 12464
SWIDTH 1000 0
DWIDTH 16 0
BBX 15 16 1 -2
BITMAP
0004
0002
0618
0448
0FB0
0C30
3040
20C0
8180
0300
0200
0400
0800
1000
2000
C000
ENDCHAR
STARTCHAR 30B1
ENCODING 12465
SWIDTH 1000 0
DWIDTH 16 0
BBX 13 15 2 -2
BITMAP
1800
0800
1800
1078
3FF8
4180
8180
0100
0100
0200
0600
0800
1800
2000
4000
ENDCHAR
STARTCHAR 30B2
ENCODING 12466
SWIDTH 1000 0
DWIDTH 16 0
BBX 14 16 2 -2
BITMAP
0008
1804
0830
1810
1000
2078
4F80
8180
0100
0100
0200
0600
0800
1800
2000
4000
ENDCHAR
STARTCHAR 30B3
ENCODING 12467
SWIDTH 1000 0
DWIDTH 16 0
BBX 12 11 2 0
BITMAP
0060
FFB0
6020
0060
0060
0060
0060
0040
0040
7FE0
7860
ENDCHAR
STARTCHAR 30B4
ENCODING 12468
SWIDTH 1000 0
DWIDTH 16 0
BBX 14 14 2 0
BITMAP
0008
0004
0030
0010
8FE0
7C60
0060
0060
0040
0040
0080
0080
7FC0
7840
ENDCHAR
STARTCHAR 30B5
ENCODING 12469
SWIDTH 1000 0
DWIDTH 16 0
BBX 16 14 0 -2
BITMAP
0040
0830
0420
0426
85FF
7E20
0420
0460
0460
0060
0040
0080
0080
0100
ENDCHAR
STARTCHAR 30B6
ENCODING 12470
SWIDTH 1000 0
DWIDTH 16 0
BBX 16 16 0 -2
BITMAP
0002
0081
086C
0464
0460
0466
FFF8
6460
0460
0440
0040
0080
0080
0180
0000
0200
ENDCHAR
STARTCHAR 30B7
ENCODING 12471
SWIDTH 1000 0
DWIDTH 16 0
BBX 13 13 2 -1
BITMAP
3000
1800
0000
0000
8008
6010
1060
0040
0180
0300
9C00
F800
6000
ENDCHAR
STARTCHAR 30B8
ENCODING 12472
SWIDTH 1000 0
DWIDTH 16 0
BBX 14 15 2 -1
BITMAP
0008
0004
3030
1810
0000
0000
8008
6010
1060
0040
0180
0300
9C00
F800
6000
ENDCHAR
STARTCHAR 30B9
ENCODING 12473
SWIDTH 1000 0
DWIDTH 16 0
BBX 14 12 1 0
BITMAP
0040
23E0
1C60
0040
00C0
0080
0100
0300
0440
0C30
3018
C00C
ENDCHAR
STARTCHAR 30BA
ENCODING 12474
SWIDTH 1000 0
DWIDTH 16 0
BBX 15 14 1 0
BITMAP
0004
0002
00D8
43C8
3C60
00C0
00C0
0080
0100
0300
04C0
0C30
3018
C00C
ENDCHAR
STARTCHAR 30BB
ENCODING 12475
SWIDTH 1000 0
DWIDTH 16 0
BBX 14 12 1 0
BITMAP
0C00
0C00
0C00
0C30
0FDC
3C30
CC40
0C80
0C00
0C00
0600
03F8
ENDCHAR
STARTCHAR 30BC
ENCODING 12476
SWIDTH 1000 0
DWIDTH 16 0
BBX 15 14 1 0
BITMAP
0004
0002
0C18
0C08
0C00
0C30
0FDC
3C30
CC40
0C80
0C00
0C00
0600
03F8
ENDCHAR
STARTCHAR 30BD
ENCODING 12477
SWIDTH 1000 0
DWIDTH 16 0
BBX 12 13 2 -2
BITMAP
0020
8030
6060
6060
3040
10C0
0180
0180
0200
0200
0400
0000
1000
ENDCHAR
STARTCHAR 30BE
ENCODING 12478
SWIDTH 1000 0
DWIDTH 16 0
BBX 15 16 1 -2
BITMAP
0004
0002
00D8
8048
4060
6040
30C0
3080
0100
0100
0200
0200
0400
0800
1000
2000
ENDCHAR
STARTCHAR 30BF
ENCODING 12479
SWIDTH 1000 0
DWIDTH 16 0
BBX 12 15 2 -2
BITMAP
0400
0660
07E0
0830
1860
2840
64C0
8780
0180
0200
0600
0800
1800
6000
8000
ENDCHAR
STARTCHAR 30C0
ENCODING 12480
SWIDTH 1000 0
DWIDTH 16 0
BBX 15 16 1 -2
BITMAP
0004
0402
0218
0448
0FB0
0820
3C40
24C0
4280
0100
0300
0200
0C00
0800
3000
C000
ENDCHAR
STARTCHAR 30C1
ENCODING 12481
SWIDTH 1000 0
DWIDTH 16 0
BBX 14 15 1 -2
BITMAP
0080
01C0
0380
3500
0100
0138
8FFC
7100
0100
0300
0300
0200
0200
0400
0800
ENDCHAR
STARTCHAR 30C2
ENCODING 12482
SWIDTH 1000 0
DWIDTH 16 0
BBX 15 16 1 -2
BITMAP
0004
0082
01D8
0388
3500
0100
0138
8FFC
7100
0100
0300
0300
0200
0200
0400
0800
ENDCHAR
STARTCHAR 30C3
ENCODING 12483
SWIDTH 1000 0
DWIDTH 16 0
BBX 10 9 3 -2
BITMAP
0080
88C0
4CC0
4480
0100
0100
0200
0000
0800
ENDCHAR
STARTCHAR 30C4
ENCODING 12484
SWIDTH 1000 0
DWIDTH 16 0
BBX 12 14 2 -2
BITMAP
0820
0810
8410
8430
4020
4060
0040
0040
0080
0180
0200
0600
0800
1000
ENDCHAR
STARTCHAR 30C5
ENCODING 12485
SWIDTH 1000 0
DWIDTH 16 0
BBX 15 16 1 -2
BITMAP
0004
0002
00D8
0848
8C60
CC40
40C0
40C0
0080
0100
0300
0300
0400
0C00
1000
2000
ENDCHAR
STARTCHAR 30C6
ENCODING 12486
SWIDTH 1000 0
DWIDTH 16 0
BBX 14 14 1 -2
BITMAP
1FF0
0C00
0000
0000
0FFC
FD0C
0100
0100
0300
0300
0200
0400
0400
0800
ENDCHAR
STARTCHAR 30C7
ENCODING 12487
SWIDTH 1000 0
DWIDTH 16 0
BBX 15 16 1 -2
BITMAP
0004
0002
1FD8
0C08
0000
0000
0FFC
FD0C
0100
0100
0300
0300
0200
0400
0400
0800
ENDCHAR
STARTCHAR 30C8
ENCODING 12488
SWIDTH 1000 0
DWIDTH 16 0
BBX 9 15 4 -2
BITMAP
8000
6000
6000
6000
6000
7000
6C00
6380
6180
6000
6000
6000
6000
6000
4000
ENDCHAR
STARTCHAR 30C9
ENCODING 12489
SWIDTH 1000 0
DWIDTH 16 0
BBX 10 15 4 -2
BITMAP
8000
60C0
6240
6100
6000
7000
6C00
6380
6180
6000
6000
6000
6000
6000
4000
ENDCHAR
STARTCHAR 30CA
ENCODING 12490
SWIDTH 1000 0
DWIDTH 16 0
BBX 14 14 1 -2
BITMAP
0200
0100
0100
0100
0138
FFCC
6100
0300
0300
0300
0200
0400
0400
0800
ENDCHAR
STARTCHAR 30CB
ENCODING 12491
SWIDTH 1000 0
DWIDTH 16 0
BBX 14 10 1 1
BITMAP
40C0
3F30
0000
0000
0000
0000
0000
0000
81F0
7E0C
ENDCHAR
STARTCHAR 30CC
ENCODING 12492
SWIDTH 1000 0
DWIDTH 16 0
BBX 12 14 1 -2
BITMAP
1030
0FF0
0020
0060
10C0
0CC0
0300
0180
02C0
0240
0C20
0800
3000
C000
ENDCHAR
STARTCHAR 30CD
ENCODING 12493
SWIDTH 1000 0
DWIDTH 16 0
BBX 12 16 3 -2
BITMAP
0800
0C00
0200
0000
1F80
F300
0600
0C00
14C0
3460
4430
8410
0400
0400
0400
0400
ENDCHAR
STARTCHAR 30CE
ENCODING 12494
SWIDTH 1000 0
DWIDTH 16 0
BBX 12 13 2 -1
BITMAP
0020
0030
0060
0060
00C0
0080
0180
0100
0600
0400
1800
1000
C000
ENDCHAR
STARTCHAR 30CF
ENCODING 12495
SWIDTH 1000 0
DWIDTH 16 0
BBX 15 10 0 1
BITMAP
0800
0420
0420
0818
0808
1804
1006
2006
2002
8002
ENDCHAR
STARTCHAR 30D0
ENCODING 12496
SWIDTH 1000 0
DWIDTH 16 0
BBX 16 13 0 1
BITMAP
0002
0001
000C
0804
0420
0420
0818
0808
1804
1006
2006
2002
8002
ENDCHAR
STARTCHAR 30D1
ENCODING 12497
SWIDTH 1000 0
DWIDTH 16 0
BBX 16 11 0 1
BITMAP
000F
0809
0426
0420
0818
0808
1804
1006
2006
2002
8002
ENDCHAR
STARTCHAR 30D2
ENCODING 12498
SWIDTH 1000 0
DWIDTH 16 0
BBX 11 13 2 0
BITMAP
8000
6000
6000
6000
6180
7E40
6000
6000
6000
6000
6000
3860
1FE0
ENDCHAR
STARTCHAR 30D3
ENCODING 12499
SWIDTH 1000 0
DWIDTH 16 0
BBX 14 14 2 0
BITMAP
0008
8004
6030
6010
6000
6180
7E40
6000
6000
6000
6000
6000
3860
1FE0
ENDCHAR
STARTCHAR 30D4
ENCODING 12500
SWIDTH 1000 0
DWIDTH 16 0
BBX 13 13 2 0
BITMAP
8000
6030
6028
6018
6180
7E40
6000
6000
6000
6000
6000
3860
1FE0
ENDCHAR
STARTCHAR 30D5
ENCODING 12501
SWIDTH 1000 0
DWIDTH 16 0
BBX 12 12 2 -1
BITMAP
81E0
7E30
0060
0060
0040
0080
0080
0100
0200
0400
0800
7000
ENDCHAR
STARTCHAR 30D6
ENCODING 12502
SWIDTH 1000 0
DWIDTH 16 0
BBX 15 15 1 -1
BITMAP
0004
0002
0018
80C8
7F30
0020
0040
0040
00C0
0080
0100
0300
0400
0C00
3000
ENDCHAR
STARTCHAR 30D7
ENCODING 12503
SWIDTH 1000 0
DWIDTH 16 0
BBX 15 13 1 -1
BITMAP
001E
81D2
7E6C
0040
00C0
00C0
0080
0100
0300
0200
0C00
0800
7000
ENDCHAR
STARTCHAR 30D8
ENCODING 12504
SWIDTH 1000 0
DWIDTH 16 0
BBX 16 11 0 0
BITMAP
0800
0E00
1A00
1180
2080
E060
4020
0018
000E
0003
0001
ENDCHAR
STARTCHAR 30D9
ENCODING 12505
SWIDTH 1000 0
DWIDTH 16 0
BBX 16 13 0 0
BITMAP
0018
0068
0820
0E00
1A00
1180
2080
E060
4020
0018
000E
0003
0001
ENDCHAR
STARTCHAR 30DA
ENCODING 12506
SWIDTH 1000 0
DWIDTH 16 0
BBX 16 12 0 0
BITMAP
0018
0828
0E20
1A18
1180
2080
E060
4020
0018
000E
0003
0001
ENDCHAR
STARTCHAR 30DB
ENCODING 12507
SWIDTH 1000 0
DWIDTH 16 0
BBX 14 15 1 -2
BITMAP
0200
0300
0300
0330
83FC
7F00
0300
0320
2310
2308
430C
C30C
CB00
0700
0200
ENDCHAR
STARTCHAR 30DC
ENCODING 12508
SWIDTH 1000 0
DWIDTH 16 0
BBX 15 16 1 -2
BITMAP
0004
0202
0318
0308
0330
83F8
7F00
0300
0320
2310
2308
430C
C30C
CB00
0700
0200
ENDCHAR
STARTCHAR 30DD
ENCODING 12509
SWIDTH 1000 0
DWIDTH 16 0
BBX 15 14 1 -2
BITMAP
0400
031E
0212
026C
87F0
7A00
0200
0200
4220
4210
4218
C208
8200
0600
ENDCHAR
STARTCHAR 30DE
ENCODING 12510
SWIDTH 1000 0
DWIDTH 16 0
BBX 14 11 1 0
BITMAP
0018
FFEC
700C
0010
0030
0040
0880
0700
0300
00C0
00C0
ENDCHAR
STARTCHAR 30DF
ENCODING 12511
SWIDTH 1000 0
DWIDTH 16 0
BBX 10 15 3 -2
BITMAP
4000
3C00
0F00
0080
0000
2000
3800
0780
0080
0000
8000
7000
1F00
01C0
00C0
ENDCHAR
STARTCHAR 30E0
ENCODING 12512
SWIDTH 1000 0
DWIDTH 16 0
BBX 14 12 1 0
BITMAP
0300
0300
0300
0200
0400
0400
0C40
0820
1010
1008
FFFC
F80C
ENDCHAR
STARTCHAR 30E1
ENCODING 12513
SWIDTH 1000 0
DWIDTH 16 0
BBX 12 13 1 -1
BITMAP
0030
0030
0020
1040
0AC0
03C0
01C0
03C0
0420
0C30
1000
3000
C000
ENDCHAR
STARTCHAR 30E2
ENCODING 12514
SWIDTH 1000 0
DWIDTH 16 0
BBX 13 13 1 -1
BITMAP
40C0
3FE0
0400
0400
0400
04F8
FF00
6400
0400
0400
0400
0700
01F8
ENDCHAR
STARTCHAR 30E3
ENCODING 12515
SWIDTH 1000 0
DWIDTH 16 0
BBX 13 11 1 -2
BITMAP
0C00
0C30
04F0
8F28
7400
0200
0200
0300
0100
0100
0100
ENDCHAR
STARTCHAR 30E4
ENCODING 12516
SWIDTH 1000 0
DWIDTH 16 0
BBX 16 15 0 -2
BITMAP
0400
0E00
0600
023E
03E3
9E06
7108
0110
0100
0180
0080
0080
0080
0040
0040
ENDCHAR
STARTCHAR 30E5
ENCODING 12517
SWIDTH 1000 0
DWIDTH 16 0
BBX 12 8 2 -1
BITMAP
0180
1F80
0180
0100
0100
0200
8FF0
7000
ENDCHAR
STARTCHAR 30E6
ENCODING 12518
SWIDTH 1000 0
DWIDTH 16 0
BBX 16 10 0 0
BITMAP
1FE0
0C60
0060
0060
0040
0040
0080
0080
FF7F
6000
ENDCHAR
STARTCHAR 30E7
ENCODING 12519
SWIDTH 1000 0
DWIDTH 16 0
BBX 8 10 4 -2
BITMAP
82
7F
02
02
7E
62
02
02
7E
60
ENDCHAR
STARTCHAR 30E8
ENCODING 12520
SWIDTH 1000 0
DWIDTH 16 0
BBX 11 12 2 0
BITMAP
81E0
7FE0
0060
0060
0060
03E0
3C40
0040
0040
0080
8780
7FC0
ENDCHAR
STARTCHAR 30E9
ENCODING 12521
SWIDTH 1000 0
DWIDTH 16 0
BBX 12 14 2 -2
BITMAP
3FE0
1800
0000
0020
FFF0
6020
0060
0060
00C0
0180
0100
0200
0800
3000
ENDCHAR
STARTCHAR 30EA
ENCODING 12522
SWIDTH 1000 0
DWIDTH 16 0
BBX 9 15 4 -2
BITMAP
0200
8180
8100
8100
8100
8100
8100
8100
8100
0200
0200
0600
0400
1800
6000
ENDCHAR
STARTCHAR 30EB
ENCODING 12523
SWIDTH 1000 0
DWIDTH 16 0
BBX 16 13 0 -1
BITMAP
0180
0180
1980
1980
1980
1981
1182
1184
2198
2190
61E0
41C0
8080
ENDCHAR
STARTCHAR 30EC
ENCODING 12524
SWIDTH 1000 0
DWIDTH 16 0
BBX 13 13 2 -1
BITMAP
E000
6000
6000
6000
6008
6010
6020
6040
6180
6300
7C00
7800
4000
ENDCHAR
STARTCHAR 30ED
ENCODING 12525
SWIDTH 1000 0
DWIDTH 16 0
BBX 13 10 2 0
BITMAP
FFF0
8018
8010
8010
4020
4020
4020
4060
7FE0
4020
ENDCHAR
STARTCHAR 30EE
ENCODING 12526
SWIDTH 1000 0
DWIDTH 16 0
BBX 10 10 3 -2
BITMAP
8FC0
78C0
4080
4080
4100
0300
0200
0400
0800
1000
ENDCHAR
STARTCHAR 30EF
ENCODING 12527
SWIDTH 1000 0
DWIDTH 16 0
BBX 13 13 1 -1
BITMAP
C030
7FF8
2008
2018
2010
2030
2020
0040
00C0
0080
0300
0200
0C00
ENDCHAR
STARTCHAR 30F0
ENCODING 12528
SWIDTH 1000 0
DWIDTH 16 0
BBX 15 16 0 -2
BITMAP
0080
0040
0040
0040
21F8
1FF8
0840
0840
0840
0846
FFFE
6040
0040
0040
0040
0040
ENDCHAR
STARTCHAR 30F1
ENCODING 12529
SWIDTH 1000 0
DWIDTH 16 0
BBX 16 11 0 0
BITMAP
0030
1FD8
1830
0180
0180
0180
0100
0100
0118
FEE7
7001
ENDCHAR
STARTCHAR 30F2
ENCODING 12530
SWIDTH 1000 0
DWIDTH 16 0
BBX 11 14 3 -2
BITMAP
83C0
7E20
0040
0040
0FC0
FC80
0100
0300
0200
0400
0800
1000
2000
4000
ENDCHAR
STARTCHAR 30F3
ENCODING 12531
SWIDTH 1000 0
DWIDTH 16 0
BBX 13 12 2 0
BITMAP
4000
3000
1808
0030
0020
00C0
0180
0200
0600
9800
7000
4000
ENDCHAR
STARTCHAR 30F4
ENCODING 12532
SWIDTH 1000 0
DWIDTH 16 0
BBX 14 16 2 -2
BITMAP
0008
1804
0430
0410
FFE0
7060
4040
40C0
4080
4180
0100
0100
0200
0400
0800
1000
ENDCHAR
STARTCHAR 30F5
ENCODING 12533
SWIDTH 1000 0
DWIDTH 16 0
BBX 9 11 4 -2
BITMAP
1000
0800
0800
8980
7780
1180
2100
6100
0200
9200
0C00
ENDCHAR
STARTCHAR 30F6
ENCODING 12534
SWIDTH 1000 0
DWIDTH 16 0
BBX 10 11 3 -2
BITMAP
1000
3000
30C0
5F00
C200
0400
0400
0C00
0800
1000
2000
ENDCHAR
STARTCHAR 30F7
ENCODING 12535
SWIDTH 1000 0
DWIDTH 16 0
BBX 15 15 1 -1
BITMAP
0004
0002
0018
80C8
7F30
4020
4040
4040
00C0
0080
0100
0300
0400
0C00
3000
ENDCHAR
STARTCHAR 30F8
ENCODING 12536
SWIDTH 1000 0
DWIDTH 16 0
BBX 16 16 0 -2
BITMAP
0082
0041
004C
0044
21F8
1FF8
0840
0840
0840
0846
FFFE
6040
0040
0040
0040
0040
ENDCHAR
STARTCHAR 30F9
ENCODING 12537
SWIDTH 1000 0
DWIDTH 16 0
BBX 16 14 0 0
BITMAP
0002
0009
0004
0030
1FD8
1830
0180
0180
0180
0100
0100
0118
FEE7
7001
ENDCHAR
STARTCHAR 30FA
ENCODING 12538
SWIDTH 1000 0
DWIDTH 16 0
BBX 15 15 1 -2
BITMAP
0004
0012
43E8
3F30
0020
0020
87C0
7CC0
0080
0100
0300
0200
0C00
0800
3000
ENDCHAR
STARTCHAR 30FB
ENCODING 12539
SWIDTH 1000 0
DWIDTH 16 0
BBX 2 2 7 4
BITMAP
C0
C0
ENDCHAR
STARTCHAR 30FC
ENCODING 12540
SWIDTH 1000 0
DWIDTH 16 0
BBX 14 3 1 4
BITMAP
8000
FFFC
4000
ENDCHAR
STARTCHAR 30FD
ENCODING 12541
SWIDTH 1000 0
DWIDTH 16 0
BBX 5 5 6 3
BITMAP
80
60
30
18
18
ENDCHAR
STARTCHAR 30FE
ENCODING 12542
SWIDTH 1000 0
DWIDTH 16 0
BBX 8 8 5 2
BITMAP
01
0D
84
40
30
18
0C
0C
ENDCHAR
STARTCHAR 30FF
ENCODING 12543
SWIDTH 1000 0
DWIDTH 16 0
BBX 11 14 2 -2
BITMAP
8FE0
7C60
0060
0060
0060
0060
0060
0060
0060
0060
0060
0060
0060
0040
ENDCHAR
STARTCHAR 31F0
ENCODING 12784
SWIDTH 1000 0
DWIDTH 16 0
BBX 8 12 4 -2
BITMAP
18
19
17
21
42
86
04
08
10
20
00
80
ENDCHAR
STARTCHAR 31F1
ENCODING 12785
SWIDTH 1000 0
DWIDTH 16 0
BBX 10 9 3 0
BITMAP
3000
0800
0000
4040
3080
0300
0200
9C00
7800
ENDCHAR
STARTCHAR 31F2
ENCODING 12786
SWIDTH 1000 0
DWIDTH 16 0
BBX 10 9 3 0
BITMAP
4100
3F80
0300
0300
0200
0C00
0B00
30C0
C0C0
ENDCHAR
STARTCHAR 31F3
ENCODING 12787
SWIDTH 1000 0
DWIDTH 16 0
BBX 6 11 6 -1
BITMAP
80
C0
80
80
F0
98
84
80
80
80
80
ENDCHAR
STARTCHAR 31F4
ENCODING 12788
SWIDTH 1000 0
DWIDTH 16 0
BBX 9 11 3 -2
BITMAP
0100
1F80
0100
1300
0A00
0600
0F00
1080
3080
4000
8000
ENDCHAR
STARTCHAR 31F5
ENCODING 12789
SWIDTH 1000 0
DWIDTH 16 0
BBX 12 8 2 0
BITMAP
1800
1980
1040
1060
2020
6020
0010
8010
ENDCHAR
STARTCHAR 31F6
ENCODING 12790
SWIDTH 1000 0
DWIDTH 16 0
BBX 8 10 4 0
BITMAP
80
C0
80
86
F8
80
80
80
C3
7F
ENDCHAR
STARTCHAR 31F7
ENCODING 12791
SWIDTH 1000 0
DWIDTH 16 0
BBX 10 10 3 -1
BITMAP
8180
7EC0
0080
0100
0100
0300
0200
0C00
0800
3000
ENDCHAR
STARTCHAR 31F8
ENCODING 12792
SWIDTH 1000 0
DWIDTH 16 0
BBX 12 8 2 0
BITMAP
1800
2400
2200
6100
8080
0040
0030
0010
ENDCHAR
STARTCHAR 31F9
ENCODING 12793
SWIDTH 1000 0
DWIDTH 16 0
BBX 10 12 3 -2
BITMAP
0C00
0C00
0C80
8FC0
7C00
0C00
0C80
4CC0
CC40
AC40
1C00
0800
ENDCHAR
STARTCHAR 31FA
ENCODING 12794
SWIDTH 1000 0
DWIDTH 16 0
BBX 11 9 2 1
BITMAP
0400
0600
0600
0800
0900
1800
1040
FFE0
7E20
ENDCHAR
STARTCHAR 31FB
ENCODING 12795
SWIDTH 1000 0
DWIDTH 16 0
BBX 10 12 3 -2
BITMAP
0300
3F80
0000
8080
7FC0
0080
0100
0300
0200
0400
1800
2000
ENDCHAR
STARTCHAR 31FC
ENCODING 12796
SWIDTH 1000 0
DWIDTH 16 0
BBX 8 12 4 -2
BITMAP
82
43
42
42
42
42
42
02
06
04
18
60
ENDCHAR
STARTCHAR 31FD
ENCODING 12797
SWIDTH 1000 0
DWIDTH 16 0
BBX 12 11 2 -1
BITMAP
0400
0600
2600
3600
2600
2610
2660
2640
4780
4700
8200
ENDCHAR
STARTCHAR 31FE
ENCODING 12798
SWIDTH 1000 0
DWIDTH 16 0
BBX 10 10 3 -1
BITMAP
C000
4000
6000
4000
4040
4080
4300
4600
7C00
F000
ENDCHAR
STARTCHAR 31FF
ENCODING 12799
SWIDTH 1000 0
DWIDTH 16 0
BBX 10 8 3 0
BITMAP
83C0
FFC0
4040
40C0
40C0
4080
4080
7FC0
ENDCHAR
STARTCHAR 3231
ENCODING 12849
SWIDTH 1000 0
DWIDTH 16 0
BBX 16 16 0 -2
BITMAP
2004
4C32
88A2
88A2
BEFD
89A1
9821
9C25
9AF9
AA71
A879
C8A9
88A4
8926
4A22
4822
ENDCHAR
STARTCHAR 3232
ENCODING 12850
SWIDTH 1000 0
DWIDTH 16 0
BBX 16 16 0 -2
BITMAP
2184
4102
810A
BFFE
8201
8201
87F9
8611
8E11
8FF1
A611
8611
87F2
8612
4612
4672
ENDCHAR
STARTCHAR 3239
ENCODING 12857
SWIDTH 1000 0
DWIDTH 16 0
BBX 16 16 0 -2
BITMAP
2084
46A2
849A
889A
9889
9FFD
9881
B881
9881
98C1
9841
9861
9868
982A
581A
581E
ENDCHAR
STARTCHAR 3251
ENCODING 12881
SWIDTH 1000 0
DWIDTH 16 0
BBX 16 16 0 -2
BITMAP
03C0
0420
3818
2004
4E22
9962
8121
8121
8221
8621
8920
8922
5F7A
2004
1818
07E0
ENDCHAR
STARTCHAR 3252
ENCODING 12882
SWIDTH 1000 0
DWIDTH 16 0
BBX 16 16 0 -2
BITMAP
03C0
0420
3818
2004
4E7A
994A
8109
8109
8211
8611
8962
894A
5F7A
2004
1818
07E0
ENDCHAR
STARTCHAR 3253
ENCODING 12883
SWIDTH 1000 0
DWIDTH 16 0
BBX 16 16 0 -2
BITMAP
03C0
0420
3818
2004
4E7A
994A
8109
8109
8239
8609
8948
894A
5F32
2004
1818
07E0
ENDCHAR
STARTCHAR 3254
ENCODING 12884
SWIDTH 1000 0
DWIDTH 16 0
BBX 16 16 0 -2
BITMAP
03C0
0420
3818
2004
4E1A
993A
8159
8159
8299
8699
897A
891A
5F1A
2004
1818
07E0
ENDCHAR
STARTCHAR 3255
ENCODING 12885
SWIDTH 1000 0
DWIDTH 16 0
BBX 16 16 0 -2
BITMAP
03C0
0420
3818
2004
4E7A
9942
8141
8171
8209
8609
8948
894A
5F32
2004
1818
07E0
ENDCHAR
STARTCHAR 3256
ENCODING 12886
SWIDTH 1000 0
DWIDTH 16 0
BBX 16 16 0 -2
BITMAP
03C0
0420
3818
2004
4E7A
994A
8141
8171
8249
8649
8948
894A
5F32
2004
1818
07E0
ENDCHAR
STARTCHAR 3257
ENCODING 12887
SWIDTH 1000 0
DWIDTH 16 0
BBX 16 16 0 -2
BITMAP
03C0
0420
3818
2004
4E7A
9982
8109
8119
8211
8611
8920
8922
5F22
2004
1818
07E0
ENDCHAR
STARTCHAR 3258
ENCODING 12888
SWIDTH 1000 0
DWIDTH 16 0
BBX 16 16 0 -2
BITMAP
03C0
0420
3818
2004
4E7A
994A
8149
8169
8259
8649
8948
894A
5F32
2004
1818
07E0
ENDCHAR
STARTCHAR 3259
ENCODING 12889
SWIDTH 1000 0
DWIDTH 16 0
BBX 16 16 0 -2
BITMAP
03C0
0420
3818
2004
4E7A
994A
8149
8149
8279
8639
8948
894A
5F32
2004
1818
07E0
ENDCHAR
STARTCHAR 325A
ENCODING 12890
SWIDTH 1000 0
DWIDTH 16 0
BBX 16 16 0 -2
BITMAP
03C0
0420
3818
2004
4E7A
994A
8149
8049
8649
8149
9948
994A
4632
2004
1818
07E0
ENDCHAR
STARTCHAR 325B
ENCODING 12891
SWIDTH 1000 0
DWIDTH 16 0
BBX 16 16 0 -2
BITMAP
03C0
0420
3818
2004
4E22
9962
8121
8021
8621
8121
9920
9922
467A
2004
1818
07E0
ENDCHAR
STARTCHAR 325C
ENCODING 12892
SWIDTH 1000 0
DWIDTH 16 0
BBX 16 16 0 -2
BITMAP
03C0
0420
3818
2004
4E7A
994A
8109
8009
8611
8111
9962
994A
467A
2004
1818
07E0
ENDCHAR
STARTCHAR 325D
ENCODING 12893
SWIDTH 1000 0
DWIDTH 16 0
BBX 16 16 0 -2
BITMAP
03C0
0420
3818
2004
4E7A
994A
8109
8009
8639
8109
9948
994A
4632
2004
1818
07E0
ENDCHAR
STARTCHAR 325E
ENCODING 12894
SWIDTH 1000 0
DWIDTH 16 0
BBX 16 16 0 -2
BITMAP
03C0
0420
3818
2004
4E1A
993A
8159
8059
8699
8199
997A
991A
461A
2004
1818
07E0
ENDCHAR
STARTCHAR 325F
ENCODING 12895
SWIDTH 1000 0
DWIDTH 16 0
BBX 16 16 0 -2
BITMAP
03C0
0420
3818
2004
4E7A
9942
8141
8071
8609
8109
9948
994A
4632
2004
1818
07E0
ENDCHAR
STARTCHAR 32A4
ENCODING 12964
SWIDTH 1000 0
DWIDTH 16 0
BBX 16 16 0 -2
BITMAP
03C0
0420
3818
2184
4102
8102
8121
81F1
8101
8101
8100
8102
5FFA
2004
1818
07E0
ENDCHAR
STARTCHAR 32A5
ENCODING 12965
SWIDTH 1000 0
DWIDTH 16 0
BBX 16 16 0 -2
BITMAP
03C0
0420
3818
2184
4182
919A
9FF9
9999
9999
9999
9FF8
8182
4182
2184
1818
07E0
ENDCHAR
STARTCHAR 32A6
ENCODING 12966
SWIDTH 1000 0
DWIDTH 16 0
BBX 16 16 0 -2
BITMAP
03C0
0420
3810
201C
5FE2
8102
8181
8161
8121
8101
8100
8102
4102
2104
1818
07E0
ENDCHAR
STARTCHAR 32A7
ENCODING 12967
SWIDTH 1000 0
DWIDTH 16 0
BBX 16 16 0 -2
BITMAP
03C0
0420
3818
2204
4302
821A
9FE1
8601
87F9
8881
8882
9082
47FA
2004
1818
07E0
ENDCHAR
STARTCHAR 32A8
ENCODING 12968
SWIDTH 1000 0
DWIDTH 16 0
BBX 16 16 0 -2
BITMAP
03C0
0420
3818
2204
4302
821A
9FE1
8601
87F9
8611
8E10
9612
47F2
2614
1818
07E0
ENDCHAR
STARTCHAR 32B1
ENCODING 12977
SWIDTH 1000 0
DWIDTH 16 0
BBX 16 16 0 -2
BITMAP
03C0
0420
3818
2004
4E7A
994A
8141
8071
8649
8149
9948
994A
4632
2004
1818
07E0
ENDCHAR
STARTCHAR 32B2
ENCODING 12978
SWIDTH 1000 0
DWIDTH 16 0
BBX 16 16 0 -2
BITMAP
03C0
0420
3818
2004
4E7A
9982
8109
8019
8611
8111
9920
9922
4622
2004
1818
07E0
ENDCHAR
STARTCHAR 32B3
ENCODING 12979
SWIDTH 1000 0
DWIDTH 16 0
BBX 16 16 0 -2
BITMAP
03C0
0420
3818
2004
4E7A
994A
8149
8069
8659
8149
9948
994A
4632
2004
1818
07E0
ENDCHAR
STARTCHAR 32B4
ENCODING 12980
SWIDTH 1000 0
DWIDTH 16 0
BBX 16 16 0 -2
BITMAP
03C0
0420
3818
2004
4E7A
994A
8149
8049
8679
8139
9948
994A
4632
2004
1818
07E0
ENDCHAR
STARTCHAR 32B5
ENCODING 12981
SWIDTH 1000 0
DWIDTH 16 0
BBX 16 16 0 -2
BITMAP
03C0
0420
3818
2004
467A
8A4A
8A49
8A49
9249
9249
8F48
824A
4732
2004
1818
07E0
ENDCHAR
STARTCHAR 32B6
ENCODING 12982
SWIDTH 1000 0
DWIDTH 16 0
BBX 16 16 0 -2
BITMAP
03C0
0420
3818
2004
4622
8A62
8A21
8A21
9221
9221
8F20
8222
477A
2004
1818
07E0
ENDCHAR
STARTCHAR 32B7
ENCODING 12983
SWIDTH 1000 0
DWIDTH 16 0
BBX 16 16 0 -2
BITMAP
03C0
0420
3818
2004
467A
8A4A
8A09
8A09
9211
9211
8F62
824A
477A
2004
1818
07E0
ENDCHAR
STARTCHAR 32B8
ENCODING 12984
SWIDTH 1000 0
DWIDTH 16 0
BBX 16 16 0 -2
BITMAP
03C0
0420
3818
2004
467A
8A4A
8A09
8A09
9239
9209
8F48
824A
4732
2004
1818
07E0
ENDCHAR
STARTCHAR 32B9
ENCODING 12985
SWIDTH 1000 0
DWIDTH 16 0
BBX 16 16 0 -2
BITMAP
03C0
0420
3818
2004
461A
8A3A
8A59
8A59
9299
9299
8F7A
821A
471A
2004
1818
07E0
ENDCHAR
STARTCHAR 32BA
ENCODING 12986
SWIDTH 1000 0
DWIDTH 16 0
BBX 16 16 0 -2
BITMAP
03C0
0420
3818
2004
467A
8A42
8A41
8A71
9209
9209
8F48
824A
4732
2004
1818
07E0
ENDCHAR
STARTCHAR 32BB
ENCODING 12987
SWIDTH 1000 0
DWIDTH 16 0
BBX 16 16 0 -2
BITMAP
03C0
0420
3818
2004
467A
8A4A
8A41
8A71
9249
9249
8F48
824A
4732
2004
1818
07E0
ENDCHAR
STARTCHAR 32BC
ENCODING 12988
SWIDTH 1000 0
DWIDTH 16 0
BBX 16 16 0 -2
BITMAP
03C0
0420
3818
2004
467A
8A82
8A09
8A19
9211
9211
8F20
8222
4722
2004
1818
07E0
ENDCHAR
STARTCHAR 32BD
ENCODING 12989
SWIDTH 1000 0
DWIDTH 16 0
BBX 16 16 0 -2
BITMAP
03C0
0420
3818
2004
467A
8A4A
8A49
8A69
9259
9249
8F48
824A
4732
2004
1818
07E0
ENDCHAR
STARTCHAR 32BE
ENCODING 12990
SWIDTH 1000 0
DWIDTH 16 0
BBX 16 16 0 -2
BITMAP
03C0
0420
3818
2004
467A
8A4A
8A49
8A49
9279
9239
8F48
824A
4732
2004
1818
07E0
ENDCHAR
STARTCHAR 32BF
ENCODING 12991
SWIDTH 1000 0
DWIDTH 16 0
BBX 16 16 0 -2
BITMAP
03C0
0420
3818
2004
4E7A
884A
8849
8E49
8149
8149
9948
994A
4632
2004
1818
07E0
ENDCHAR
STARTCHAR 32D0
ENCODING 13008
SWIDTH 1000 0
DWIDTH 16 0
BBX 16 16 0 -2
BITMAP
03C0
0420
3818
2014
5FFA
981A
81C1
8181
8101
8101
8200
8202
4402
2004
1818
07E0
ENDCHAR
STARTCHAR 32D1
ENCODING 13009
SWIDTH 1000 0
DWIDTH 16 0
BBX 16 16 0 -2
BITMAP
03C0
0420
3838
2024
4062
8042
8181
8181
8681
8881
8080
8082
4082
2004
1818
07E0
ENDCHAR
STARTCHAR 32D2
ENCODING 13010
SWIDTH 1000 0
DWIDTH 16 0
BBX 16 16 0 -2
BITMAP
03C0
0420
3818
2184
49FA
871A
8819
8811
8021
8021
8040
8082
4102
2004
1818
07E0
ENDCHAR
STARTCHAR 32D3
ENCODING 13011
SWIDTH 1000 0
DWIDTH 16 0
BBX 16 16 0 -2
BITMAP
03C0
0420
3818
2004
4862
87F2
8181
8181
8181
8101
A110
9FFA
4002
2004
1818
07E0
ENDCHAR
STARTCHAR 32D4
ENCODING 13012
SWIDTH 1000 0
DWIDTH 16 0
BBX 16 16 0 -2
BITMAP
03C0
0420
3918
2084
409A
A3FA
9D81
8181
8281
8681
8880
9082
4182
2084
1818
07E0
ENDCHAR
STARTCHAR 32D5
ENCODING 13013
SWIDTH 1000 0
DWIDTH 16 0
BBX 16 16 0 -2
BITMAP
03C0
0420
3918
2084
4082
889A
8779
8119
8211
8611
8020
8922
40C2
2004
1818
07E0
ENDCHAR
STARTCHAR 32D6
ENCODING 13014
SWIDTH 1000 0
DWIDTH 16 0
BBX 16 16 0 -2
BITMAP
03C0
0420
3A18
2204
4172
91C2
8F81
8199
81E1
9E81
8040
8042
4062
2024
1818
07E0
ENDCHAR
STARTCHAR 32D7
ENCODING 13015
SWIDTH 1000 0
DWIDTH 16 0
BBX 16 16 0 -2
BITMAP
03C0
0420
3918
2184
41FA
8112
8631
8421
9861
8041
8180
8102
4602
2804
1818
07E0
ENDCHAR
STARTCHAR 32D8
ENCODING 13016
SWIDTH 1000 0
DWIDTH 16 0
BBX 16 16 0 -2
BITMAP
03C0
0420
3818
2204
4602
861A
8BE1
9841
8081
8081
8180
8102
4202
2404
1818
07E0
ENDCHAR
STARTCHAR 32D9
ENCODING 13017
SWIDTH 1000 0
DWIDTH 16 0
BBX 16 16 0 -2
BITMAP
03C0
0420
3818
2004
51F2
8F1A
8011
8021
8021
8021
9060
8FE2
4002
2004
1818
07E0
ENDCHAR
STARTCHAR 32DA
ENCODING 13018
SWIDTH 1000 0
DWIDTH 16 0
BBX 16 16 0 -2
BITMAP
03C0
0420
3818
2044
4662
867A
BFE5
9E61
8661
8661
8040
8082
4102
2004
1818
07E0
ENDCHAR
STARTCHAR 32DB
ENCODING 13019
SWIDTH 1000 0
DWIDTH 16 0
BBX 16 16 0 -2
BITMAP
03C0
0420
3818
2804
4702
8102
9001
8809
8621
8061
8180
9382
4E02
2004
1818
07E0
ENDCHAR
STARTCHAR 32DC
ENCODING 13020
SWIDTH 1000 0
DWIDTH 16 0
BBX 16 16 0 -2
BITMAP
03C0
0420
3818
2004
4FF2
8622
8061
8061
8081
8181
8232
861A
580A
2004
1818
07E0
ENDCHAR
STARTCHAR 32DD
ENCODING 13021
SWIDTH 1000 0
DWIDTH 16 0
BBX 16 16 0 -2
BITMAP
03C0
0420
3818
2604
4302
8202
82F9
8791
9A61
8201
8200
8302
41FA
2004
1818
07E0
ENDCHAR
STARTCHAR 32DE
ENCODING 13022
SWIDTH 1000 0
DWIDTH 16 0
BBX 16 16 0 -2
BITMAP
03C0
0420
3818
2004
5032
881A
8431
8421
8061
8041
8080
8182
4002
2204
1818
07E0
ENDCHAR
STARTCHAR 32DF
ENCODING 13023
SWIDTH 1000 0
DWIDTH 16 0
BBX 16 16 0 -2
BITMAP
03C0
0420
3918
2184
43F2
8212
8621
8921
80E1
80C1
8180
8102
4602
3804
1818
07E0
ENDCHAR
STARTCHAR 32E0
ENCODING 13024
SWIDTH 1000 0
DWIDTH 16 0
BBX 16 16 0 -2
BITMAP
03C0
0420
3818
2044
4382
8F82
8191
A7F9
9981
8181
8100
8102
4202
2404
1818
07E0
ENDCHAR
STARTCHAR 32E1
ENCODING 13025
SWIDTH 1000 0
DWIDTH 16 0
BBX 16 16 0 -2
BITMAP
03C0
0420
3818
2004
4012
911A
8999
8891
8021
8021
8040
8002
4102
2004
1818
07E0
ENDCHAR
STARTCHAR 32E2
ENCODING 13026
SWIDTH 1000 0
DWIDTH 16 0
BBX 16 16 0 -2
BITMAP
03C0
0420
3818
2864
4782
8002
A3F9
9F09
8181
8181
8100
8102
4202
2204
1818
07E0
ENDCHAR
STARTCHAR 32E3
ENCODING 13027
SWIDTH 1000 0
DWIDTH 16 0
BBX 16 16 0 -2
BITMAP
03C0
0420
3E18
2204
4302
8202
8381
8241
8231
8211
8200
8202
4202
2204
1818
07E0
ENDCHAR
STARTCHAR 32E5
ENCODING 13029
SWIDTH 1000 0
DWIDTH 16 0
BBX 16 16 0 -2
BITMAP
03C0
0420
3818
2004
4842
87E2
8001
8001
8001
8001
80E0
9FFA
4002
2004
1818
07E0
ENDCHAR
STARTCHAR 32E9
ENCODING 13033
SWIDTH 1000 0
DWIDTH 16 0
BBX 16 16 0 -2
BITMAP
03C0
0420
3818
2004
4602
8662
8411
8419
8809
9809
A006
A006
4002
2004
1818
07E0
ENDCHAR
STARTCHAR 32EC
ENCODING 13036
SWIDTH 1000 0
DWIDTH 16 0
BBX 16 16 0 -2
BITMAP
03C0
0420
3818
2004
4602
8602
8981
8881
B061
8021
801A
800C
4002
2004
1818
07E0
ENDCHAR
STARTCHAR 32ED
ENCODING 13037
SWIDTH 1000 0
DWIDTH 16 0
BBX 16 16 0 -2
BITMAP
03C0
0420
3918
2184
4182
8192
9FE9
8981
8181
8991
9988
998A
4382
2184
1818
07E0
ENDCHAR
STARTCHAR 32FA
ENCODING 13050
SWIDTH 1000 0
DWIDTH 16 0
BBX 16 16 0 -2
BITMAP
03C0
0420
3818
2004
4002
907A
9F89
8809
8819
8819
8810
8812
4FE2
2004
1818
07E0
ENDCHAR
STARTCHAR 3303
ENCODING 13059
SWIDTH 1000 0
DWIDTH 16 0
BBX 14 14 1 -2
BITMAP
FE00
0400
1800
10FC
1000
2000
0000
0000
1000
5000
5000
5200
5400
9800
ENDCHAR
STARTCHAR 330D
ENCODING 13069
SWIDTH 1000 0
DWIDTH 16 0
BBX 14 16 1 -2
BITMAP
2000
2000
FCFC
2484
2484
4484
48FC
9880
0000
0000
4800
4800
48FC
0800
1000
1000
ENDCHAR
STARTCHAR 3314
ENCODING 13076
SWIDTH 1000 0
DWIDTH 16 0
BBX 14 16 1 -2
BITMAP
4000
4000
F800
2000
3C00
D000
0000
1000
0000
0000
00FC
0084
0084
0084
00FC
0080
ENDCHAR
STARTCHAR 3318
ENCODING 13080
SWIDTH 1000 0
DWIDTH 16 0
BBX 15 16 0 -2
BITMAP
0080
10BC
2E02
247E
0002
0804
3008
2018
4020
1000
1000
1000
2400
2200
FE00
4000
ENDCHAR
STARTCHAR 3322
ENCODING 13090
SWIDTH 1000 0
DWIDTH 16 0
BBX 13 14 1 -2
BITMAP
4000
4440
5C00
E808
4010
2020
1CC0
0000
0800
7000
1400
FA00
1000
2000
ENDCHAR
STARTCHAR 3323
ENCODING 13091
SWIDTH 1000 0
DWIDTH 16 0
BBX 13 14 1 -2
BITMAP
4000
4440
5C00
E808
4010
2020
1CC0
0000
4000
4000
3000
4C00
4000
4000
ENDCHAR
STARTCHAR 3326
ENCODING 13094
SWIDTH 1000 0
DWIDTH 16 0
BBX 12 15 3 -2
BITMAP
B000
8000
C000
B000
8000
8000
0000
0000
0040
0240
0240
0240
0250
00C0
0440
ENDCHAR
STARTCHAR 3327
ENCODING 13095
SWIDTH 1000 0
DWIDTH 16 0
BBX 11 15 3 -2
BITMAP
8000
8000
C000
B000
8000
8000
0000
0000
0000
0100
0000
0020
0040
0080
0300
ENDCHAR
STARTCHAR 332B
ENCODING 13099
SWIDTH 1000 0
DWIDTH 16 0
BBX 14 16 1 -2
BITMAP
0300
0500
0B00
4400
84FC
8400
0000
0000
0000
4010
4310
7910
D05C
4090
4110
3A10
ENDCHAR
STARTCHAR 3336
ENCODING 13110
SWIDTH 1000 0
DWIDTH 16 0
BBX 16 15 0 -2
BITMAP
0010
300E
7824
0400
0608
0010
0060
0000
2008
5828
4828
37A9
002A
402C
8040
ENDCHAR
STARTCHAR 333B
ENCODING 13115
SWIDTH 1000 0
DWIDTH 16 0
BBX 14 16 1 -2
BITMAP
0C00
1400
6C00
F000
08FC
0C00
0000
0000
0800
C800
0000
C000
0800
1000
2000
C000
ENDCHAR
STARTCHAR 3349
ENCODING 13129
SWIDTH 1000 0
DWIDTH 16 0
BBX 12 15 2 -2
BITMAP
4000
3800
8000
7000
0800
E000
3000
0800
0090
0090
0090
0010
0020
0020
0040
ENDCHAR
STARTCHAR 334A
ENCODING 13130
SWIDTH 1000 0
DWIDTH 16 0
BBX 16 15 0 -2
BITMAP
1000
0E24
2024
1C24
0204
3808
0E08
0000
0A00
5008
5028
0BA8
8829
000A
002C
ENDCHAR
STARTCHAR 334D
ENCODING 13133
SWIDTH 1000 0
DWIDTH 16 0
BBX 15 15 0 -2
BITMAP
0400
2400
2800
187E
1000
6400
8000
0000
2008
2048
1848
2648
204A
2018
0088
ENDCHAR
STARTCHAR 3351
ENCODING 13137
SWIDTH 1000 0
DWIDTH 16 0
BBX 13 15 2 -1
BITMAP
9000
9000
90A0
1100
2120
2040
4000
0000
8020
8120
6120
9920
8128
8060
0220
ENDCHAR
STARTCHAR 3357
ENCODING 13143
SWIDTH 1000 0
DWIDTH 16 0
BBX 12 14 1 -2
BITMAP
0400
FC00
8450
0880
0890
3020
4000
0000
4000
4000
3000
4C00
4000
4000
ENDCHAR
STARTCHAR 337B
ENCODING 13179
SWIDTH 1000 0
DWIDTH 16 0
BBX 15 16 0 -2
BITMAP
0010
0418
7814
1010
54FC
3890
30B0
10F4
FEB0
10B8
10A8
10A8
1158
115A
1226
1222
ENDCHAR
STARTCHAR 337C
ENCODING 13180
SWIDTH 1000 0
DWIDTH 16 0
BBX 15 15 1 -1
BITMAP
3C60
D5D0
D45E
D454
D5F4
D454
DCD4
E0F4
C174
DD54
D554
D454
145C
1C50
1440
ENDCHAR
STARTCHAR 337D
ENCODING 13181
SWIDTH 1000 0
DWIDTH 16 0
BBX 16 16 0 -2
BITMAP
1800
1002
10FD
1008
1008
1208
FD48
104A
184C
2848
2848
2848
2448
2648
4348
82FF
ENDCHAR
STARTCHAR 337E
ENCODING 13182
SWIDTH 1000 0
DWIDTH 16 0
BBX 15 15 1 -1
BITMAP
1C88
D450
D400
D510
DD14
D47A
D422
D440
DC40
14BC
14A4
2524
2524
4524
4CBC
ENDCHAR
STARTCHAR 338E
ENCODING 13198
SWIDTH 1000 0
DWIDTH 16 0
BBX 15 11 0 -2
BITMAP
0002
FE78
5A44
5A44
5A68
5A30
5A60
5A5E
5A86
8182
007E
ENDCHAR
STARTCHAR 338F
ENCODING 13199
SWIDTH 1000 0
DWIDTH 16 0
BBX 15 14 1 -2
BITMAP
C000
C000
C000
C004
C8F2
D108
D108
E090
D0E0
D080
C87C
CD0C
0304
01FC
ENDCHAR
STARTCHAR 339C
ENCODING 13212
SWIDTH 1000 0
DWIDTH 16 0
BBX 16 8 0 0
BITMAP
FEFE
5A5A
5A5A
5A5A
5A5A
5A5A
5A5A
DB5B
ENDCHAR
STARTCHAR 339D
ENCODING 13213
SWIDTH 1000 0
DWIDTH 16 0
BBX 14 8 1 0
BITMAP
7BFC
CD2C
812C
812C
812C
812C
C52C
79AC
ENDCHAR
STARTCHAR 339E
ENCODING 13214
SWIDTH 1000 0
DWIDTH 16 0
BBX 14 12 1 0
BITMAP
C000
C000
C000
C000
CBFC
D12C
D12C
E12C
D12C
D12C
C92C
CDAC
ENDCHAR
STARTCHAR 33A1
ENCODING 13217
SWIDTH 1000 0
DWIDTH 16 0
BBX 14 13 1 0
BITMAP
0018
0024
0008
0010
003C
F980
2220
2220
2220
2220
2220
2220
6670
ENDCHAR
STARTCHAR 33C4
ENCODING 13252
SWIDTH 1000 0
DWIDTH 16 0
BBX 14 8 1 0
BITMAP
3C7C
42C4
C080
C080
C080
C080
42C0
387C
ENDCHAR
STARTCHAR 33CB
ENCODING 13259
SWIDTH 1000 0
DWIDTH 16 0
BBX 15 12 0 0
BITMAP
F1FC
6086
6082
6082
6086
6084
7FF8
6080
6080
6080
6080
F1C0
ENDCHAR
STARTCHAR 33CD
ENCODING 13261
SWIDTH 1000 0
DWIDTH 16 0
BBX 15 12 1 0
BITMAP
CCCC
C8C8
D0D0
D0D0
E0E0
F0F0
D0D0
D0D0
C8C8
CCCC
C4C4
C6C6
ENDCHAR
STARTCHAR 3402
ENCODING 13314
SWIDTH 1000 0
DWIDTH 16 0
BBX 16 16 0 -2
BITMAP
0600
0418
07A0
3C00
0408
0408
07F8
0000
3060
2266
3D78
E1E0
2060
2162
3FFF
1F3E
ENDCHAR
STARTCHAR 3406
ENCODING 13318
SWIDTH 1000 0
DWIDTH 16 0
BBX 11 16 2 -2
BITMAP
0080
27C0
3800
2040
3FC0
2040
3FC0
2040
3FC0
2000
3FE0
6060
6060
4060
8040
81C0
ENDCHAR
STARTCHAR 342C
ENCODING 13356
SWIDTH 1000 0
DWIDTH 16 0
BBX 16 16 0 -2
BITMAP
0180
0180
FFFF
0200
0630
0418
3FE4
0004
0D98
0990
0990
0990
0990
1992
1192
619E
ENDCHAR
STARTCHAR 342E
ENCODING 13358
SWIDTH 1000 0
DWIDTH 16 0
BBX 16 16 0 -2
BITMAP
0180
0180
FFFF
0800
1C18
1666
BFFA
0660
1FF8
0660
FFFF
0688
187C
6820
8F9F
7C06
ENDCHAR
STARTCHAR 3468
ENCODING 13416
SWIDTH 1000 0
DWIDTH 16 0
BBX 15 16 1 -2
BITMAP
2000
3408
37F8
2408
47F8
4000
C208
43FC
44C0
48C0
5FFE
40C0
4120
4130
420E
4C0C
ENDCHAR
STARTCHAR 346A
ENCODING 13418
SWIDTH 1000 0
DWIDTH 16 0
BBX 15 16 1 -2
BITMAP
20C0
30C0
3FFE
2230
4120
4140
C1F0
423E
4E10
4210
43F0
4210
43F0
4210
4410
5C10
ENDCHAR
STARTCHAR 3492
ENCODING 13458
SWIDTH 1000 0
DWIDTH 16 0
BBX 15 16 1 -2
BITMAP
0120
3928
252C
2520
4FFC
4010
C120
4FFC
40C0
4FFC
40C4
5FFE
41E0
41F0
42CE
5CCC
ENDCHAR
STARTCHAR 34B5
ENCODING 13493
SWIDTH 1000 0
DWIDTH 16 0
BBX 14 15 1 -1
BITMAP
0300
0410
3FF8
2010
2010
3FF0
2010
2010
3FF0
0000
1040
1830
1018
200C
C00C
ENDCHAR
STARTCHAR 34BC
ENCODING 13500
SWIDTH 1000 0
DWIDTH 16 0
BBX 16 16 0 -2
BITMAP
0630
0420
FFFF
0420
07E0
0180
7FFE
6186
7DF6
69A6
6DB6
6DB6
77DE
638E
6186
619E
ENDCHAR
STARTCHAR 34C1
ENCODING 13505
SWIDTH 1000 0
DWIDTH 16 0
BBX 16 8 0 2
BITMAP
2002
3FFF
6462
4662
0C60
1862
603F
8000
ENDCHAR
STARTCHAR 34C7
ENCODING 13511
SWIDTH 1000 0
DWIDTH 16 0
BBX 16 16 0 -2
BITMAP
0004
801E
67E0
3060
0060
0060
0860
1062
27FD
2060
6090
E090
6088
6188
6207
2606
ENDCHAR
STARTCHAR 34DB
ENCODING 13531
SWIDTH 1000 0
DWIDTH 16 0
BBX 16 16 0 -2
BITMAP
0002
03FF
0662
FE62
1062
1062
1062
1062
1042
1042
1642
1886
E186
0186
0204
0C1C
ENDCHAR
STARTCHAR 351F
ENCODING 13599
SWIDTH 1000 0
DWIDTH 16 0
BBX 16 16 0 -2
BITMAP
5830
7820
7E24
18FE
1A24
7E24
1826
1B56
F582
4003
0108
3FFC
0208
0208
0418
3878
ENDCHAR
STARTCHAR 355D
ENCODING 13661
SWIDTH 1000 0
DWIDTH 16 0
BBX 16 16 0 -2
BITMAP
0180
0180
FFFF
0180
0188
1FFC
1008
1008
1FF8
0000
3FF8
0830
06C0
0180
0678
F81F
ENDCHAR
STARTCHAR 355E
ENCODING 13662
SWIDTH 1000 0
DWIDTH 16 0
BBX 16 16 0 -2
BITMAP
0100
7F82
417F
4122
7F22
4126
4626
4424
5F94
6518
6508
6518
A514
A524
0567
04C2
ENDCHAR
STARTCHAR 3563
ENCODING 13667
SWIDTH 1000 0
DWIDTH 16 0
BBX 16 16 0 -2
BITMAP
0020
03E0
0C20
0820
1810
1818
0006
2007
5FF8
9818
1818
1818
1818
1818
1FF8
1818
ENDCHAR
STARTCHAR 356E
ENCODING 13678
SWIDTH 1000 0
DWIDTH 16 0
BBX 15 16 1 -2
BITMAP
0110
0188
1304
FB04
9002
9108
9108
9390
9090
9070
F060
9040
00F0
0090
030C
0C0E
ENDCHAR
STARTCHAR 35A6
ENCODING 13734
SWIDTH 1000 0
DWIDTH 16 0
BBX 15 16 1 -2
BITMAP
0060
0040
3FFE
F040
B3FC
B24C
B24C
B3FC
B24C
B24C
F3FC
B0D0
0140
0348
044E
0844
ENDCHAR
STARTCHAR 35A8
ENCODING 13736
SWIDTH 1000 0
DWIDTH 16 0
BBX 15 16 1 -2
BITMAP
0180
0130
33F0
F330
B3E0
B220
BFFE
B0C0
B6CC
B3C8
F0E0
B0E0
03D0
0CDC
08CC
03C0
ENDCHAR
STARTCHAR 35C5
ENCODING 13765
SWIDTH 1000 0
DWIDTH 16 0
BBX 15 16 1 -2
BITMAP
0304
023E
3224
F2A4
B764
B23C
B224
B224
BF24
BD3C
FD24
BD24
0D24
0F44
0C44
009C
ENDCHAR
STARTCHAR 35DA
ENCODING 13786
SWIDTH 1000 0
DWIDTH 16 0
BBX 15 16 1 -2
BITMAP
0004
0FFE
3120
F92C
BFFC
BD2C
BD2C
BFFC
B0C0
B0C4
FFFA
B1E0
03D0
02C8
0CCE
10C4
ENDCHAR
STARTCHAR 35F4
ENCODING 13812
SWIDTH 1000 0
DWIDTH 16 0
BBX 15 16 1 -2
BITMAP
0884
0FBE
3CA4
FFBC
BCA4
BCA4
BF1C
BC04
BDF4
BD34
FDF4
BD34
0DF4
0D34
0C04
0C1C
ENDCHAR
STARTCHAR 3605
ENCODING 13829
SWIDTH 1000 0
DWIDTH 16 0
BBX 15 16 1 -2
BITMAP
04C0
04C4
28C8
E120
A530
A504
ACDE
ACCC
AFFC
ACCC
EEFC
ADFC
0DCC
0CCC
0FEC
0F0C
ENDCHAR
STARTCHAR 364A
ENCODING 13898
SWIDTH 1000 0
DWIDTH 16 0
BBX 16 16 0 -2
BITMAP
0104
31FE
2180
2188
29F4
FD80
21FC
2180
2182
27FF
25A6
39A4
C190
0198
078E
0306
ENDCHAR
STARTCHAR 3691
ENCODING 13969
SWIDTH 1000 0
DWIDTH 16 0
BBX 16 16 0 -2
BITMAP
0008
3FFC
0008
000A
FFFD
0008
3FF8
0008
0180
0182
FF7D
0240
0620
0418
180F
E006
ENDCHAR
STARTCHAR 3696
ENCODING 13974
SWIDTH 1000 0
DWIDTH 16 0
BBX 16 15 0 -1
BITMAP
0180
1FFC
1008
1008
1FF8
1008
1008
1FF8
0180
FFFF
0100
0260
0620
181F
F006
ENDCHAR
STARTCHAR 3699
ENCODING 13977
SWIDTH 1000 0
DWIDTH 16 0
BBX 16 16 0 -2
BITMAP
1800
1800
7FFF
1962
1162
1362
227E
6E62
8180
0180
FFFF
0100
0260
0620
181F
F006
ENDCHAR
STARTCHAR 36CF
ENCODING 14031
SWIDTH 1000 0
DWIDTH 16 0
BBX 16 16 0 -2
BITMAP
3034
2026
2020
2022
FFFD
6820
6926
69B6
49B0
4828
5828
B0A8
1926
2B27
4022
80E0
ENDCHAR
STARTCHAR 3761
ENCODING 14177
SWIDTH 1000 0
DWIDTH 16 0
BBX 16 16 0 -2
BITMAP
0180
4180
7FFF
4002
8084
7FC0
1206
12FE
1E46
1244
1E28
1228
1210
1E18
6266
42C7
ENDCHAR
STARTCHAR 3762
ENCODING 14178
SWIDTH 1000 0
DWIDTH 16 0
BBX 15 16 1 -2
BITMAP
0300
4300
FFFE
C004
83F8
3F00
0310
3FF8
2310
3FF0
830C
FFFC
C38C
C34C
DCAC
C01C
ENDCHAR
STARTCHAR 376B
ENCODING 14187
SWIDTH 1000 0
DWIDTH 16 0
BBX 16 16 0 -2
BITMAP
0180
4180
7FFF
4002
88C0
7C88
69FC
7910
7060
6898
6FF7
6A00
7BFC
6260
60FE
67FF
ENDCHAR
STARTCHAR 376C
ENCODING 14188
SWIDTH 1000 0
DWIDTH 16 0
BBX 16 16 0 -2
BITMAP
1818
9810
7F10
8216
1EF8
1E10
7810
7E10
18FF
FF28
1828
8668
7E44
4644
4687
7E82
ENDCHAR
STARTCHAR 3775
ENCODING 14197
SWIDTH 1000 0
DWIDTH 16 0
BBX 16 16 0 -2
BITMAP
1018
1FF8
1818
1FF8
1818
1818
1FF8
0006
3FF8
0020
FFFF
0020
0820
0420
0620
00E0
ENDCHAR
STARTCHAR 378D
ENCODING 14221
SWIDTH 1000 0
DWIDTH 16 0
BBX 16 16 0 -2
BITMAP
2004
3FFE
2004
2004
3FFC
2004
2100
2100
2FF8
2110
2910
6610
4390
4792
8491
181F
ENDCHAR
STARTCHAR 37C1
ENCODING 14273
SWIDTH 1000 0
DWIDTH 16 0
BBX 15 15 1 -2
BITMAP
320C
23F0
2300
AB0C
ABFC
AB30
AB30
AB34
ABFE
AB30
FB30
8330
0230
0030
0430
ENDCHAR
STARTCHAR 37E2
ENCODING 14306
SWIDTH 1000 0
DWIDTH 16 0
BBX 16 16 0 -2
BITMAP
0180
6186
6186
7FFE
0100
7FFE
0280
0660
1812
FFFF
0118
1F98
1118
1118
1F18
1078
ENDCHAR
STARTCHAR 37E8
ENCODING 14312
SWIDTH 1000 0
DWIDTH 16 0
BBX 15 16 1 -2
BITMAP
0060
3346
2244
2244
ABFC
AA04
A804
AFFE
A840
AC84
ABFE
FAA4
82A4
02A4
02A4
02AC
ENDCHAR
STARTCHAR 37F4
ENCODING 14324
SWIDTH 1000 0
DWIDTH 16 0
BBX 15 16 1 -2
BITMAP
0080
30C0
200C
23FC
AA4C
AA4C
ABFC
AA4C
ABFC
A828
A9A8
F934
813E
0320
0222
0C3E
ENDCHAR
STARTCHAR 37FD
ENCODING 14333
SWIDTH 1000 0
DWIDTH 16 0
BBX 15 16 1 -2
BITMAP
000C
37FC
20A0
24AC
ABFC
AAAC
AAAC
ABFC
A800
ABF8
A804
FFFE
8240
0350
004C
05C4
ENDCHAR
STARTCHAR 3800
ENCODING 14336
SWIDTH 1000 0
DWIDTH 16 0
BBX 14 16 1 -2
BITMAP
0300
2220
3DE0
3FE0
3FE0
3008
3FF0
3FFC
504C
930C
8038
0310
C30C
C30C
C30C
FFFC
ENDCHAR
STARTCHAR 382F
ENCODING 14383
SWIDTH 1000 0
DWIDTH 16 0
BBX 14 15 1 -2
BITMAP
8010
FFF8
C010
C010
C010
FFF0
C010
C000
C00C
FFFC
C00C
C00C
C00C
FFFC
C00C
ENDCHAR
STARTCHAR 3836
ENCODING 14390
SWIDTH 1000 0
DWIDTH 16 0
BBX 15 16 1 -2
BITMAP
30C0
20C0
23F8
AB10
FB10
AB10
AB10
AB10
AB10
AB10
BB10
A310
2210
2214
2412
281E
ENDCHAR
STARTCHAR 3840
ENCODING 14400
SWIDTH 1000 0
DWIDTH 16 0
BBX 16 16 0 -2
BITMAP
0180
0990
1D8E
3186
4181
C186
7FFE
6186
61C6
67A6
699E
699E
7186
6186
6186
619E
ENDCHAR
STARTCHAR 385C
ENCODING 14428
SWIDTH 1000 0
DWIDTH 16 0
BBX 15 16 1 -2
BITMAP
3100
2180
21EC
AB6C
F970
AC90
AA0C
A90E
ACE0
A800
BBFC
A040
2350
2348
244C
29C4
ENDCHAR
STARTCHAR 3861
ENCODING 14433
SWIDTH 1000 0
DWIDTH 16 0
BBX 15 16 1 -2
BITMAP
6404
47FE
4400
D446
F5A4
D404
D5FE
D544
D554
D5D4
F404
D544
4544
4444
4BC4
538C
ENDCHAR
STARTCHAR 38FA
ENCODING 14586
SWIDTH 1000 0
DWIDTH 16 0
BBX 14 11 1 0
BITMAP
0600
0400
0400
0410
2490
044C
444C
C424
8424
0400
1C00
ENDCHAR
STARTCHAR 3917
ENCODING 14615
SWIDTH 1000 0
DWIDTH 16 0
BBX 16 16 0 -2
BITMAP
0180
0100
7FFE
0200
3FFC
0640
FFFF
0420
0998
190C
2107
6992
896C
1926
2126
0700
ENDCHAR
STARTCHAR 391A
ENCODING 14618
SWIDTH 1000 0
DWIDTH 16 0
BBX 16 16 0 -2
BITMAP
1880
10C6
11B8
1900
5460
5440
50BF
9184
1184
1384
1184
1184
1184
1184
1184
119C
ENDCHAR
STARTCHAR 396F
ENCODING 14703
SWIDTH 1000 0
DWIDTH 16 0
BBX 16 16 0 -2
BITMAP
0018
21F8
3F84
2086
1FF8
0180
3E7C
1FF8
FFFF
0018
1FF8
0018
2480
2446
4411
47F9
ENDCHAR
STARTCHAR 3A6E
ENCODING 14958
SWIDTH 1000 0
DWIDTH 16 0
BBX 16 16 0 -2
BITMAP
3020
22B6
2122
21B6
FD12
21B6
2132
23FF
7984
E19E
22E1
2420
21FC
27FF
2020
E0E0
ENDCHAR
STARTCHAR 3A73
ENCODING 14963
SWIDTH 1000 0
DWIDTH 16 0
BBX 16 16 0 -2
BITMAP
3008
218A
22D6
27DE
FEB4
2FDE
2694
27DE
7E94
E7FF
2004
23FE
2098
2010
2078
E38E
ENDCHAR
STARTCHAR 3AD6
ENCODING 15062
SWIDTH 1000 0
DWIDTH 16 0
BBX 16 16 0 -2
BITMAP
0180
0100
0108
01FC
0100
0100
FFFF
0000
1018
1FF8
1818
1818
1FF8
1818
1818
1FF8
ENDCHAR
STARTCHAR 3AD7
ENCODING 15063
SWIDTH 1000 0
DWIDTH 16 0
BBX 16 16 0 -2
BITMAP
0008
1FFC
1008
1008
1FF8
1008
1FF8
0000
1FF8
0030
01C0
0182
FFFD
0180
0180
0780
ENDCHAR
STARTCHAR 3AEA
ENCODING 15082
SWIDTH 1000 0
DWIDTH 16 0
BBX 16 16 0 -2
BITMAP
0180
0100
7FFE
0200
3FFC
0640
0422
FFFF
1818
1008
7BFF
9A1A
1BF8
1A18
1A18
1BF8
ENDCHAR
STARTCHAR 3B0E
ENCODING 15118
SWIDTH 1000 0
DWIDTH 16 0
BBX 16 16 0 -2
BITMAP
2004
3FFE
2004
3FFC
2004
3FFC
0810
1820
2658
1870
1264
7EFE
4206
2448
6626
C623
ENDCHAR
STARTCHAR 3B1A
ENCODING 15130
SWIDTH 1000 0
DWIDTH 16 0
BBX 15 16 1 -2
BITMAP
0320
0230
FFF0
A430
A23E
A528
AECC
E84C
AF2C
A918
AF18
A910
EF18
A918
092E
0B44
ENDCHAR
STARTCHAR 3B1C
ENCODING 15132
SWIDTH 1000 0
DWIDTH 16 0
BBX 16 16 0 -2
BITMAP
0602
FEFF
0404
2626
FAFA
1818
FEFE
1010
FBFF
6000
1FF8
1818
1FF8
1818
1818
1FF8
ENDCHAR
STARTCHAR 3B22
ENCODING 15138
SWIDTH 1000 0
DWIDTH 16 0
BBX 15 16 1 -2
BITMAP
0110
0090
FFFE
B040
B7FC
B040
FFFE
B100
BFA4
B324
BFFE
F328
8FBC
0F1A
036C
078E
ENDCHAR
STARTCHAR 3B6D
ENCODING 15213
SWIDTH 1000 0
DWIDTH 16 0
BBX 16 16 0 -2
BITMAP
3443
27E2
265A
265A
FE5A
265A
639A
721A
6BFA
AA5A
A25A
A25A
2642
26C2
2482
2D8E
ENDCHAR
STARTCHAR 3B77
ENCODING 15223
SWIDTH 1000 0
DWIDTH 16 0
BBX 16 16 0 -2
BITMAP
1800
1102
11FF
1192
FFFE
1192
3192
39FE
7430
5420
91FF
1022
1062
1062
1086
139E
ENDCHAR
STARTCHAR 3B87
ENCODING 15239
SWIDTH 1000 0
DWIDTH 16 0
BBX 16 16 0 -2
BITMAP
3004
201E
23E0
2060
FBFF
2050
6088
7088
6B67
AA42
A040
A264
2252
2259
2659
21C0
ENDCHAR
STARTCHAR 3B88
ENCODING 15240
SWIDTH 1000 0
DWIDTH 16 0
BBX 16 16 0 -2
BITMAP
3060
2060
2066
27FE
F890
2098
6106
7207
69F0
A800
A3FE
A060
21EC
2166
2662
20E0
ENDCHAR
STARTCHAR 3B8D
ENCODING 15245
SWIDTH 1000 0
DWIDTH 16 0
BBX 14 16 1 -2
BITMAP
1040
0860
FFFC
0000
7CC8
74C8
74C8
4408
4C30
0700
030C
FFFC
0780
0F40
333C
C31C
ENDCHAR
STARTCHAR 3BA4
ENCODING 15268
SWIDTH 1000 0
DWIDTH 16 0
BBX 16 16 0 -2
BITMAP
2180
2182
7E7F
4824
119E
6260
1C1C
2FF7
C810
0810
07E0
0182
FFFD
07A0
1998
E18F
ENDCHAR
STARTCHAR 3BB6
ENCODING 15286
SWIDTH 1000 0
DWIDTH 16 0
BBX 16 16 0 -2
BITMAP
3040
2472
225F
225A
FFFA
219A
77FE
6FFA
6FFA
A7FA
A7FE
A7FA
219A
219A
2112
2226
ENDCHAR
STARTCHAR 3BC3
ENCODING 15299
SWIDTH 1000 0
DWIDTH 16 0
BBX 16 16 0 -2
BITMAP
3060
2060
27FF
2060
FDF8
2166
7662
68C0
690C
A667
A260
A16C
2070
21F0
266E
21E2
ENDCHAR
STARTCHAR 3BCD
ENCODING 15309
SWIDTH 1000 0
DWIDTH 16 0
BBX 16 16 0 -2
BITMAP
30D8
229A
229F
229A
FAB6
22DC
6388
7298
68A6
A8FF
A386
A296
229E
2686
2486
209E
ENDCHAR
STARTCHAR 3BF0
ENCODING 15344
SWIDTH 1000 0
DWIDTH 16 0
BBX 16 16 0 -2
BITMAP
3006
21FE
2156
21FE
F822
27FF
60A4
70FE
6A84
AAFC
A284
A2FC
2284
22FC
2202
23FF
ENDCHAR
STARTCHAR 3C0F
ENCODING 15375
SWIDTH 1000 0
DWIDTH 16 0
BBX 16 16 0 -2
BITMAP
3108
2108
23DE
2718
F884
2062
679D
79F8
6908
A1F8
A7FF
A402
25FA
259A
2462
240E
ENDCHAR
STARTCHAR 3C26
ENCODING 15398
SWIDTH 1000 0
DWIDTH 16 0
BBX 16 16 0 -2
BITMAP
1840
1860
1860
1E60
787F
1892
1894
1A90
E510
1810
1028
2428
2268
2544
F807
0186
ENDCHAR
STARTCHAR 3CC3
ENCODING 15555
SWIDTH 1000 0
DWIDTH 16 0
BBX 16 16 0 -2
BITMAP
20C0
1080
1898
07F8
8098
4898
699A
1199
120E
2460
2062
67FF
E060
6060
6060
6060
ENDCHAR
STARTCHAR 3CD2
ENCODING 15570
SWIDTH 1000 0
DWIDTH 16 0
BBX 16 16 0 -2
BITMAP
2040
1060
1860
0042
83FD
4090
6988
1144
1267
2262
2040
6088
E084
6186
67FA
6782
ENDCHAR
STARTCHAR 3D11
ENCODING 15633
SWIDTH 1000 0
DWIDTH 16 0
BBX 16 16 0 -2
BITMAP
2030
1020
1FFF
0608
8644
4668
6FFF
1610
1793
2792
2792
67FE
E592
6420
6060
6840
ENDCHAR
STARTCHAR 3D1E
ENCODING 15646
SWIDTH 1000 0
DWIDTH 16 0
BBX 16 16 0 -2
BITMAP
2006
107E
1BC2
0223
8122
4926
6800
1682
167F
2642
2642
667E
E642
6642
6642
667E
ENDCHAR
STARTCHAR 3D64
ENCODING 15716
SWIDTH 1000 0
DWIDTH 16 0
BBX 16 16 0 -2
BITMAP
0086
67DE
239E
0696
81AE
429E
7060
1062
27FD
2164
2268
636C
E152
6050
618C
6606
ENDCHAR
STARTCHAR 3D9A
ENCODING 15770
SWIDTH 1000 0
DWIDTH 16 0
BBX 16 16 0 -2
BITMAP
0002
67FF
2090
07FE
8492
47FE
6800
16A2
17DF
2792
27DE
6552
E7DE
6112
6FE2
6166
ENDCHAR
STARTCHAR 3DC0
ENCODING 15808
SWIDTH 1000 0
DWIDTH 16 0
BBX 15 16 1 -2
BITMAP
1020
1448
5F50
F140
2CF0
4488
8030
FFF0
0C30
0C30
0C30
0CB0
7F10
0C14
0C0A
0C0E
ENDCHAR
STARTCHAR 3DD4
ENCODING 15828
SWIDTH 1000 0
DWIDTH 16 0
BBX 16 16 0 -2
BITMAP
1806
103E
11E2
1123
1492
5696
5800
51C2
917F
1162
1162
297E
2562
2562
4162
817E
ENDCHAR
STARTCHAR 3E05
ENCODING 15877
SWIDTH 1000 0
DWIDTH 16 0
BBX 16 16 0 -2
BITMAP
3010
2198
21FF
2094
2800
A992
B3FF
A27A
A3FA
227A
33FA
281A
6ADA
4B9A
425A
83F8
ENDCHAR
STARTCHAR 3E3F
ENCODING 15935
SWIDTH 1000 0
DWIDTH 16 0
BBX 16 16 0 -2
BITMAP
1830
1020
13FF
5020
7C26
91FE
9002
11FF
1A02
F0D8
1098
1098
1098
109A
1199
111F
ENDCHAR
STARTCHAR 3E60
ENCODING 15968
SWIDTH 1000 0
DWIDTH 16 0
BBX 16 16 0 -2
BITMAP
0030
0620
4827
3838
33E0
7820
9926
1926
2926
2926
49FE
8926
0820
0822
1821
783F
ENDCHAR
STARTCHAR 3E66
ENCODING 15974
SWIDTH 1000 0
DWIDTH 16 0
BBX 16 16 0 -2
BITMAP
0802
0DFF
9862
5062
6062
5042
9086
399E
7A00
5902
99FF
1982
1982
1982
11FE
7182
ENDCHAR
STARTCHAR 3E68
ENCODING 15976
SWIDTH 1000 0
DWIDTH 16 0
BBX 16 16 0 -2
BITMAP
0830
0C20
9820
5020
63FF
5222
9222
3A22
7A22
5BFE
9A22
1A22
1A22
1A22
13FE
7202
ENDCHAR
STARTCHAR 3E83
ENCODING 16003
SWIDTH 1000 0
DWIDTH 16 0
BBX 16 16 0 -2
BITMAP
08D8
0C98
9FFF
5098
6000
5180
91FF
3A02
7DF2
5992
9992
1992
19F2
1982
1006
701E
ENDCHAR
STARTCHAR 3E94
ENCODING 16020
SWIDTH 1000 0
DWIDTH 16 0
BBX 16 16 0 -2
BITMAP
0818
0A78
9B80
5266
6408
53F8
9218
3A1C
7BE4
5A04
9BFF
1A02
1A2A
1FA2
1546
791E
ENDCHAR
STARTCHAR 3F57
ENCODING 16215
SWIDTH 1000 0
DWIDTH 16 0
BBX 15 16 1 -2
BITMAP
0060
0040
FC40
AC40
AC40
AC40
AC40
FCE0
ACE0
ACE0
AC90
AC90
DD10
8108
020E
040C
ENDCHAR
STARTCHAR 3F72
ENCODING 16242
SWIDTH 1000 0
DWIDTH 16 0
BBX 16 16 0 -2
BITMAP
00C0
0080
1FFF
1000
9006
57FE
1080
1180
F104
51FE
1204
2004
2008
6008
0010
00F0
ENDCHAR
STARTCHAR 3F75
ENCODING 16245
SWIDTH 1000 0
DWIDTH 16 0
BBX 16 16 0 -2
BITMAP
00C0
0080
1FFF
1000
9060
5040
1040
1040
F7FE
5040
1040
2040
2040
6040
0042
1FFF
ENDCHAR
STARTCHAR 3F77
ENCODING 16247
SWIDTH 1000 0
DWIDTH 16 0
BBX 16 16 0 -2
BITMAP
00C0
0080
1FFF
1000
9040
5040
1046
1146
FFF8
5260
1650
2458
2847
7046
01C0
0080
ENDCHAR
STARTCHAR 3FAE
ENCODING 16302
SWIDTH 1000 0
DWIDTH 16 0
BBX 16 16 0 -2
BITMAP
00C0
0080
1FFF
1080
92C4
53FE
1204
13FC
F204
53FC
1006
27FE
2064
67FE
0062
0FFF
ENDCHAR
STARTCHAR 3FC9
ENCODING 16329
SWIDTH 1000 0
DWIDTH 16 0
BBX 16 16 0 -2
BITMAP
00C0
0080
1FFF
1040
97FC
57FC
1FFF
1000
F7FC
57FC
1604
27FC
2604
67FC
0198
0706
ENDCHAR
STARTCHAR 3FD7
ENCODING 16343
SWIDTH 1000 0
DWIDTH 16 0
BBX 16 16 0 -2
BITMAP
00C0
0080
1FFF
1082
973D
522A
1FD7
1212
F79E
5A52
101E
2792
279E
65D0
099A
0921
ENDCHAR
STARTCHAR 4039
ENCODING 16441
SWIDTH 1000 0
DWIDTH 16 0
BBX 15 16 1 -2
BITMAP
0060
0040
F044
B7FE
B040
B450
F248
B248
B550
F552
B8E0
B0E0
F090
B110
020E
0C0C
ENDCHAR
STARTCHAR 4058
ENCODING 16472
SWIDTH 1000 0
DWIDTH 16 0
BBX 15 16 1 -2
BITMAP
0040
0060
F8FC
910C
94F0
9330
F0C0
9180
9308
F3FC
9444
9FFE
F040
934C
024C
03FC
ENDCHAR
STARTCHAR 4093
ENCODING 16531
SWIDTH 1000 0
DWIDTH 16 0
BBX 16 16 0 -2
BITMAP
4106
61FE
6186
6586
59FE
1186
11FE
1586
F986
1186
10F8
2878
26D8
669A
0119
8E1F
ENDCHAR
STARTCHAR 4105
ENCODING 16645
SWIDTH 1000 0
DWIDTH 16 0
BBX 16 16 0 -2
BITMAP
0110
2198
1990
0980
7FFE
0280
0642
FFFF
0850
1FF8
6017
9FFA
09A0
0D90
118C
6784
ENDCHAR
STARTCHAR 4148
ENCODING 16712
SWIDTH 1000 0
DWIDTH 16 0
BBX 16 16 0 -2
BITMAP
0110
2198
1990
0980
7FFE
0280
0642
FFFF
0850
19F8
6387
819A
1FE0
03C0
05B8
399E
ENDCHAR
STARTCHAR 414F
ENCODING 16719
SWIDTH 1000 0
DWIDTH 16 0
BBX 16 16 0 -2
BITMAP
0402
1FFF
F102
1102
15FE
FF08
1174
3120
31FE
7520
5122
91FF
9220
1222
1421
103F
ENDCHAR
STARTCHAR 4163
ENCODING 16739
SWIDTH 1000 0
DWIDTH 16 0
BBX 16 16 0 -2
BITMAP
0840
3C60
E1FE
2106
29FE
FD06
2106
61FE
7806
6BFE
2020
A024
21F8
2020
2022
27FF
ENDCHAR
STARTCHAR 41B4
ENCODING 16820
SWIDTH 1000 0
DWIDTH 16 0
BBX 15 16 1 -2
BITMAP
0300
4304
FCFE
8CC4
347C
4C00
B3C0
7FF0
BFF0
2310
1FE0
7FF8
7FF8
430C
3FF2
03FE
ENDCHAR
STARTCHAR 41BF
ENCODING 16831
SWIDTH 1000 0
DWIDTH 16 0
BBX 16 16 0 -2
BITMAP
0180
2182
7E7F
4662
183E
2040
5864
19FE
59FC
5904
79FC
19FC
FFFF
5870
18AE
9927
ENDCHAR
STARTCHAR 41E6
ENCODING 16870
SWIDTH 1000 0
DWIDTH 16 0
BBX 16 16 0 -2
BITMAP
0040
1860
3F7F
6880
0518
0180
0188
1FFC
1188
1188
FFFF
0100
0260
0630
181F
F006
ENDCHAR
STARTCHAR 41EE
ENCODING 16878
SWIDTH 1000 0
DWIDTH 16 0
BBX 16 16 0 -2
BITMAP
0040
1860
3F7F
6880
0518
1000
183E
10F0
2360
2060
2062
A7FF
2060
2060
2066
27FE
ENDCHAR
STARTCHAR 41F3
ENCODING 16883
SWIDTH 1000 0
DWIDTH 16 0
BBX 15 16 1 -2
BITMAP
0080
30C0
7EFE
D100
0AB0
0440
FFFC
0400
7FF8
0400
FFFC
0230
03C4
0384
0CFC
F03C
ENDCHAR
STARTCHAR 4207
ENCODING 16903
SWIDTH 1000 0
DWIDTH 16 0
BBX 16 16 0 -2
BITMAP
0040
2242
7DBD
4498
0180
0184
01F8
2188
1E7C
1008
1FF8
1008
1FF8
0182
FFFD
0180
ENDCHAR
STARTCHAR 420E
ENCODING 16910
SWIDTH 1000 0
DWIDTH 16 0
BBX 16 16 0 -2
BITMAP
0040
2242
7DBD
4498
1998
1912
FFFD
1910
18E4
1FFE
0182
7FFE
07A0
0590
398F
C182
ENDCHAR
STARTCHAR 4264
ENCODING 16996
SWIDTH 1000 0
DWIDTH 16 0
BBX 16 16 0 -2
BITMAP
2040
3060
7F7F
4800
8408
1A20
7B30
3C22
DB5D
3C26
9A24
1028
EF18
6618
1827
F6E6
ENDCHAR
STARTCHAR 42C6
ENCODING 17094
SWIDTH 1000 0
DWIDTH 16 0
BBX 16 16 0 -2
BITMAP
0002
1BFF
0000
A906
6DFE
7986
0986
2986
F5FE
1186
1980
7980
5500
9200
9200
1400
ENDCHAR
STARTCHAR 42D6
ENCODING 17110
SWIDTH 1000 0
DWIDTH 16 0
BBX 16 16 0 -2
BITMAP
0060
1860
01FE
A864
6C64
7BFF
0864
2864
F5F8
1060
19FE
7860
5462
93FF
9060
1060
ENDCHAR
STARTCHAR 42DD
ENCODING 17117
SWIDTH 1000 0
DWIDTH 16 0
BBX 16 16 0 -2
BITMAP
0002
1A43
0126
A926
6DA4
7980
0800
2860
F442
13FF
1888
7998
5550
9120
904C
1386
ENDCHAR
STARTCHAR 4302
ENCODING 17154
SWIDTH 1000 0
DWIDTH 16 0
BBX 16 16 0 -2
BITMAP
0002
19FF
0102
A902
6DFC
7906
09F8
2928
F546
11FA
1918
7A10
56FE
9210
9412
11FF
ENDCHAR
STARTCHAR 432B
ENCODING 17195
SWIDTH 1000 0
DWIDTH 16 0
BBX 16 16 0 -2
BITMAP
0248
1BEC
228A
A3DF
7A40
7BC6
0A88
2BE0
F5FC
1104
19FC
79FC
55FC
905A
9099
139F
ENDCHAR
STARTCHAR 4343
ENCODING 17219
SWIDTH 1000 0
DWIDTH 16 0
BBX 14 16 1 -2
BITMAP
0200
0300
07FC
0818
C330
09C0
0E00
F000
3FF8
0300
030C
FFFC
0300
630C
4308
7FF8
ENDCHAR
STARTCHAR 43EE
ENCODING 17390
SWIDTH 1000 0
DWIDTH 16 0
BBX 14 16 1 -2
BITMAP
90C0
F8C0
D3FC
D0CC
D0CC
F08C
D108
D338
D400
F408
D31C
D120
D000
9080
971C
320C
ENDCHAR
STARTCHAR 43F0
ENCODING 17392
SWIDTH 1000 0
DWIDTH 16 0
BBX 15 16 1 -2
BITMAP
9000
F80C
D3FC
D0CC
D18C
F0CC
D14C
D108
D010
F040
D0B0
D0B8
D286
9292
9488
34F8
ENDCHAR
STARTCHAR 4408
ENCODING 17416
SWIDTH 1000 0
DWIDTH 16 0
BBX 15 16 1 -2
BITMAP
9030
F820
D3FE
D040
D04C
F0FC
D28C
D2FC
D28C
F28C
D2FC
D28C
D2FC
928C
9204
33FE
ENDCHAR
STARTCHAR 4417
ENCODING 17431
SWIDTH 1000 0
DWIDTH 16 0
BBX 15 16 1 -2
BITMAP
90C0
F8C4
D0D6
D3FC
D0C8
F0D0
D7FE
D050
D088
F1FC
DF0C
D10C
D1FC
910C
91FC
310C
ENDCHAR
STARTCHAR 441C
ENCODING 17436
SWIDTH 1000 0
DWIDTH 16 0
BBX 15 16 1 -2
BITMAP
9310
FB78
D384
D304
D1FC
F000
D2F8
D288
D2F8
F288
D2F8
D288
D274
93FE
91CC
3706
ENDCHAR
STARTCHAR 4422
ENCODING 17442
SWIDTH 1000 0
DWIDTH 16 0
BBX 16 16 0 -2
BITMAP
1980
7902
5AFF
5A62
596A
79FA
5886
591E
5980
7982
5A7F
5A62
596A
99FA
1886
BB9E
ENDCHAR
STARTCHAR 4453
ENCODING 17491
SWIDTH 1000 0
DWIDTH 16 0
BBX 16 16 0 -2
BITMAP
0420
0426
7FF8
07E0
0420
07E0
4422
7FFF
DFFA
8224
1FF8
1E18
0188
3FFC
0182
FFFF
ENDCHAR
STARTCHAR 445B
ENCODING 17499
SWIDTH 1000 0
DWIDTH 16 0
BBX 16 16 0 -2
BITMAP
0006
049E
78F8
1098
1098
1698
F89A
10FF
1098
9488
6C88
448A
4486
4486
7DE3
417D
ENDCHAR
STARTCHAR 4476
ENCODING 17526
SWIDTH 1000 0
DWIDTH 16 0
BBX 16 16 0 -2
BITMAP
0030
1820
65FE
7C20
65FE
7420
67FF
6400
FDFE
65A4
75A4
75A4
75DC
6584
4584
1D9C
ENDCHAR
STARTCHAR 447A
ENCODING 17530
SWIDTH 1000 0
DWIDTH 16 0
BBX 16 16 0 -2
BITMAP
0104
19FE
6514
7F3C
6564
7524
657C
67AC
FDAC
65AC
7574
7526
7536
663E
46EA
1E01
ENDCHAR
STARTCHAR 4491
ENCODING 17553
SWIDTH 1000 0
DWIDTH 16 0
BBX 16 5 0 6
BITMAP
0020
0810
0420
0640
FFFF
ENDCHAR
STARTCHAR 44B3
ENCODING 17587
SWIDTH 1000 0
DWIDTH 16 0
BBX 16 16 0 -2
BITMAP
0630
0422
FFFD
0420
7FE0
0460
0C7E
0846
1006
219C
4180
7FFE
07A0
05A0
199F
E186
ENDCHAR
STARTCHAR 44BE
ENCODING 17598
SWIDTH 1000 0
DWIDTH 16 0
BBX 16 16 0 -2
BITMAP
0630
0420
FFFF
0420
0180
0182
FFFD
0280
0446
0C46
1438
6420
8418
044C
7F07
3802
ENDCHAR
STARTCHAR 44D4
ENCODING 17620
SWIDTH 1000 0
DWIDTH 16 0
BBX 16 16 0 -2
BITMAP
0630
0422
FFFD
05A0
016C
3FF8
0162
FFFF
0310
1FF8
3160
C180
7FFE
0180
0180
0780
ENDCHAR
STARTCHAR 4508
ENCODING 17672
SWIDTH 1000 0
DWIDTH 16 0
BBX 16 16 0 -2
BITMAP
0630
0422
FFFD
0420
3FFC
0180
FFFF
0000
1FF8
1FF8
1008
1FF8
1008
1FF8
0E78
381E
ENDCHAR
STARTCHAR 450D
ENCODING 17677
SWIDTH 1000 0
DWIDTH 16 0
BBX 16 16 0 -2
BITMAP
0630
0422
FFFD
0420
1FFC
1180
1FF8
1180
1FF8
1180
1FFE
1006
2826
2926
C584
801C
ENDCHAR
STARTCHAR 4525
ENCODING 17701
SWIDTH 1000 0
DWIDTH 16 0
BBX 16 16 0 -2
BITMAP
0630
0422
FFFD
0188
1FFC
018A
FFFD
0188
1FF0
31A6
23C4
2FF4
23C4
27A4
5994
8184
ENDCHAR
STARTCHAR 4543
ENCODING 17731
SWIDTH 1000 0
DWIDTH 16 0
BBX 16 16 0 -2
BITMAP
0660
0662
FFFD
0600
7C60
4840
598C
5107
47FA
51F8
49F8
4980
4FFF
5890
413E
47C6
ENDCHAR
STARTCHAR 459D
ENCODING 17821
SWIDTH 1000 0
DWIDTH 16 0
BBX 14 16 1 -2
BITMAP
0010
00F8
FF00
0300
0300
4308
7FF8
4308
4308
4308
7FF8
0300
0310
0308
FFEC
F004
ENDCHAR
STARTCHAR 45B8
ENCODING 17848
SWIDTH 1000 0
DWIDTH 16 0
BBX 16 16 0 -2
BITMAP
0268
0F64
3462
FFFF
0726
FC28
043A
046E
3803
0180
1FFC
1188
1FF8
1188
7FFE
7E06
ENDCHAR
STARTCHAR 45E5
ENCODING 17893
SWIDTH 1000 0
DWIDTH 16 0
BBX 16 16 0 -2
BITMAP
3124
21B6
21A6
2134
7A68
A849
A980
A98C
A968
7B6A
256D
2168
2968
3D68
C558
014F
ENDCHAR
STARTCHAR 45EA
ENCODING 17898
SWIDTH 1000 0
DWIDTH 16 0
BBX 16 16 0 -2
BITMAP
0080
2086
3F78
2210
3FFF
2210
23F0
2000
2912
2952
2FFE
6846
6FFE
4040
1FFA
9E03
ENDCHAR
STARTCHAR 460F
ENCODING 17935
SWIDTH 1000 0
DWIDTH 16 0
BBX 16 16 0 -2
BITMAP
1000
1842
107F
A266
FF64
AA60
AA68
AA68
AA66
AA66
AA62
A9E2
9E62
F06E
0060
0060
ENDCHAR
STARTCHAR 4641
ENCODING 17985
SWIDTH 1000 0
DWIDTH 16 0
BBX 16 16 0 -2
BITMAP
30D0
2098
209E
2860
DDF8
1822
149A
1507
68B0
3086
2DF8
2464
2038
2022
207E
2387
ENDCHAR
STARTCHAR 4665
ENCODING 18021
SWIDTH 1000 0
DWIDTH 16 0
BBX 16 16 0 -2
BITMAP
6004
61FE
6262
7BFF
9E62
11F8
2060
2BFC
7898
618C
7E73
7800
61FE
6066
607E
6064
ENDCHAR
STARTCHAR 46A1
ENCODING 18081
SWIDTH 1000 0
DWIDTH 16 0
BBX 16 16 0 -2
BITMAP
2000
2482
3C7F
685A
0A5A
FE7E
6A5A
6A5A
7E7E
6A00
7E08
6220
4222
42A5
82A6
0EBE
ENDCHAR
STARTCHAR 46AF
ENCODING 18095
SWIDTH 1000 0
DWIDTH 16 0
BBX 15 16 0 -2
BITMAP
0606
7E06
0066
0266
FD66
0066
7E66
0066
0666
7E66
0066
8666
7E06
4606
4606
7E1E
ENDCHAR
STARTCHAR 470C
ENCODING 18188
SWIDTH 1000 0
DWIDTH 16 0
BBX 16 16 0 -2
BITMAP
2000
33C6
2000
D04A
5B9B
501E
33C2
480A
F81D
23D4
3016
6A5E
6BDD
A254
A244
23C4
ENDCHAR
STARTCHAR 4764
ENCODING 18276
SWIDTH 1000 0
DWIDTH 16 0
BBX 16 16 0 -2
BITMAP
1060
1860
23FF
6872
AD4C
5988
21FE
708F
98F8
2888
98F8
1820
69A6
8922
1A21
7CE0
ENDCHAR
STARTCHAR 47FD
ENCODING 18429
SWIDTH 1000 0
DWIDTH 16 0
BBX 16 16 0 -2
BITMAP
0430
7E20
45FF
4460
4448
4484
39F6
1100
55AC
5FA8
51A8
51A8
51A8
512A
FC29
622F
ENDCHAR
STARTCHAR 4816
ENCODING 18454
SWIDTH 1000 0
DWIDTH 16 0
BBX 16 16 0 -2
BITMAP
0400
7E18
45A2
443F
441A
441C
3890
1190
5466
5E43
5180
50FE
5086
5086
FC86
60FE
ENDCHAR
STARTCHAR 4844
ENCODING 18500
SWIDTH 1000 0
DWIDTH 16 0
BBX 16 16 0 -2
BITMAP
1800
1888
FF7C
1848
7F48
5A48
5A48
7E48
5A48
5A48
7E48
1848
FF48
188A
1889
1B0F
ENDCHAR
STARTCHAR 484E
ENCODING 18510
SWIDTH 1000 0
DWIDTH 16 0
BBX 16 16 0 -2
BITMAP
1802
18FF
FF00
1882
7F7F
5A42
5A42
7E42
5A7E
5A42
7E40
1840
FF80
1880
1980
1900
ENDCHAR
STARTCHAR 48B5
ENCODING 18613
SWIDTH 1000 0
DWIDTH 16 0
BBX 16 16 0 -2
BITMAP
0022
023F
3D22
0026
0024
0020
FFA8
1824
1822
1022
1022
2422
002E
2126
FDA0
61A0
ENDCHAR
STARTCHAR 49B0
ENCODING 18864
SWIDTH 1000 0
DWIDTH 16 0
BBX 15 16 1 -2
BITMAP
0404
FEFE
FCFC
8484
F87C
8F04
8FE4
9B44
8FC4
8FC4
9FF4
9324
9FE4
9FF4
81F4
801C
ENDCHAR
STARTCHAR 49E7
ENCODING 18919
SWIDTH 1000 0
DWIDTH 16 0
BBX 15 16 1 -2
BITMAP
1110
F890
93FC
9040
A3FC
A040
A7FE
B000
93A4
9720
9FFE
9328
BFA8
8714
832C
8FCE
ENDCHAR
STARTCHAR 49FA
ENCODING 18938
SWIDTH 1000 0
DWIDTH 16 0
BBX 16 16 0 -2
BITMAP
1808
106C
1048
1692
F9FD
1198
229A
20FE
3E98
2698
669A
66FE
6698
2698
3E9A
26FF
ENDCHAR
STARTCHAR 4A04
ENCODING 18948
SWIDTH 1000 0
DWIDTH 16 0
BBX 16 16 0 -2
BITMAP
1848
146C
6368
9D52
066D
7EC8
054A
047E
FF48
2848
7F4A
6A7E
6648
4248
7E4A
7E7F
ENDCHAR
STARTCHAR 4A29
ENCODING 18985
SWIDTH 1000 0
DWIDTH 16 0
BBX 16 16 0 -2
BITMAP
0008
1FFC
7FFF
4182
9DB8
1DB8
0818
7C10
05FF
FF92
55FE
5592
5592
55FE
1410
9010
ENDCHAR
STARTCHAR 4ABC
ENCODING 19132
SWIDTH 1000 0
DWIDTH 16 0
BBX 15 16 1 -2
BITMAP
3004
31FE
3020
B544
B4BE
B484
B4FC
FC84
3084
30FC
B484
B484
B4FC
FC80
84CC
0302
ENDCHAR
STARTCHAR 4B3B
ENCODING 19259
SWIDTH 1000 0
DWIDTH 16 0
BBX 16 16 0 -2
BITMAP
1860
1866
1660
267E
59E0
7C7E
65E0
7C62
65FD
6428
7824
6828
6410
6E1A
F0ED
4307
ENDCHAR
STARTCHAR 4BC2
ENCODING 19394
SWIDTH 1000 0
DWIDTH 16 0
BBX 14 16 1 -2
BITMAP
0FF0
0900
0FE0
0FE0
2FF0
2FD0
FCFC
9090
F8F8
FCFC
FCFC
F574
0300
FFFC
0B40
F334
ENDCHAR
STARTCHAR 4BCA
ENCODING 19402
SWIDTH 1000 0
DWIDTH 16 0
BBX 16 16 0 -2
BITMAP
4400
7E02
64FF
7C06
7496
74FE
8A96
8296
7C96
6496
7CF6
6496
7C06
6406
6406
7C1E
ENDCHAR
STARTCHAR 4BD2
ENCODING 19410
SWIDTH 1000 0
DWIDTH 16 0
BBX 16 16 0 -2
BITMAP
4440
7E60
645E
7C80
7500
7480
8A42
82BF
7D84
6584
7C84
6484
7C84
6484
6484
7C9C
ENDCHAR
STARTCHAR 4BE8
ENCODING 19432
SWIDTH 1000 0
DWIDTH 16 0
BBX 16 16 0 -2
BITMAP
0180
0186
7E78
0FF0
0FF0
4006
7FFE
67E6
67E6
600E
0180
0182
FF7D
0260
0C1C
F00F
ENDCHAR
STARTCHAR 4C17
ENCODING 19479
SWIDTH 1000 0
DWIDTH 16 0
BBX 15 16 1 -2
BITMAP
C006
BCF4
BCF4
9044
ACB4
8F04
8FE4
9B44
8FC4
8FC4
9FF4
9324
9FE4
9FF4
81F4
801C
ENDCHAR
STARTCHAR 4C20
ENCODING 19488
SWIDTH 1000 0
DWIDTH 16 0
BBX 15 16 1 -2
BITMAP
0030
3030
FE34
B4FE
B4B4
FCB4
B4FC
B4B4
58B4
54FC
5230
5530
D2B0
D034
9FFE
0FFC
ENDCHAR
STARTCHAR 4CC4
ENCODING 19652
SWIDTH 1000 0
DWIDTH 16 0
BBX 16 16 0 -2
BITMAP
0030
1420
287E
2844
287C
6B44
AC7C
9840
A87F
A840
A87F
A842
AA3A
A9B2
F6A6
409E
ENDCHAR
STARTCHAR 4CD1
ENCODING 19665
SWIDTH 1000 0
DWIDTH 16 0
BBX 16 16 0 -2
BITMAP
1830
1820
197E
FFC4
107C
1044
3F7C
2240
627F
3E40
227F
2242
3E3A
22B2
22A6
269E
ENDCHAR
STARTCHAR 4D07
ENCODING 19719
SWIDTH 1000 0
DWIDTH 16 0
BBX 16 16 0 -2
BITMAP
0230
7E20
197E
7FC4
987C
7E44
7E7C
1840
067F
2340
9DFF
0042
7E3A
12B2
16A6
169E
ENDCHAR
STARTCHAR 4D77
ENCODING 19831
SWIDTH 1000 0
DWIDTH 16 0
BBX 16 16 0 -2
BITMAP
1902
11FE
1532
7F32
11FE
1030
FFFE
0132
1132
11FE
7F32
1132
11FE
1732
F821
603F
ENDCHAR
STARTCHAR 4E00
ENCODING 19968
SWIDTH 1000 0
DWIDTH 16 0
BBX 16 2 0 6
BITMAP
0002
FFFF
ENDCHAR
STARTCHAR 4E01
ENCODING 19969
SWIDTH 1000 0
DWIDTH 16 0
BBX 16 15 0 -2
BITMAP
0002
FFFD
0180
0180
0180
0180
0180
0180
0180
0180
0180
0180
0180
0180
0780
ENDCHAR
STARTCHAR 4E02
ENCODING 19970
SWIDTH 1000 0
DWIDTH 16 0
BBX 14 16 1 -2
BITMAP
0008
000C
FFF0
0800
1800
1000
1030
3FF0
3030
3030
0030
0030
0020
0060
00C0
03C0
ENDCHAR
STARTCHAR 4E03
ENCODING 19971
SWIDTH 1000 0
DWIDTH 16 0
BBX 15 15 0 -2
BITMAP
0600
0400
0400
0406
0406
04F0
0700
FC00
0400
0400
0400
0408
0408
07FC
07F8
ENDCHAR
STARTCHAR 4E07
ENCODING 19975
SWIDTH 1000 0
DWIDTH 16 0
BBX 16 15 0 -2
BITMAP
0002
FFFD
0600
0600
0608
07FC
0608
0608
0408
0408
0808
0818
1818
2010
6070
ENDCHAR
STARTCHAR 4E08
ENCODING 19976
SWIDTH 1000 0
DWIDTH 16 0
BBX 16 16 0 -2
BITMAP
0180
0180
0180
0180
0182
FFFF
0180
0980
0580
0580
0300
0100
0280
0660
181F
E00E
ENDCHAR
STARTCHAR 4E09
ENCODING 19977
SWIDTH 1000 0
DWIDTH 16 0
BBX 16 14 0 -1
BITMAP
0004
3FF8
0000
0000
0000
0000
0018
1FE0
0000
0000
0000
0000
0000
FFFF
ENDCHAR
STARTCHAR 4E0A
ENCODING 19978
SWIDTH 1000 0
DWIDTH 16 0
BBX 16 16 0 -2
BITMAP
0180
0100
0100
0100
0100
0100
0108
01FC
0100
0100
0100
0100
0100
0100
0102
FFFF
ENDCHAR
STARTCHAR 4E0B
ENCODING 19979
SWIDTH 1000 0
DWIDTH 16 0
BBX 16 15 0 -2
BITMAP
0002
FFFD
0100
0100
0180
0170
0118
0108
0100
0100
0100
0100
0100
0100
0100
ENDCHAR
STARTCHAR 4E0D
ENCODING 19981
SWIDTH 1000 0
DWIDTH 16 0
BBX 16 15 0 -2
BITMAP
0002
FFFD
0180
0100
0200
0798
0588
1986
1186
6182
8180
0180
0180
0180
0180
ENDCHAR
STARTCHAR 4E0E
ENCODING 19982
SWIDTH 1000 0
DWIDTH 16 0
BBX 16 16 0 -2
BITMAP
0C00
0800
0810
0FF8
0800
0800
1FF0
1820
0020
0022
FFFD
0060
0060
0060
00C0
0380
ENDCHAR
STARTCHAR 4E0F
ENCODING 19983
SWIDTH 1000 0
DWIDTH 16 0
BBX 16 15 0 -2
BITMAP
0002
FFFD
0180
3186
21FE
2186
2186
3FFE
2006
0006
0006
0004
000C
0018
00F8
ENDCHAR
STARTCHAR 4E10
ENCODING 19984
SWIDTH 1000 0
DWIDTH 16 0
BBX 16 15 0 -2
BITMAP
0002
FFFD
0180
3184
21FE
2180
2180
7FFE
6006
0006
0006
0004
000C
0018
0078
ENDCHAR
STARTCHAR 4E11
ENCODING 19985
SWIDTH 1000 0
DWIDTH 16 0
BBX 16 16 0 -2
BITMAP
0010
3FF8
0610
0610
0610
0610
0610
0612
FDFD
0410
0410
0410
0410
0410
0412
FFFF
ENDCHAR
STARTCHAR 4E12
ENCODING 19986
SWIDTH 1000 0
DWIDTH 16 0
BBX 16 16 0 -2
BITMAP
0006
7FFE
0046
0066
1846
0446
0386
0186
0266
0666
0826
1006
000C
0038
0002
FFFF
ENDCHAR
STARTCHAR 4E14
ENCODING 19988
SWIDTH 1000 0
DWIDTH 16 0
BBX 16 15 0 -2
BITMAP
1010
1FF0
1810
1810
1810
1FF0
1810
1810
1810
1FF0
1810
1810
1810
1812
FFFF
ENDCHAR
STARTCHAR 4E15
ENCODING 19989
SWIDTH 1000 0
DWIDTH 16 0
BBX 16 15 0 -2
BITMAP
0006
7FF8
0180
0100
0200
0798
0588
1986
1186
8182
0180
0180
0180
0002
FFFF
ENDCHAR
STARTCHAR 4E16
ENCODING 19990
SWIDTH 1000 0
DWIDTH 16 0
BBX 16 16 0 -2
BITMAP
1998
1998
1998
1998
1998
199A
FFFD
1998
1998
1998
19F8
1998
1800
1800
1806
1FFE
ENDCHAR
STARTCHAR 4E17
ENCODING 19991
SWIDTH 1000 0
DWIDTH 16 0
BBX 16 16 0 -2
BITMAP
198C
1188
1188
1188
1188
1188
118A
FFFF
1188
1188
1188
1188
1188
1188
1188
1FF8
ENDCHAR
STARTCHAR 4E18
ENCODING 19992
SWIDTH 1000 0
DWIDTH 16 0
BBX 16 15 0 -2
BITMAP
0018
11E0
1E00
1800
1800
1804
1FFE
1860
1860
1860
1860
1860
1860
1862
FFFF
ENDCHAR
STARTCHAR 4E19
ENCODING 19993
SWIDTH 1000 0
DWIDTH 16 0
BBX 16 15 0 -2
BITMAP
0002
FFFD
0180
2184
3FFE
2104
2284
2664
2424
3814
2004
2004
2004
2004
201C
ENDCHAR
STARTCHAR 4E1E
ENCODING 19998
SWIDTH 1000 0
DWIDTH 16 0
BBX 16 16 0 -2
BITMAP
0010
1FF8
0060
0040
0586
7F86
05C8
09B0
1990
1198
2187
4186
8780
0100
0006
7FFE
ENDCHAR
STARTCHAR 4E21
ENCODING 20001
SWIDTH 1000 0
DWIDTH 16 0
BBX 16 15 0 -2
BITMAP
0002
FFFD
0180
4186
7FFE
6186
6996
6996
6996
6996
6996
6E76
6816
6006
601E
ENDCHAR
STARTCHAR 4E26
ENCODING 20006
SWIDTH 1000 0
DWIDTH 16 0
BBX 16 15 0 -1
BITMAP
1018
0C20
0620
0004
7FFE
0640
0640
2646
2644
1648
1650
0640
0640
0642
FFFF
ENDCHAR
STARTCHAR 4E28
ENCODING 20008
SWIDTH 1000 0
DWIDTH 16 0
BBX 2 16 7 -2
BITMAP
C0
C0
C0
C0
C0
C0
C0
C0
C0
C0
C0
C0
C0
C0
C0
C0
ENDCHAR
STARTCHAR 4E29
ENCODING 20009
SWIDTH 1000 0
DWIDTH 16 0
BBX 9 16 3 -2
BITMAP
0180
0100
3100
3100
3100
3100
3100
3100
3100
3100
3100
3300
F100
6100
0100
0100
ENDCHAR
STARTCHAR 4E2A
ENCODING 20010
SWIDTH 1000 0
DWIDTH 16 0
BBX 16 16 0 -2
BITMAP
0180
0180
0100
0240
0620
0410
198F
1186
A180
0180
0180
0180
0180
0180
0180
0180
ENDCHAR
STARTCHAR 4E2B
ENCODING 20011
SWIDTH 1000 0
DWIDTH 16 0
BBX 10 16 3 -2
BITMAP
0080
80C0
6080
3100
1200
1400
0C00
0C00
0C00
0C00
0C00
0C00
0C00
0C00
0C00
0C00
ENDCHAR
STARTCHAR 4E2C
ENCODING 20012
SWIDTH 1000 0
DWIDTH 16 0
BBX 6 16 5 -2
BITMAP
0C
08
08
88
68
28
08
08
08
18
E8
C8
08
08
08
08
ENDCHAR
STARTCHAR 4E2D
ENCODING 20013
SWIDTH 1000 0
DWIDTH 16 0
BBX 14 16 1 -2
BITMAP
0300
0300
0300
0300
FFFC
C30C
C30C
C30C
C30C
C30C
FFFC
C30C
0300
0300
0300
0300
ENDCHAR
STARTCHAR 4E2E
ENCODING 20014
SWIDTH 1000 0
DWIDTH 16 0
BBX 16 16 0 -2
BITMAP
0008
FFFC
0608
0608
0608
0668
7F88
0608
0608
0608
7FE8
060A
0606
0606
0602
0603
ENDCHAR
STARTCHAR 4E2F
ENCODING 20015
SWIDTH 1000 0
DWIDTH 16 0
BBX 12 16 2 -2
BITMAP
0600
0620
0670
07C0
0E00
FE00
0630
0660
0F80
7E00
0630
0660
0F80
FE00
0600
0600
ENDCHAR
STARTCHAR 4E30
ENCODING 20016
SWIDTH 1000 0
DWIDTH 16 0
BBX 12 16 2 -2
BITMAP
0600
0600
0600
0620
FFD0
0600
0600
0660
7F80
0600
0600
0610
FFE0
0600
0600
0600
ENDCHAR
STARTCHAR 4E31
ENCODING 20017
SWIDTH 1000 0
DWIDTH 16 0
BBX 14 16 1 -2
BITMAP
0CC0
0CC0
0CC0
CCCC
CCCC
CCCC
CCCC
CCCC
CCCC
CCCC
FCFC
CCCC
08C0
10C0
20C0
C0C0
ENDCHAR
STARTCHAR 4E32
ENCODING 20018
SWIDTH 1000 0
DWIDTH 16 0
BBX 14 16 1 -2
BITMAP
0300
0300
4308
7FFC
4308
4308
7FF8
0300
830C
FFFC
C30C
C30C
FFFC
C30C
0300
0300
ENDCHAR
STARTCHAR 4E36
ENCODING 20022
SWIDTH 1000 0
DWIDTH 16 0
BBX 5 5 5 3
BITMAP
80
60
30
18
08
ENDCHAR
STARTCHAR 4E38
ENCODING 20024
SWIDTH 1000 0
DWIDTH 16 0
BBX 16 16 0 -2
BITMAP
0300
0200
0200
0200
7FF8
0210
0210
0210
1A10
0610
0510
0590
0890
1812
2011
E01F
ENDCHAR
STARTCHAR 4E39
ENCODING 20025
SWIDTH 1000 0
DWIDTH 16 0
BBX 16 16 0 -2
BITMAP
1018
1FF8
1818
1A18
1998
1998
1818
1818
FFFF
1818
1818
1018
1018
2018
6018
4078
ENDCHAR
STARTCHAR 4E3B
ENCODING 20027
SWIDTH 1000 0
DWIDTH 16 0
BBX 16 16 0 -2
BITMAP
0400
0200
0180
0180
7FFE
0180
0180
0180
0188
3FFC
0180
0180
0180
0180
0182
FFFF
ENDCHAR
STARTCHAR 4E3C
ENCODING 20028
SWIDTH 1000 0
DWIDTH 16 0
BBX 16 16 0 -2
BITMAP
0630
0420
0420
0420
7FFE
0420
0720
05A0
0420
0422
FFFD
0820
0820
1820
1020
6020
ENDCHAR
STARTCHAR 4E3F
ENCODING 20031
SWIDTH 1000 0
DWIDTH 16 0
BBX 8 16 2 -2
BITMAP
03
02
02
02
02
02
02
02
02
02
06
06
04
08
10
E0
ENDCHAR
STARTCHAR 4E40
ENCODING 20032
SWIDTH 1000 0
DWIDTH 16 0
BBX 16 15 0 -2
BITMAP
2000
6000
6000
A000
1000
0800
0800
0000
0400
0200
0100
00C0
0060
001F
0006
ENDCHAR
STARTCHAR 4E42
ENCODING 20034
SWIDTH 1000 0
DWIDTH 16 0
BBX 16 15 0 -2
BITMAP
0818
1818
1818
1810
1010
0420
0620
0260
0140
0080
01C0
0260
0638
180F
E006
ENDCHAR
STARTCHAR 4E43
ENCODING 20035
SWIDTH 1000 0
DWIDTH 16 0
BBX 16 16 0 -2
BITMAP
0020
7FF0
0420
0420
0420
0420
047F
0462
0402
0802
0802
0802
1806
1006
2004
C03C
ENDCHAR
STARTCHAR 4E45
ENCODING 20037
SWIDTH 1000 0
DWIDTH 16 0
BBX 16 16 0 -2
BITMAP
0200
0300
0200
0620
07F0
0420
0860
0860
1040
60A0
01A0
0100
0618
0408
1807
E006
ENDCHAR
STARTCHAR 4E47
ENCODING 20039
SWIDTH 1000 0
DWIDTH 16 0
BBX 16 16 0 -2
BITMAP
0018
0038
03C0
1E00
6200
0200
0200
0202
FFFD
0200
0200
0200
0200
0202
0202
03FE
ENDCHAR
STARTCHAR 4E48
ENCODING 20040
SWIDTH 1000 0
DWIDTH 16 0
BBX 14 16 1 -2
BITMAP
0800
0C00
0C00
0800
1000
1000
2300
0300
8200
0200
0440
0420
0810
0818
7FEC
380C
ENDCHAR
STARTCHAR 4E4B
ENCODING 20043
SWIDTH 1000 0
DWIDTH 16 0
BBX 16 16 0 -2
BITMAP
0180
0180
0180
0188
7E7C
0018
0060
0060
0180
0100
0600
2800
3800
6400
C3FF
407E
ENDCHAR
STARTCHAR 4E4D
ENCODING 20045
SWIDTH 1000 0
DWIDTH 16 0
BBX 16 15 0 -1
BITMAP
0600
0C00
0802
1FFD
1180
2188
41FC
8180
0180
01FE
0180
0180
0180
0180
0180
ENDCHAR
STARTCHAR 4E4E
ENCODING 20046
SWIDTH 1000 0
DWIDTH 16 0
BBX 16 16 0 -2
BITMAP
0008
003C
7FC0
0188
318C
1988
0990
0980
FFFF
0180
0180
0180
0180
0180
0180
0780
ENDCHAR
STARTCHAR 4E4F
ENCODING 20047
SWIDTH 1000 0
DWIDTH 16 0
BBX 16 16 0 -2
BITMAP
0018
007C
3F80
0180
0180
0188
FE7C
0030
0060
00C0
0100
2200
3400
6800
C700
41FF
ENDCHAR
STARTCHAR 4E51
ENCODING 20049
SWIDTH 1000 0
DWIDTH 16 0
BBX 15 16 1 -2
BITMAP
0010
0078
0F80
F300
0300
1304
1B0C
1398
2380
4340
0F40
1B20
3318
230E
C304
0300
ENDCHAR
STARTCHAR 4E55
ENCODING 20053
SWIDTH 1000 0
DWIDTH 16 0
BBX 16 16 0 -2
BITMAP
000C
003E
3FC0
2040
3FFF
2040
2042
3FFF
2040
2846
2FFE
6846
4846
4846
885E
0844
ENDCHAR
STARTCHAR 4E56
ENCODING 20054
SWIDTH 1000 0
DWIDTH 16 0
BBX 16 16 0 -2
BITMAP
0018
0078
3F80
0180
FFFF
0180
0D98
0990
F993
0996
0998
0992
E991
699F
0180
0180
ENDCHAR
STARTCHAR 4E57
ENCODING 20055
SWIDTH 1000 0
DWIDTH 16 0
BBX 16 16 0 -2
BITMAP
0018
01F8
1F80
0186
7FF8
1998
FFFF
1998
1998
199E
67E0
07A0
0990
1998
6187
8182
ENDCHAR
STARTCHAR 4E58
ENCODING 20056
SWIDTH 1000 0
DWIDTH 16 0
BBX 16 16 0 -2
BITMAP
0030
01F8
3F80
0182
FFFD
0D9A
F994
0998
1991
E99F
03C0
07E0
0990
1998
6187
8182
ENDCHAR
STARTCHAR 4E59
ENCODING 20057
SWIDTH 1000 0
DWIDTH 16 0
BBX 14 15 1 -2
BITMAP
0040
FFE0
00C0
0300
0300
0C00
0C00
3000
3000
4000
4004
C004
C004
7FFC
1FF0
ENDCHAR
STARTCHAR 4E5A
ENCODING 20058
SWIDTH 1000 0
DWIDTH 16 0
BBX 11 16 3 -2
BITMAP
C000
8000
8000
8000
8000
8000
8000
8000
8000
8000
8000
8040
8040
8020
FFE0
FFC0
ENDCHAR
STARTCHAR 4E5D
ENCODING 20061
SWIDTH 1000 0
DWIDTH 16 0
BBX 16 16 0 -2
BITMAP
0600
0600
0600
0600
0620
FFF0
0620
0620
0620
0620
0420
0420
0822
1822
003F
E01E
ENDCHAR
STARTCHAR 4E5E
ENCODING 20062
SWIDTH 1000 0
DWIDTH 16 0
BBX 15 16 0 -2
BITMAP
0800
0C00
1806
1FFE
2000
2000
5FF0
80E0
0380
0600
0C00
1800
1002
2002
3006
1FFE
ENDCHAR
STARTCHAR 4E5F
ENCODING 20063
SWIDTH 1000 0
DWIDTH 16 0
BBX 16 16 0 -2
BITMAP
0180
0180
1980
1980
19BC
19C8
1F88
3988
D988
1988
19B8
1998
1980
1802
1801
1FFF
ENDCHAR
STARTCHAR 4E62
ENCODING 20066
SWIDTH 1000 0
DWIDTH 16 0
BBX 15 16 1 -2
BITMAP
30C0
30C0
30C0
30C0
B4C0
B4C0
B4C0
B4C0
B4C0
B4C0
B4C0
B4C0
B4C0
FCC4
80C2
00FE
ENDCHAR
STARTCHAR 4E69
ENCODING 20073
SWIDTH 1000 0
DWIDTH 16 0
BBX 15 16 1 -2
BITMAP
3060
3040
3040
3040
3340
3F40
3040
3040
3040
B240
CE40
8240
8240
8244
FE42
827E
ENDCHAR
STARTCHAR 4E71
ENCODING 20081
SWIDTH 1000 0
DWIDTH 16 0
BBX 16 16 0 -2
BITMAP
0130
07A0
3820
E820
0820
09A0
FE20
0820
0820
4920
7720
6120
6120
6122
6121
7F3F
ENDCHAR
ENDFONT
